<svg xmlns="http://www.w3.org/2000/svg" xmlns:xlink="http://www.w3.org/1999/xlink" width="107.644" height="103.035" viewBox="0 0 107.644 103.035">
  <defs>
    <clipPath id="clip-path">
      <path id="Tracé_3980" data-name="Tracé 3980" d="M276.735,40.725a27.39,27.39,0,0,0-1.477-6,25.6,25.6,0,0,0-2.545-5.641,23.459,23.459,0,0,0-4.159-4.585,22.07,22.07,0,0,0-5.211-3.242,21.768,21.768,0,0,0-5.794-2.011,26.542,26.542,0,0,0-12.317,1.539,24.489,24.489,0,0,0-5.253,3.492,29.888,29.888,0,0,0-4.09,4.771,5.451,5.451,0,0,1-7.88.568,31.6,31.6,0,0,0-5.041-3.767A24.484,24.484,0,0,0,217.2,23.3a20.358,20.358,0,0,0-6.267-.692,20.869,20.869,0,0,0-6.19,1.21A22.274,22.274,0,0,0,199.2,26.6a22.418,22.418,0,0,0-4.3,4.457,23.371,23.371,0,0,0-3.153,5.3,25.08,25.08,0,0,0-1.569,5.95,27.4,27.4,0,0,0-.259,6.135,30.137,30.137,0,0,0,1.022,6.059,33.371,33.371,0,0,0,1.931,5.869,38.707,38.707,0,0,0,3.28,5.246,43.967,43.967,0,0,0,3.9,4.791c1.483,1.59,3.094,3.037,4.623,4.55,1.554,1.538,3.126,3.023,4.693,4.473,1.619,1.5,3.019,3.181,4.612,4.575,1.682,1.467,3.418,2.778,5.029,4.106,1.752,1.445,3.364,2.911,4.975,4.172,1.847,1.446,3.566,2.79,5.143,3.964,2.045,1.525,3.915,2.7,5.34,3.7a5.337,5.337,0,0,0,6.816-.62c1.25-1.23,2.965-2.646,4.744-4.5,1.369-1.431,2.8-3.1,4.394-4.846,1.386-1.525,2.691-3.295,4.184-5.025,1.374-1.59,2.8-3.25,4.214-4.993,1.346-1.653,2.79-3.295,4.136-5.062,1.305-1.711,2.427-3.594,3.7-5.392q1.88-2.65,3.668-5.4a43.385,43.385,0,0,0,2.954-5.4,39.425,39.425,0,0,0,2.42-5.68,34.16,34.16,0,0,0,1.166-6.088,30.406,30.406,0,0,0-.118-6.2Zm-6.262,8.293c-.62,4.634-1.377,9.952-4.658,14.718-2.431,3.522-6,6.215-8.634,9.4-2.883,3.48-4.885,7.478-7.55,10.287-3.657,3.863-7.709,6.119-9.849,8.115-.525.491-.568,1.842-1.227,2.045s-1.477-.887-2.18-.98-1.767.75-2.364.354c-2.424-1.6-5.4-5.073-9.621-8.241-3.067-2.3-7.181-4.025-10.6-6.941-3.112-2.657-5.453-6.4-8.452-9.429-4.072-4.114-7.762-8.048-9.236-12.549-1.786-5.453-.643-10.847.929-15.381,1.742-5.026,4.64-9.741,9.858-11.519,2.62-.892,5.391.15,7.952.528,2.685.4,5.6.212,7.869,1.337,2.759,1.363,4.431,4.007,5.986,5.32.65.549,1.9-.153,2.7-.019s1.762,1.205,2.539.927.8-1.68,1.346-2.336c1.3-1.569,4.046-2.675,6.464-4.42,1.987-1.438,3.783-3.781,6.338-4.575,2.386-.741,5.05.107,7.754.519,5.42.826,10.338,3.089,13.007,7.6C271.28,37.893,271.229,43.368,270.473,49.018Z" transform="translate(-189.848 -19.023)" fill="none"/>
    </clipPath>
  </defs>
  <g id="pizza" transform="matrix(0.966, -0.259, 0.259, 0.966, -186.03, 54.392)" style="isolation: isolate">
    <g id="pizza-2" data-name="pizza" transform="translate(187.915 17.457)">
      <g id="pizza-3" data-name="pizza" transform="translate(0 0)">
        <path id="Tracé_3940" data-name="Tracé 3940" d="M249.793,114.316a5.33,5.33,0,0,0,3.289-1.522c.215-.211,3.493-3.241,4.724-4.526,1.363-1.43,2.8-3.1,4.394-4.845.721-.8,1.422-1.655,2.138-2.541,2.749-3.107,5.688-6.589,8.624-10.323.6-.724,1.2-1.459,1.773-2.215.378-.5.74-1.008,1.1-1.527,2.2-2.946,4.367-6.021,6.411-9.176a73.57,73.57,0,0,0,3.531-6.613q.542-1.278.978-2.547c.134-.318.693-1.931.719-2.02a34.145,34.145,0,0,0,1.166-6.087,30.416,30.416,0,0,0-.114-6.195,22.679,22.679,0,0,0-.623-3.249,26.727,26.727,0,0,0-1.581-4.739,19.759,19.759,0,0,0-1.818-3.651,21.407,21.407,0,0,0-3.383-3.88,21.964,21.964,0,0,0-11.781-5.981,20.163,20.163,0,0,0-9.51.621,13.24,13.24,0,0,0-2.812.943,24.538,24.538,0,0,0-5.257,3.49,17.385,17.385,0,0,0-2.148,2.246c-.774.817-1.466,1.635-2.076,2.419a5.33,5.33,0,0,1-5.2,1.961,5.536,5.536,0,0,1-2.545-1.288,33.534,33.534,0,0,0-3.992-3.121v-.032a.454.454,0,0,0-.324-.454.368.368,0,0,0-.316.087c-.135-.083-.273-.166-.41-.247a24.463,24.463,0,0,0-5.764-2.556,20.393,20.393,0,0,0-6.267-.692,20.868,20.868,0,0,0-6.173,1.211,22.316,22.316,0,0,0-5.549,2.79,18.235,18.235,0,0,0-3.281,3.189,25.289,25.289,0,0,0-6.042,20.146.734.734,0,0,0-.348.123.518.518,0,0,0-.075.454,1.007,1.007,0,0,0,.125.4.682.682,0,0,0,.469.269,32.165,32.165,0,0,0,1.845,6.712,19.271,19.271,0,0,0,.97,2.47,26.673,26.673,0,0,0,1.773,3.053,42.618,42.618,0,0,0,5.355,7.021c3.918,4.191,8.058,8.149,12.107,11.76.608.626,1.22,1.236,1.863,1.8,1.59,1.384,3.225,2.631,4.759,3.884l.515.425c1.658,1.378,3.2,2.766,4.731,3.967,1.847,1.447,3.566,2.79,5.143,3.964,2.045,1.525,3.915,2.7,5.339,3.7a5.247,5.247,0,0,0,3.552.927Z" transform="translate(-199.716 -30.684)" fill="#e2b78d" opacity="0.25" style="mix-blend-mode: multiply;isolation: isolate"/>
        <path id="Tracé_3941" data-name="Tracé 3941" d="M255.861,17.657a20.529,20.529,0,0,0-6.285.107,19.636,19.636,0,0,0-5.925,1.931,24.253,24.253,0,0,0-5.3,3.315,31.052,31.052,0,0,0-4.277,4.584,5.362,5.362,0,0,1-7.8.642,32.525,32.525,0,0,0-5.179-3.53,23.957,23.957,0,0,0-5.621-2.8,20.44,20.44,0,0,0-6.263-.578,20.71,20.71,0,0,0-6.135,1.235,23.409,23.409,0,0,0-9.914,7.1,23.491,23.491,0,0,0-3.281,5.237,25.256,25.256,0,0,0-1.464,6.005,27.441,27.441,0,0,0-.475,6.156,30.746,30.746,0,0,0,1.193,6.063,33.708,33.708,0,0,0,2.107,5.8,38.284,38.284,0,0,0,3.083,5.363,44.061,44.061,0,0,0,3.879,4.829c1.483,1.59,3.128,3.012,4.658,4.525,1.554,1.538,3.08,3.079,4.648,4.528,1.619,1.5,3.114,3.083,4.709,4.473,1.682,1.466,3.488,2.695,5.1,4.023,1.753,1.445,3.423,2.833,5.034,4.09,1.846,1.446,3.475,2.906,5.053,4.078,2.045,1.525,4.026,2.54,5.447,3.539a5.038,5.038,0,0,0,6.6-.554c1.25-1.23,2.894-2.707,4.674-4.567,1.369-1.431,2.88-3.021,4.468-4.771,1.386-1.525,2.88-3.126,4.373-4.858,1.374-1.59,2.675-3.355,4.09-5.1,1.346-1.644,2.771-3.3,4.117-5.067q1.956-2.566,3.871-5.267c1.25-1.769,2.37-3.647,3.557-5.48a45.939,45.939,0,0,0,3.308-5.24,38.014,38.014,0,0,0,1.945-5.886,34.69,34.69,0,0,0,1.33-6.053,30.719,30.719,0,0,0-.1-6.207,27.857,27.857,0,0,0-1.393-6.045,25.528,25.528,0,0,0-2.747-5.554,23.392,23.392,0,0,0-4.163-4.558,22.035,22.035,0,0,0-10.927-5.514Z" transform="translate(-187.915 -17.457)" fill="#eca24c"/>
        <path id="Tracé_3942" data-name="Tracé 3942" d="M297.529,75.671c-2.7-.411-5.371-1.259-7.754-.518-2.552.8-4.351,3.136-6.349,4.578-2.417,1.745-5.166,2.85-6.464,4.42-.543.656-.584,2.062-1.346,2.336s-1.725-.8-2.539-.927-2.045.568-2.7.019c-1.554-1.313-3.226-3.951-5.986-5.32-2.272-1.125-5.185-.938-7.869-1.336-2.557-.379-5.328-1.421-7.947-.529-5.22,1.778-8.117,6.493-9.86,11.518-1.571,4.533-2.714,9.927-.928,15.381,1.477,4.5,5.165,8.435,9.236,12.549,3,3.028,5.34,6.773,8.452,9.429,3.416,2.916,7.528,4.642,10.6,6.942,4.226,3.167,7.2,6.638,9.621,8.24.6.4,1.677-.448,2.365-.356s1.509,1.189,2.18.98.7-1.558,1.227-2.045c2.139-2,6.192-4.255,9.849-8.115,2.661-2.809,4.667-6.807,7.55-10.287,2.636-3.181,6.209-5.868,8.634-9.4,3.283-4.771,4.04-10.084,4.658-14.717.755-5.652.807-11.127-1.626-15.246C307.872,78.755,302.95,76.492,297.529,75.671Z" transform="translate(-231.316 -68.338)" fill="#d82219"/>
        <path id="Tracé_3943" data-name="Tracé 3943" d="M269.489,101.113c1.754-.6,3.586-.333,5.3-.3a19.4,19.4,0,0,1,5.3.393c1.759.55,3.2,1.769,4.658,2.588a34.6,34.6,0,0,1,4.65,2.6c.442.374.707,1.078,1.236,1.241s1.164-.274,1.725-.324,1.25.276,1.754.017.63-.992,1-1.438a38.022,38.022,0,0,1,4.2-3.479c1.31-1.1,2.53-2.595,4.183-3.495a19.96,19.96,0,0,1,5.226-1.477c1.728-.386,3.522-1,5.382-.716a18.868,18.868,0,0,1,9.776,4.885,14.692,14.692,0,0,1,5.218,9.5c.324,3.142-.633,6.718-2.081,10.823a47.48,47.48,0,0,1-4.476,10.125c-1.548,2.456-3.644,4.532-5.376,6.78-1.818,2.356-3.295,4.905-5.128,6.966-2.065,2.319-4.455,4.081-6.3,5.934-2.5,2.519-4.326,4.927-5.846,6.376-.354.341-1.04.187-1.477.381s-.783.805-1.261.85-.927-.49-1.4-.6-1.105.165-1.517-.1c-1.779-1.15-3.99-3.239-6.895-5.318-2.138-1.531-4.8-2.878-7.259-4.811-2.181-1.719-4.115-3.971-6.362-5.944-2.148-1.887-4.637-3.506-6.691-5.574a37.392,37.392,0,0,1-6.21-8.939c-1.993-3.644-3.408-7.028-3.477-10.259a16.2,16.2,0,0,1,3.661-10.07A18.025,18.025,0,0,1,269.489,101.113Z" transform="translate(-249.455 -87.656)" fill="#fff3d7"/>
        <g id="Groupe_3988" data-name="Groupe 3988" transform="translate(0.22 0.178)" clip-path="url(#clip-path)">
          <path id="Tracé_3944" data-name="Tracé 3944" d="M932.13,189.419c.125.049.422-.091.552.068a.568.568,0,0,1,.052.587.985.985,0,0,1-.432.432.9.9,0,0,1-.751.1.671.671,0,0,1-.3-.936.626.626,0,0,1,.883-.253" transform="translate(-846.945 -169.977)" fill="#eca24c" opacity="0.5" style="mix-blend-mode: multiply;isolation: isolate"/>
          <path id="Tracé_3945" data-name="Tracé 3945" d="M285.637,442.621c.125.037.423-.081.551.047a.387.387,0,0,1,.042.476.967.967,0,0,1-.438.358,1.1,1.1,0,0,1-.751.1.492.492,0,0,1-.29-.755.717.717,0,0,1,.886-.22" transform="translate(-273.893 -394.435)" fill="#eca24c" opacity="0.5" style="mix-blend-mode: multiply;isolation: isolate"/>
          <path id="Tracé_3946" data-name="Tracé 3946" d="M442.564,92.943c.124.037.422-.081.55.048a.386.386,0,0,1,.043.475.975.975,0,0,1-.438.358,1.094,1.094,0,0,1-.752.1.49.49,0,0,1-.289-.755.718.718,0,0,1,.886-.22" transform="translate(-412.991 -84.483)" fill="#eca24c" opacity="0.5" style="mix-blend-mode: multiply;isolation: isolate"/>
          <path id="Tracé_3947" data-name="Tracé 3947" d="M516.88,152.841c.124.037.422-.081.55.047a.386.386,0,0,1,.042.476.962.962,0,0,1-.438.358,1.1,1.1,0,0,1-.751.1.491.491,0,0,1-.289-.755.717.717,0,0,1,.886-.22" transform="translate(-478.865 -137.576)" fill="#eca24c" opacity="0.5" style="mix-blend-mode: multiply;isolation: isolate"/>
          <path id="Tracé_3948" data-name="Tracé 3948" d="M901.238,230.25a.4.4,0,0,1,.285.061.35.35,0,0,1,.082.309,1.189,1.189,0,0,1-.477.8,1.5,1.5,0,0,1-.893.279.787.787,0,0,1-.671-.287,1.007,1.007,0,0,1-.125-.4.507.507,0,0,1,.075-.454c.136-.126.524-.134.7-.184A4.42,4.42,0,0,1,901.238,230.25Z" transform="translate(-818.809 -206.249)" fill="#eca24c" opacity="0.5" style="mix-blend-mode: multiply;isolation: isolate"/>
          <path id="Tracé_3949" data-name="Tracé 3949" d="M381,525.353a.407.407,0,0,1,.286.063.341.341,0,0,1,.081.308,1.188,1.188,0,0,1-.476.8,1.5,1.5,0,0,1-.894.278.788.788,0,0,1-.671-.286,1,1,0,0,1-.124-.4.5.5,0,0,1,.075-.454c.135-.126.524-.134.7-.184A4.481,4.481,0,0,1,381,525.353Z" transform="translate(-357.674 -467.826)" fill="#eca24c" opacity="0.5" style="mix-blend-mode: multiply;isolation: isolate"/>
          <path id="Tracé_3950" data-name="Tracé 3950" d="M188.084,289.51a.4.4,0,0,1,.285.062.347.347,0,0,1,.082.308,1.188,1.188,0,0,1-.477.8,1.491,1.491,0,0,1-.893.279.784.784,0,0,1-.671-.287,1.008,1.008,0,0,1-.125-.4.5.5,0,0,1,.075-.454c.136-.126.524-.134.7-.185A4.419,4.419,0,0,1,188.084,289.51Z" transform="translate(-186.673 -258.776)" fill="#eca24c" opacity="0.5" style="mix-blend-mode: multiply;isolation: isolate"/>
          <path id="Tracé_3951" data-name="Tracé 3951" d="M264.561,154.452a.409.409,0,0,1,.1.274.341.341,0,0,1-.217.234,1.18,1.18,0,0,1-.926.026,1.5,1.5,0,0,1-.717-.6.759.759,0,0,1-.114-.72,1,1,0,0,1,.269-.319c.114-.107.268-.227.423-.182.18.047.4.369.533.491A4.431,4.431,0,0,1,264.561,154.452Z" transform="translate(-254.37 -137.915)" fill="#eca24c" opacity="0.5" style="mix-blend-mode: multiply;isolation: isolate"/>
          <path id="Tracé_3952" data-name="Tracé 3952" d="M356.8,66.682a.4.4,0,0,1,.29-.04.347.347,0,0,1,.183.258,1.185,1.185,0,0,1-.176.909,1.5,1.5,0,0,1-.744.568.783.783,0,0,1-.728-.04,1,1,0,0,1-.253-.333.5.5,0,0,1-.085-.454c.084-.165.445-.306.594-.414A4.431,4.431,0,0,1,356.8,66.682Z" transform="translate(-336.466 -61.223)" fill="#eca24c" opacity="0.5" style="mix-blend-mode: multiply;isolation: isolate"/>
          <path id="Tracé_3953" data-name="Tracé 3953" d="M650.032,76.322a.4.4,0,0,1,.049.289.341.341,0,0,1-.256.19,1.184,1.184,0,0,1-.909-.145,1.494,1.494,0,0,1-.593-.725.786.786,0,0,1,.016-.729,1,1,0,0,1,.323-.265.508.508,0,0,1,.454-.1c.167.078.32.435.433.581A4.52,4.52,0,0,1,650.032,76.322Z" transform="translate(-596.165 -68.474)" fill="#eca24c" opacity="0.5" style="mix-blend-mode: multiply;isolation: isolate"/>
          <path id="Tracé_3954" data-name="Tracé 3954" d="M915.652,358.33a.4.4,0,0,1,.285.061.35.35,0,0,1,.082.309,1.184,1.184,0,0,1-.477.8,1.49,1.49,0,0,1-.893.279.784.784,0,0,1-.671-.287,1,1,0,0,1-.119-.4.507.507,0,0,1,.075-.454c.136-.126.524-.134.7-.185A4.421,4.421,0,0,1,915.652,358.33Z" transform="translate(-831.59 -319.779)" fill="#eca24c" opacity="0.5" style="mix-blend-mode: multiply;isolation: isolate"/>
          <path id="Tracé_3955" data-name="Tracé 3955" d="M827.249,441.655a.4.4,0,0,1,.091-.277.341.341,0,0,1,.316-.048,1.185,1.185,0,0,1,.74.558,1.491,1.491,0,0,1,.183.918.787.787,0,0,1-.357.637,1.014,1.014,0,0,1-.409.081.5.5,0,0,1-.444-.122c-.114-.149-.077-.535-.114-.717A4.462,4.462,0,0,1,827.249,441.655Z" transform="translate(-754.812 -393.336)" fill="#eca24c" opacity="0.5" style="mix-blend-mode: multiply;isolation: isolate"/>
          <path id="Tracé_3956" data-name="Tracé 3956" d="M774.228,526.821a.412.412,0,0,1-.29-.039.348.348,0,0,1-.106-.3,1.188,1.188,0,0,1,.411-.829,1.493,1.493,0,0,1,.868-.35.8.8,0,0,1,.693.227,1.009,1.009,0,0,1,.156.387.494.494,0,0,1-.039.454c-.125.137-.511.176-.682.241A4.485,4.485,0,0,1,774.228,526.821Z" transform="translate(-707.485 -467.781)" fill="#eca24c" opacity="0.5" style="mix-blend-mode: multiply;isolation: isolate"/>
          <path id="Tracé_3957" data-name="Tracé 3957" d="M931.76,263.11a.29.29,0,0,1,.215.359.308.308,0,0,1-.381.189.3.3,0,0,1-.187-.352.259.259,0,0,1,.357-.148" transform="translate(-847.153 -235.38)" fill="#eca24c" opacity="0.5" style="mix-blend-mode: multiply;isolation: isolate"/>
          <path id="Tracé_3958" data-name="Tracé 3958" d="M905.842,330.52a.29.29,0,0,1,.214.359.308.308,0,0,1-.38.189.3.3,0,0,1-.189-.352.259.259,0,0,1,.357-.148" transform="translate(-824.178 -295.132)" fill="#eca24c" opacity="0.5" style="mix-blend-mode: multiply;isolation: isolate"/>
          <path id="Tracé_3959" data-name="Tracé 3959" d="M899.68,392.94a.289.289,0,0,1,.215.358.309.309,0,0,1-.381.19.3.3,0,0,1-.187-.352.26.26,0,0,1,.357-.149" transform="translate(-818.717 -350.461)" fill="#eca24c" opacity="0.5" style="mix-blend-mode: multiply;isolation: isolate"/>
          <path id="Tracé_3960" data-name="Tracé 3960" d="M860.8,422.38a.291.291,0,0,1,.215.359.309.309,0,0,1-.381.19.3.3,0,0,1-.187-.352.26.26,0,0,1,.357-.149" transform="translate(-784.256 -376.556)" fill="#eca24c" opacity="0.5" style="mix-blend-mode: multiply;isolation: isolate"/>
          <path id="Tracé_3961" data-name="Tracé 3961" d="M694.873,624.24a.29.29,0,0,1,.214.359.308.308,0,0,1-.379.19.3.3,0,0,1-.189-.353.26.26,0,0,1,.357-.148" transform="translate(-637.177 -555.484)" fill="#eca24c" opacity="0.5" style="mix-blend-mode: multiply;isolation: isolate"/>
          <path id="Tracé_3962" data-name="Tracé 3962" d="M475.94,609.41a.29.29,0,0,1,.215.359.309.309,0,0,1-.381.189.3.3,0,0,1-.187-.352.26.26,0,0,1,.357-.149" transform="translate(-443.117 -542.338)" fill="#eca24c" opacity="0.5" style="mix-blend-mode: multiply;isolation: isolate"/>
          <path id="Tracé_3963" data-name="Tracé 3963" d="M779.534,61a.29.29,0,0,1,.214.359.308.308,0,0,1-.379.189.3.3,0,0,1-.189-.352.259.259,0,0,1,.357-.148" transform="translate(-712.219 -56.231)" fill="#eca24c" opacity="0.5" style="mix-blend-mode: multiply;isolation: isolate"/>
          <path id="Tracé_3964" data-name="Tracé 3964" d="M896.9,99.12a.29.29,0,0,1,.215.359.309.309,0,0,1-.38.19.3.3,0,0,1-.187-.352.26.26,0,0,1,.357-.149" transform="translate(-816.255 -90.021)" fill="#eca24c" opacity="0.5" style="mix-blend-mode: multiply;isolation: isolate"/>
          <path id="Tracé_3965" data-name="Tracé 3965" d="M272.628,101.21a.29.29,0,0,1,.214.359.309.309,0,0,1-.384.185.3.3,0,0,1-.189-.352.26.26,0,0,1,.357-.149" transform="translate(-262.897 -91.873)" fill="#eca24c" opacity="0.5" style="mix-blend-mode: multiply;isolation: isolate"/>
          <path id="Tracé_3966" data-name="Tracé 3966" d="M499.168,655.63a.291.291,0,0,1,.215.359.309.309,0,0,1-.381.189.294.294,0,0,1-.187-.352.259.259,0,0,1,.356-.148" transform="translate(-463.706 -583.308)" fill="#eca24c" opacity="0.5" style="mix-blend-mode: multiply;isolation: isolate"/>
          <path id="Tracé_3967" data-name="Tracé 3967" d="M784.048,502.61a.29.29,0,0,1,.215.359.31.31,0,0,1-.38.189.294.294,0,0,1-.187-.352.258.258,0,0,1,.356-.148" transform="translate(-716.222 -447.672)" fill="#eca24c" opacity="0.5" style="mix-blend-mode: multiply;isolation: isolate"/>
          <path id="Tracé_3968" data-name="Tracé 3968" d="M905.969,288.087a.358.358,0,0,1,.312.429.454.454,0,0,1-.454.322.617.617,0,0,1-.485-.325.423.423,0,0,1,.028-.508.376.376,0,0,1,.341-.073,1.129,1.129,0,0,1,.327.147" transform="translate(-823.995 -257.37)" fill="#eca24c" opacity="0.5" style="mix-blend-mode: multiply;isolation: isolate"/>
          <path id="Tracé_3969" data-name="Tracé 3969" d="M730.629,38.106a.356.356,0,0,1,.312.429.454.454,0,0,1-.454.32.616.616,0,0,1-.485-.324.425.425,0,0,1,.028-.509.386.386,0,0,1,.341-.073,1.11,1.11,0,0,1,.326.148" transform="translate(-668.575 -35.789)" fill="#eca24c" opacity="0.5" style="mix-blend-mode: multiply;isolation: isolate"/>
          <path id="Tracé_3970" data-name="Tracé 3970" d="M833.187,98.535a.356.356,0,0,1,.427-.315.454.454,0,0,1,.324.454.618.618,0,0,1-.321.486.418.418,0,0,1-.509-.026.384.384,0,0,1-.075-.341,1.137,1.137,0,0,1,.145-.327" transform="translate(-759.952 -89.217)" fill="#eca24c" opacity="0.5" style="mix-blend-mode: multiply;isolation: isolate"/>
          <path id="Tracé_3971" data-name="Tracé 3971" d="M482.7,80.765a.357.357,0,0,1,.428-.315.454.454,0,0,1,.323.454.614.614,0,0,1-.321.486.418.418,0,0,1-.509-.025.384.384,0,0,1-.074-.341,1.1,1.1,0,0,1,.145-.327" transform="translate(-449.287 -73.465)" fill="#eca24c" opacity="0.5" style="mix-blend-mode: multiply;isolation: isolate"/>
          <path id="Tracé_3972" data-name="Tracé 3972" d="M215.294,203.415a.357.357,0,0,1,.428-.315.454.454,0,0,1,.324.454.617.617,0,0,1-.323.486.416.416,0,0,1-.508-.026.381.381,0,0,1-.075-.341,1.135,1.135,0,0,1,.145-.327" transform="translate(-212.256 -182.182)" fill="#eca24c" opacity="0.5" style="mix-blend-mode: multiply;isolation: isolate"/>
          <path id="Tracé_3973" data-name="Tracé 3973" d="M220.276,352.787a.358.358,0,0,1,.428-.315.454.454,0,0,1,.324.454.617.617,0,0,1-.323.486.419.419,0,0,1-.509-.025.386.386,0,0,1-.074-.341,1.138,1.138,0,0,1,.145-.327" transform="translate(-216.672 -314.584)" fill="#eca24c" opacity="0.5" style="mix-blend-mode: multiply;isolation: isolate"/>
          <path id="Tracé_3974" data-name="Tracé 3974" d="M321.533,468.485a.357.357,0,0,1,.428-.315.454.454,0,0,1,.323.454.616.616,0,0,1-.322.486.42.42,0,0,1-.509-.025.383.383,0,0,1-.074-.341,1.111,1.111,0,0,1,.145-.327" transform="translate(-306.426 -417.138)" fill="#eca24c" opacity="0.5" style="mix-blend-mode: multiply;isolation: isolate"/>
          <path id="Tracé_3975" data-name="Tracé 3975" d="M424.3,591.315a.356.356,0,0,1,.427-.315.454.454,0,0,1,.324.454.616.616,0,0,1-.322.486.42.42,0,0,1-.509-.025.383.383,0,0,1-.074-.341,1.109,1.109,0,0,1,.145-.327" transform="translate(-397.52 -526.014)" fill="#eca24c" opacity="0.5" style="mix-blend-mode: multiply;isolation: isolate"/>
          <path id="Tracé_3976" data-name="Tracé 3976" d="M939.8,319.992a.357.357,0,0,1,.312.429.454.454,0,0,1-.454.321.617.617,0,0,1-.484-.325.414.414,0,0,1,.027-.508.383.383,0,0,1,.341-.073,1.135,1.135,0,0,1,.326.147" transform="translate(-853.979 -285.652)" fill="#eca24c" opacity="0.5" style="mix-blend-mode: multiply;isolation: isolate"/>
          <path id="Tracé_3977" data-name="Tracé 3977" d="M735.674,594.083a.355.355,0,0,1,.312.428.454.454,0,0,1-.454.322.618.618,0,0,1-.484-.324.424.424,0,0,1,.027-.509.383.383,0,0,1,.341-.073,1.135,1.135,0,0,1,.326.147" transform="translate(-673.047 -528.604)" fill="#eca24c" opacity="0.5" style="mix-blend-mode: multiply;isolation: isolate"/>
          <path id="Tracé_3978" data-name="Tracé 3978" d="M647.81,713.9a.358.358,0,0,1,.311.434.454.454,0,0,1-.454.322.617.617,0,0,1-.485-.325.424.424,0,0,1,.028-.509.385.385,0,0,1,.341-.073,1.174,1.174,0,0,1,.326.148" transform="translate(-595.164 -634.813)" fill="#eca24c" opacity="0.5" style="mix-blend-mode: multiply;isolation: isolate"/>
          <path id="Tracé_3979" data-name="Tracé 3979" d="M585.383,679.743a.357.357,0,0,1,.514-.134.455.455,0,0,1,.133.544.617.617,0,0,1-.478.334.425.425,0,0,1-.463-.211.382.382,0,0,1,.055-.341,1.132,1.132,0,0,1,.256-.25" transform="translate(-540.17 -604.51)" fill="#eca24c" opacity="0.5" style="mix-blend-mode: multiply;isolation: isolate"/>
        </g>
        <path id="Tracé_3981" data-name="Tracé 3981" d="M708.385,143.834a3.963,3.963,0,0,0-4.431.546.268.268,0,0,1-.415-.122,3.975,3.975,0,0,0-3.446-2.853c-2.786-.086-5,3.015-3.5,6.785a38.346,38.346,0,0,0,3.657,6.789.5.5,0,0,0,.608.182,37.24,37.24,0,0,0,6.816-3.729C710.965,149.067,710.776,145.263,708.385,143.834Z" transform="translate(-638.378 -127.323)" fill="#e84542"/>
        <path id="Tracé_3982" data-name="Tracé 3982" d="M785.843,191.646a.585.585,0,0,1,.041.6.862.862,0,0,1-.319.264c-.174.1-.393.2-.568.1a.573.573,0,0,1-.207-.364,1.283,1.283,0,0,1-.067-.568C784.838,191.07,785.6,191.262,785.843,191.646Z" transform="translate(-716.915 -171.54)" fill="#e57a4a"/>
        <path id="Tracé_3983" data-name="Tracé 3983" d="M764.454,198.516a.386.386,0,0,1-.123.245.455.455,0,0,1-.284.067,3.706,3.706,0,0,1-.986-.134.114.114,0,0,1-.057-.031.1.1,0,0,1,0-.1l.252-.682a1.014,1.014,0,0,0,.079-.548A1.009,1.009,0,0,1,764.454,198.516Z" transform="translate(-697.66 -176.901)" fill="#e57a4a"/>
        <path id="Tracé_3984" data-name="Tracé 3984" d="M737.962,154.461a.575.575,0,0,1-.076.484.537.537,0,0,1-.309.156,1.326,1.326,0,0,1-.535,0,.64.64,0,0,1-.326-.162.772.772,0,0,1-.127-.2l-.159-.311a.775.775,0,0,1-.114-.634c.149-.335.624-.341.776-.682A1.885,1.885,0,0,1,737.962,154.461Z" transform="translate(-673.984 -137.699)" fill="#e57a4a"/>
        <path id="Tracé_3985" data-name="Tracé 3985" d="M720.411,181.444a.4.4,0,0,1-.124.177,1.715,1.715,0,0,1-1.022.426,3.713,3.713,0,0,1-1.124-.1.227.227,0,0,1-.162-.089.221.221,0,0,1-.012-.128,2.583,2.583,0,0,1,.729-1.484.254.254,0,0,1,.114-.078C719.259,180.05,720.557,180.927,720.411,181.444Z" transform="translate(-657.745 -161.673)" fill="#e57a4a"/>
        <path id="Tracé_3986" data-name="Tracé 3986" d="M784.483,154.039a1.545,1.545,0,0,0,.751.658.3.3,0,0,0,.128.027.278.278,0,0,0,.165-.091,1.375,1.375,0,0,0,.291-.535.8.8,0,0,0,.062-.415.763.763,0,0,0-.227-.352,4.962,4.962,0,0,0-.431-.4.788.788,0,0,0-.535-.234C783.952,152.763,784.246,153.644,784.483,154.039Z" transform="translate(-716.476 -137.331)" fill="#e57a4a"/>
        <path id="Tracé_3987" data-name="Tracé 3987" d="M810,183.245a1.355,1.355,0,0,0-.365.527.848.848,0,0,0-.031.709.113.113,0,0,0,.057.063.15.15,0,0,0,.064,0l.477-.031a2.284,2.284,0,0,0,.44-.058,1.176,1.176,0,0,0,.85-1.022c.024-.3-.134-.2-.277-.307-.057-.041-.134-.174-.192-.2A1.438,1.438,0,0,0,810,183.245Z" transform="translate(-738.922 -164.112)" fill="#e57a4a"/>
        <path id="Tracé_3988" data-name="Tracé 3988" d="M796.833,209.489a.4.4,0,0,0-.364-.291q-.583-.1-1.171-.145a.2.2,0,0,0-.114.017.168.168,0,0,0-.053.066,1.073,1.073,0,0,0,.092,1.113,1.357,1.357,0,0,0,1.008.534.55.55,0,0,0,.4-.092c.123-.1.1-.241.174-.358.037-.058.16-.069.183-.119A.9.9,0,0,0,796.833,209.489Z" transform="translate(-726.047 -187.285)" fill="#e57a4a"/>
        <path id="Tracé_3989" data-name="Tracé 3989" d="M759.145,158.319a.831.831,0,0,1,0,.7,4.5,4.5,0,0,1-.241.546.825.825,0,0,1-.3.36.809.809,0,0,1-.75-.1,1.646,1.646,0,0,1-.568-.465,1.562,1.562,0,0,1-.155-1.306c.13-.485.478-1.795,1.18-1.3A3.716,3.716,0,0,1,759.145,158.319Z" transform="translate(-692.402 -140.837)" fill="#e57a4a"/>
        <path id="Tracé_3990" data-name="Tracé 3990" d="M705.792,137.639a.547.547,0,0,1,.073.189.409.409,0,0,1-.055.227.953.953,0,0,1-.743.448,2.645,2.645,0,0,1-.892-.1.8.8,0,0,1-.317-.126.819.819,0,0,1-.212-.318,2.458,2.458,0,0,1-.318-1.236,2.489,2.489,0,0,1,.209-.682.815.815,0,0,1,.1-.184.784.784,0,0,1,.553-.227c.435-.061.582.42.8.732A12.08,12.08,0,0,1,705.792,137.639Z" transform="translate(-644.768 -122.199)" fill="#e57a4a"/>
        <path id="Tracé_3991" data-name="Tracé 3991" d="M707.158,167.145a.358.358,0,0,1,.352.153.617.617,0,0,1,.1.387.24.24,0,0,1-.04.137.257.257,0,0,1-.173.078,2.425,2.425,0,0,1-1.015-.045.974.974,0,0,1,.3-.653.482.482,0,0,1,.66.02" transform="translate(-647.479 -150.084)" fill="#e57a4a"/>
        <path id="Tracé_3992" data-name="Tracé 3992" d="M776.45,228.125a.573.573,0,0,0-.317-.269.478.478,0,0,0-.325.091,1.491,1.491,0,0,0-.367.333.668.668,0,0,0-.114.783c.17.225.5.214.753.333.282.133.79.329.884-.147C777.031,228.893,776.637,228.394,776.45,228.125Z" transform="translate(-708.517 -203.951)" fill="#e57a4a"/>
        <path id="Tracé_3993" data-name="Tracé 3993" d="M739.744,207.4a1.723,1.723,0,0,1-.6-.134c-.078-.028-.167-.065-.2-.143a.286.286,0,0,1-.009-.114c.015-.285.012-.834.35-.93a1.6,1.6,0,0,1,.751.145A.649.649,0,0,1,739.744,207.4Z" transform="translate(-676.342 -184.638)" fill="#e57a4a"/>
        <path id="Tracé_3994" data-name="Tracé 3994" d="M701.247,209.086a.558.558,0,0,1,.172-.036.421.421,0,0,1,.237.082,1.1,1.1,0,0,1,.409.726.862.862,0,0,1-.193.825.826.826,0,0,1-.361.149,2.219,2.219,0,0,1-1.429-.189.407.407,0,0,1-.209-.182.836.836,0,0,1-.035-.177c-.071-.351-.372-.568.052-.765A11.928,11.928,0,0,1,701.247,209.086Z" transform="translate(-641.53 -187.284)" fill="#e57a4a"/>
        <path id="Tracé_3995" data-name="Tracé 3995" d="M728.841,221.7a1.915,1.915,0,0,1,.438.174.281.281,0,0,1,.131.114.309.309,0,0,1,0,.2l-.062.291a.284.284,0,0,1-.407.274,1.444,1.444,0,0,1-.431-.136.486.486,0,0,1-.258-.352c-.009-.084.011-.168,0-.251-.026-.132-.141-.269-.068-.382.056-.085.181-.082.278-.058a1.249,1.249,0,0,1,.349.148" transform="translate(-666.785 -198.374)" fill="#e57a4a"/>
        <path id="Tracé_3996" data-name="Tracé 3996" d="M762.8,216.883c-.114.075-.234.185-.215.319a.348.348,0,0,0,.194.227,1.7,1.7,0,0,0,.341.153.557.557,0,0,0,.312.03.681.681,0,0,0,.238-.141c.2-.159,1.4-1.224.645-1.212A3.513,3.513,0,0,0,762.8,216.883Z" transform="translate(-697.296 -193.674)" fill="#e57a4a"/>
        <path id="Tracé_3997" data-name="Tracé 3997" d="M784.922,173.447c.141.063.324.114.435.01s.067-.293-.01-.425a1.563,1.563,0,0,0-.711-.594c-.192-.086-.737-.341-.944-.277-.179.057-.119.067-.008.237A3.579,3.579,0,0,0,784.922,173.447Z" transform="translate(-715.906 -154.577)" fill="#e57a4a"/>
        <path id="Tracé_3998" data-name="Tracé 3998" d="M795.259,179.617c-.056-.03-.126-.057-.176-.019a.16.16,0,0,0-.05.1,2.569,2.569,0,0,0-.042.909,2.619,2.619,0,0,1,.063,1.326c-.064.157-.175.341-.085.478a.379.379,0,0,0,.159.125.934.934,0,0,0,1.5-.937A2.2,2.2,0,0,0,795.259,179.617Z" transform="translate(-725.973 -161.161)" fill="#d7413a"/>
        <path id="Tracé_3999" data-name="Tracé 3999" d="M775.073,214.142c-.134.068-.257.155-.387.227a1.752,1.752,0,0,0-.282.175.394.394,0,0,0-.153.285c0,.212.227.348.433.407a1.166,1.166,0,0,0,.479.052,1.618,1.618,0,0,0,.753-.4c.308-.241.642-.615.175-.82A1.188,1.188,0,0,0,775.073,214.142Z" transform="translate(-707.639 -191.661)" fill="#d7413a"/>
        <path id="Tracé_4000" data-name="Tracé 4000" d="M753.9,232.759c.061.087.191.084.3.065a2.357,2.357,0,0,0,.941-.4,2.25,2.25,0,0,1,.535-.316c.169-.064.454-.086.485-.32.041-.361-.425-.415-.651-.308a8.391,8.391,0,0,1-.836.511C754.431,232.073,753.563,232.279,753.9,232.759Z" transform="translate(-689.534 -207.121)" fill="#d7413a"/>
        <path id="Tracé_4001" data-name="Tracé 4001" d="M732.8,159.739a.6.6,0,0,0-.477.074.431.431,0,0,0-.183.432.341.341,0,0,0,.367.26c.194-.034.3-.242.37-.425a.265.265,0,0,0,.027-.173c-.017-.057-.06-.208-.1-.168" transform="translate(-670.306 -143.557)" fill="#f3c0b8"/>
        <path id="Tracé_4002" data-name="Tracé 4002" d="M736.951,193.941a1,1,0,0,0-.3-.227.39.39,0,0,0-.153-.047.328.328,0,0,0-.3.359.647.647,0,0,0,.27.437.4.4,0,0,0,.454.09c.086-.057.023-.512.03-.616" transform="translate(-673.906 -173.649)" fill="#f3c0b8"/>
        <path id="Tracé_4003" data-name="Tracé 4003" d="M783.341,168.02l-.159.044a.148.148,0,0,0-.078.04c-.052.061.023.149.091.194a.412.412,0,0,0,.376.094.245.245,0,0,0,.089-.341.341.341,0,0,0-.341-.143.186.186,0,0,0-.141.083.089.089,0,0,0,.058.131" transform="translate(-715.471 -150.812)" fill="#f3c0b8"/>
        <path id="Tracé_4004" data-name="Tracé 4004" d="M708.128,176.751a2.663,2.663,0,0,0,.075.928.158.158,0,0,1,.007.089.14.14,0,0,1-.1.076.608.608,0,0,1-.429-.015.179.179,0,0,1-.075-.053.172.172,0,0,1-.024-.1,4.592,4.592,0,0,1,.173-.729,1.014,1.014,0,0,0-.057-.542.5.5,0,0,1-.047-.149.131.131,0,0,1,.067-.132.165.165,0,0,1,.082-.008c.2.01.291-.032.356.152A1.091,1.091,0,0,1,708.128,176.751Z" transform="translate(-648.548 -158.089)" fill="#f3c0b8"/>
        <path id="Tracé_4005" data-name="Tracé 4005" d="M733.758,236.759c.135.227.474.2.641.444.049-.326.135-.919-.176-1.151a.481.481,0,0,0-.574-.01C733.457,236.242,733.646,236.572,733.758,236.759Z" transform="translate(-671.577 -211.129)" fill="#f3c0b8"/>
        <path id="Tracé_4006" data-name="Tracé 4006" d="M383.142,348.447a3.969,3.969,0,0,0-3.391,2.908.269.269,0,0,1-.414.13,3.98,3.98,0,0,0-4.449-.47c-2.368,1.469-2.491,5.275.843,7.585a38.963,38.963,0,0,0,6.8,3.635.5.5,0,0,0,.607-.184,37,37,0,0,0,3.61-6.874C388.184,351.377,385.923,348.313,383.142,348.447Z" transform="translate(-352.118 -310.841)" fill="#e84542"/>
        <path id="Tracé_4007" data-name="Tracé 4007" d="M463.077,379.636a.582.582,0,0,1,.367.478.865.865,0,0,1-.119.4c-.09.181-.215.386-.416.4a.569.569,0,0,1-.374-.187,1.273,1.273,0,0,1-.373-.441C461.922,379.711,462.662,379.449,463.077,379.636Z" transform="translate(-430.965 -338.437)" fill="#e57a4a"/>
        <path id="Tracé_4008" data-name="Tracé 4008" d="M449.934,396.882a.389.389,0,0,1,.033.273.447.447,0,0,1-.2.214,3.776,3.776,0,0,1-.9.434.1.1,0,0,1-.064.006c-.033-.011-.044-.049-.052-.083l-.168-.71a1.023,1.023,0,0,0-.237-.5A1.014,1.014,0,0,1,449.934,396.882Z" transform="translate(-418.763 -353.248)" fill="#e57a4a"/>
        <path id="Tracé_4009" data-name="Tracé 4009" d="M404.369,374.512a.577.577,0,0,1,.206.447.541.541,0,0,1-.172.3,1.3,1.3,0,0,1-.448.293.635.635,0,0,1-.362.045.824.824,0,0,1-.217-.1l-.3-.172c-.193-.114-.407-.247-.443-.466-.061-.362.327-.634.265-1A1.947,1.947,0,0,1,404.369,374.512Z" transform="translate(-378.23 -333.366)" fill="#e57a4a"/>
        <path id="Tracé_4010" data-name="Tracé 4010" d="M406.275,404.905a.41.41,0,0,1,0,.216,1.727,1.727,0,0,1-.62.924,3.775,3.775,0,0,1-.992.537.227.227,0,0,1-.185.016.218.218,0,0,1-.083-.1,2.576,2.576,0,0,1-.214-1.639.258.258,0,0,1,.052-.128C404.548,404.381,406.115,404.394,406.275,404.905Z" transform="translate(-379.568 -360.521)" fill="#e57a4a"/>
        <path id="Tracé_4011" data-name="Tracé 4011" d="M441.162,349.155a1.547,1.547,0,0,0,.99.133.286.286,0,0,0,.122-.049.279.279,0,0,0,.087-.167,1.375,1.375,0,0,0-.053-.606.8.8,0,0,0-.177-.381.767.767,0,0,0-.381-.17,5.035,5.035,0,0,0-.581-.1.779.779,0,0,0-.576.1C440.012,348.387,440.746,348.957,441.162,349.155Z" transform="translate(-411.696 -310.278)" fill="#e57a4a"/>
        <path id="Tracé_4012" data-name="Tracé 4012" d="M481.281,356.048a1.338,1.338,0,0,0-.011.64.848.848,0,0,0,.366.608.121.121,0,0,0,.083.02.14.14,0,0,0,.056-.029l.379-.291a2.287,2.287,0,0,0,.335-.291,1.176,1.176,0,0,0,.143-1.32c-.145-.261-.227-.094-.4-.1-.069,0-.207-.07-.268-.057C481.678,355.291,481.358,355.79,481.281,356.048Z" transform="translate(-447.914 -316.852)" fill="#e57a4a"/>
        <path id="Tracé_4013" data-name="Tracé 4013" d="M481.811,385.667a.547.547,0,0,0-.274-.1.525.525,0,0,0-.191.056,11.72,11.72,0,0,0-1.055.527.186.186,0,0,0-.089.078.178.178,0,0,0-.008.085,1.075,1.075,0,0,0,.693.876,1.363,1.363,0,0,0,1.136-.114.558.558,0,0,0,.278-.3c.045-.152-.052-.253-.053-.394,0-.069.1-.147.086-.2C482.29,385.94,482.018,385.785,481.811,385.667Z" transform="translate(-446.988 -343.75)" fill="#e57a4a"/>
        <path id="Tracé_4014" data-name="Tracé 4014" d="M425.63,364.918a1.073,1.073,0,0,1,.266.256,1.056,1.056,0,0,1,.125.325,4.723,4.723,0,0,1,.1.589.825.825,0,0,1-.05.465.806.806,0,0,1-.682.335,1.655,1.655,0,0,1-.727-.075,1.553,1.553,0,0,1-.852-1c-.16-.476-.594-1.761.266-1.734A3.758,3.758,0,0,1,425.63,364.918Z" transform="translate(-396.79 -324.698)" fill="#e57a4a"/>
        <path id="Tracé_4015" data-name="Tracé 4015" d="M368.234,377.325a.555.555,0,0,1,.166.114.394.394,0,0,1,.082.227.945.945,0,0,1-.37.784,2.649,2.649,0,0,1-.8.41.8.8,0,0,1-.334.07.811.811,0,0,1-.352-.148,1.829,1.829,0,0,1-1.151-1.535.8.8,0,0,1-.022-.207.816.816,0,0,1,.333-.5c.327-.292.717.027,1.075.164A12.319,12.319,0,0,1,368.234,377.325Z" transform="translate(-345.288 -335.64)" fill="#e57a4a"/>
        <path id="Tracé_4016" data-name="Tracé 4016" d="M384.88,402.079a.36.36,0,0,1,.378-.067.62.62,0,0,1,.294.269.243.243,0,0,1,.043.136.261.261,0,0,1-.1.161,2.459,2.459,0,0,1-.871.524.977.977,0,0,1-.114-.709.481.481,0,0,1,.56-.348" transform="translate(-362.156 -358.3)" fill="#e57a4a"/>
        <path id="Tracé_4017" data-name="Tracé 4017" d="M477.131,414.193a.557.557,0,0,0-.412-.049.472.472,0,0,0-.22.256,1.49,1.49,0,0,0-.127.483.664.664,0,0,0,.341.713c.268.092.535-.1.811-.14.309-.045.84-.162.656-.611C478.042,414.507,477.436,414.313,477.131,414.193Z" transform="translate(-443.597 -369.057)" fill="#e57a4a"/>
        <path id="Tracé_4018" data-name="Tracé 4018" d="M433.736,417.529a1.7,1.7,0,0,1-.568.218.289.289,0,0,1-.242-.011.3.3,0,0,1-.069-.089c-.145-.245-.454-.7-.227-.969a1.637,1.637,0,0,1,.707-.294A.649.649,0,0,1,433.736,417.529Z" transform="translate(-404.757 -371.062)" fill="#e57a4a"/>
        <path id="Tracé_4019" data-name="Tracé 4019" d="M403.743,435.914a.585.585,0,0,1,.123-.126.419.419,0,0,1,.243-.062,1.092,1.092,0,0,1,.742.378.861.861,0,0,1,.3.8.831.831,0,0,1-.218.324,2.219,2.219,0,0,1-1.3.634.4.4,0,0,1-.274-.036.863.863,0,0,1-.128-.128c-.252-.252-.623-.266-.379-.665A11.515,11.515,0,0,1,403.743,435.914Z" transform="translate(-378.363 -388.207)" fill="#e57a4a"/>
        <path id="Tracé_4020" data-name="Tracé 4020" d="M431.315,436.383a1.941,1.941,0,0,1,.461-.1.291.291,0,0,1,.174.023.321.321,0,0,1,.114.168l.108.276a.284.284,0,0,1-.187.454,1.463,1.463,0,0,1-.434.125.49.49,0,0,1-.41-.151,2.375,2.375,0,0,0-.142-.206c-.094-.1-.266-.147-.268-.281,0-.1.1-.168.2-.2a1.182,1.182,0,0,1,.371-.07" transform="translate(-403.145 -388.7)" fill="#e57a4a"/>
        <path id="Tracé_4021" data-name="Tracé 4021" d="M460.144,408.362c-.053.126-.093.284,0,.385a.349.349,0,0,0,.287.081,1.753,1.753,0,0,0,.368-.06.56.56,0,0,0,.277-.149.675.675,0,0,0,.119-.249c.077-.242.489-1.793-.133-1.363A3.474,3.474,0,0,0,460.144,408.362Z" transform="translate(-429.167 -362.685)" fill="#e57a4a"/>
        <path id="Tracé_4022" data-name="Tracé 4022" d="M451.182,365.095c.152-.026.334-.082.368-.227s-.106-.282-.244-.348a1.554,1.554,0,0,0-.92-.1c-.208.034-.8.123-.941.292-.114.145-.061.122.126.2A3.578,3.578,0,0,0,451.182,365.095Z" transform="translate(-419.68 -324.976)" fill="#e57a4a"/>
        <path id="Tracé_4023" data-name="Tracé 4023" d="M463.9,366.084c-.062.007-.136.023-.157.082a.165.165,0,0,0,.013.114,2.607,2.607,0,0,0,.47.783c.3.341.7.629.786,1.069.033.167.04.377.194.446a.388.388,0,0,0,.2.017.938.938,0,0,0,.73-1.614A2.215,2.215,0,0,0,463.9,366.084Z" transform="translate(-432.402 -326.46)" fill="#d7413a"/>
        <path id="Tracé_4024" data-name="Tracé 4024" d="M468.425,399.808c-.074.131-.128.27-.2.4a1.775,1.775,0,0,0-.139.3.4.4,0,0,0,.031.321c.114.178.383.165.586.1a1.2,1.2,0,0,0,.427-.227,1.627,1.627,0,0,0,.408-.75c.123-.37.194-.867-.308-.779A1.193,1.193,0,0,0,468.425,399.808Z" transform="translate(-436.243 -355.806)" fill="#d7413a"/>
        <path id="Tracé_4025" data-name="Tracé 4025" d="M462.346,425.466c.1.037.206-.036.282-.114a2.351,2.351,0,0,0,.561-.854,2.232,2.232,0,0,1,.271-.559c.106-.147.334-.326.227-.536-.166-.323-.583-.114-.712.1a8.49,8.49,0,0,1-.414.888C462.406,424.6,461.8,425.255,462.346,425.466Z" transform="translate(-430.97 -377.138)" fill="#d7413a"/>
        <path id="Tracé_4026" data-name="Tracé 4026" d="M401.271,382.515a.6.6,0,0,0-.357.326.429.429,0,0,0,.086.461.341.341,0,0,0,.454.014.6.6,0,0,0,.073-.56.262.262,0,0,0-.072-.158c-.045-.037-.166-.141-.181-.083" transform="translate(-376.687 -341.027)" fill="#f3c0b8"/>
        <path id="Tracé_4027" data-name="Tracé 4027" d="M423.261,409.883a.988.988,0,0,0-.374-.022.4.4,0,0,0-.153.047.327.327,0,0,0-.055.466.65.65,0,0,0,.468.216c.166.015.366-.025.429-.178.04-.1-.265-.44-.316-.528" transform="translate(-395.945 -365.275)" fill="#f3c0b8"/>
        <path id="Tracé_4028" data-name="Tracé 4028" d="M447.46,362.653l-.114.125a.146.146,0,0,0-.042.075c-.009.081.1.114.183.114a.412.412,0,0,0,.366-.13.245.245,0,0,0-.114-.332.341.341,0,0,0-.367.073.185.185,0,0,0-.073.147c.006.057.073.106.122.077" transform="translate(-417.832 -323.283)" fill="#f3c0b8"/>
        <path id="Tracé_4029" data-name="Tracé 4029" d="M389.538,411.3a2.653,2.653,0,0,0,.576.732.163.163,0,0,1,.055.07.14.14,0,0,1-.036.114.6.6,0,0,1-.366.227.17.17,0,0,1-.092,0,.177.177,0,0,1-.077-.07,4.406,4.406,0,0,1-.259-.7,1.022,1.022,0,0,0-.346-.419.509.509,0,0,1-.122-.1.131.131,0,0,1-.017-.147.182.182,0,0,1,.064-.053c.173-.1.227-.186.381-.068A1.08,1.08,0,0,1,389.538,411.3Z" transform="translate(-366.012 -366.136)" fill="#f3c0b8"/>
        <path id="Tracé_4030" data-name="Tracé 4030" d="M444.162,446.851c.237.114.506-.093.779.016-.14-.3-.4-.841-.784-.861-.181-.01-.454.114-.483.309C443.627,446.587,443.968,446.756,444.162,446.851Z" transform="translate(-414.615 -397.319)" fill="#f3c0b8"/>
        <path id="Tracé_4031" data-name="Tracé 4031" d="M346.5,194.575a3.971,3.971,0,0,0-4.422.644.269.269,0,0,1-.418-.114,3.979,3.979,0,0,0-3.507-2.777c-2.787-.025-4.927,3.125-3.345,6.861a38.278,38.278,0,0,0,3.806,6.7.5.5,0,0,0,.611.168,36.959,36.959,0,0,0,6.727-3.877C349.192,199.75,348.92,195.951,346.5,194.575Z" transform="translate(-317.641 -172.462)" fill="#e84542"/>
        <path id="Tracé_4032" data-name="Tracé 4032" d="M424.371,241.284a.583.583,0,0,1,.055.6.852.852,0,0,1-.314.27c-.172.106-.389.212-.562.114a.576.576,0,0,1-.216-.359,1.3,1.3,0,0,1-.08-.568C423.356,240.724,424.12,240.9,424.371,241.284Z" transform="translate(-396.515 -215.548)" fill="#e57a4a"/>
        <path id="Tracé_4033" data-name="Tracé 4033" d="M403.3,248.6a.389.389,0,0,1-.114.248.447.447,0,0,1-.283.074,3.721,3.721,0,0,1-.988-.114.094.094,0,0,1-.057-.028.1.1,0,0,1,0-.1l.237-.69a1.015,1.015,0,0,0,.067-.55A1.013,1.013,0,0,1,403.3,248.6Z" transform="translate(-377.546 -221.312)" fill="#e57a4a"/>
        <path id="Tracé_4034" data-name="Tracé 4034" d="M375.728,204.979a.575.575,0,0,1-.066.486.537.537,0,0,1-.306.162,1.307,1.307,0,0,1-.535.008.627.627,0,0,1-.329-.156.794.794,0,0,1-.132-.2l-.166-.309a.768.768,0,0,1-.126-.63c.143-.341.617-.36.761-.7A1.941,1.941,0,0,1,375.728,204.979Z" transform="translate(-352.893 -182.488)" fill="#e57a4a"/>
        <path id="Tracé_4035" data-name="Tracé 4035" d="M358.906,232.4a.405.405,0,0,1-.12.18,1.721,1.721,0,0,1-1.017.449,3.756,3.756,0,0,1-1.126-.076.227.227,0,0,1-.165-.086.209.209,0,0,1-.015-.132,2.579,2.579,0,0,1,.7-1.5.256.256,0,0,1,.114-.081C357.718,231.034,359.036,231.883,358.906,232.4Z" transform="translate(-337.311 -206.868)" fill="#e57a4a"/>
        <path id="Tracé_4036" data-name="Tracé 4036" d="M422.173,203.658a1.555,1.555,0,0,0,.766.642.3.3,0,0,0,.13.024.281.281,0,0,0,.162-.094,1.364,1.364,0,0,0,.278-.541.786.786,0,0,0,.053-.416.754.754,0,0,0-.227-.348,5.152,5.152,0,0,0-.44-.392.8.8,0,0,0-.54-.227C421.614,202.394,421.927,203.268,422.173,203.658Z" transform="translate(-395.311 -181.304)" fill="#e57a4a"/>
        <path id="Tracé_4037" data-name="Tracé 4037" d="M448.462,232.237a1.351,1.351,0,0,0-.352.535.853.853,0,0,0-.016.71.124.124,0,0,0,.059.061.145.145,0,0,0,.063,0l.477-.041a2.366,2.366,0,0,0,.438-.067,1.18,1.18,0,0,0,.827-1.038c.016-.3-.14-.2-.285-.3-.057-.04-.136-.17-.2-.191A1.372,1.372,0,0,0,448.462,232.237Z" transform="translate(-418.473 -207.523)" fill="#e57a4a"/>
        <path id="Tracé_4038" data-name="Tracé 4038" d="M435.749,258.9a.54.54,0,0,0-.18-.227.522.522,0,0,0-.191-.056q-.583-.089-1.174-.119a.189.189,0,0,0-.114.019.173.173,0,0,0-.052.068,1.076,1.076,0,0,0,.114,1.11,1.363,1.363,0,0,0,1.022.512.554.554,0,0,0,.394-.1c.114-.1.091-.243.165-.362.036-.059.159-.073.181-.123A.931.931,0,0,0,435.749,258.9Z" transform="translate(-405.986 -231.11)" fill="#e57a4a"/>
        <path id="Tracé_4039" data-name="Tracé 4039" d="M397.252,208.43a1.046,1.046,0,0,1,.087.359,1.009,1.009,0,0,1-.068.341,4.343,4.343,0,0,1-.227.552.821.821,0,0,1-.291.366.8.8,0,0,1-.751-.079,1.63,1.63,0,0,1-.574-.454,1.566,1.566,0,0,1-.184-1.3c.119-.489.44-1.805,1.152-1.321A3.8,3.8,0,0,1,397.252,208.43Z" transform="translate(-371.637 -185.276)" fill="#e57a4a"/>
        <path id="Tracé_4040" data-name="Tracé 4040" d="M343.286,189.011a.528.528,0,0,1,.077.187.4.4,0,0,1-.049.233.95.95,0,0,1-.733.464,2.619,2.619,0,0,1-.894-.082.808.808,0,0,1-.32-.114.823.823,0,0,1-.218-.312,2.38,2.38,0,0,1-.341-1.23,2.427,2.427,0,0,1,.194-.682.8.8,0,0,1,.092-.186.817.817,0,0,1,.549-.245c.433-.072.591.407.82.713a11.961,11.961,0,0,1,.823,1.254Z" transform="translate(-323.434 -167.771)" fill="#e57a4a"/>
        <path id="Tracé_4041" data-name="Tracé 4041" d="M345.193,218.524a.355.355,0,0,1,.354.145.6.6,0,0,1,.1.384.241.241,0,0,1-.035.139.268.268,0,0,1-.172.083,2.43,2.43,0,0,1-1.016-.024.973.973,0,0,1,.283-.659.486.486,0,0,1,.66,0" transform="translate(-326.649 -195.627)" fill="#e57a4a"/>
        <path id="Tracé_4042" data-name="Tracé 4042" d="M415.807,277.88a.562.562,0,0,0-.324-.261.465.465,0,0,0-.323.1,1.506,1.506,0,0,0-.365.341.665.665,0,0,0-.093.786c.178.218.506.2.761.316.285.127.8.313.88-.166C416.408,278.634,416,278.146,415.807,277.88Z" transform="translate(-388.855 -248.062)" fill="#e57a4a"/>
        <path id="Tracé_4043" data-name="Tracé 4043" d="M378.686,258.029a1.679,1.679,0,0,1-.6-.12.29.29,0,0,1-.2-.139.283.283,0,0,1-.011-.114c.008-.286-.006-.835.329-.938a1.6,1.6,0,0,1,.754.128A.649.649,0,0,1,378.686,258.029Z" transform="translate(-356.296 -229.526)" fill="#e57a4a"/>
        <path id="Tracé_4044" data-name="Tracé 4044" d="M340.2,260.351a.558.558,0,0,1,.17-.041.412.412,0,0,1,.239.077,1.1,1.1,0,0,1,.426.716.86.86,0,0,1-.176.829.829.829,0,0,1-.357.157,2.226,2.226,0,0,1-1.434-.157.407.407,0,0,1-.212-.177.928.928,0,0,1-.04-.177c-.078-.349-.384-.558.035-.765A11.659,11.659,0,0,1,340.2,260.351Z" transform="translate(-321.514 -232.72)" fill="#e57a4a"/>
        <path id="Tracé_4045" data-name="Tracé 4045" d="M367.909,272.685a1.9,1.9,0,0,1,.443.164.289.289,0,0,1,.134.114.314.314,0,0,1,0,.2l-.056.291a.382.382,0,0,1-.133.266.373.373,0,0,1-.268.017,1.417,1.417,0,0,1-.433-.126.486.486,0,0,1-.266-.341c-.01-.083.008-.169-.01-.251-.028-.131-.148-.266-.076-.379.053-.086.178-.086.277-.065a1.274,1.274,0,0,1,.352.14" transform="translate(-346.851 -243.583)" fill="#e57a4a"/>
        <path id="Tracé_4046" data-name="Tracé 4046" d="M401.948,266.819c-.114.078-.227.191-.207.325a.347.347,0,0,0,.2.227,1.632,1.632,0,0,0,.341.145.56.56,0,0,0,.314.023.683.683,0,0,0,.234-.147c.2-.162,1.371-1.25.618-1.226A3.475,3.475,0,0,0,401.948,266.819Z" transform="translate(-377.447 -237.912)" fill="#e57a4a"/>
        <path id="Tracé_4047" data-name="Tracé 4047" d="M422.974,223.124c.142.059.325.114.435,0a.353.353,0,0,0-.02-.425,1.553,1.553,0,0,0-.724-.578c-.193-.082-.745-.326-.95-.257-.178.061-.114.07,0,.239A3.592,3.592,0,0,0,422.974,223.124Z" transform="translate(-395.056 -198.632)" fill="#e57a4a"/>
        <path id="Tracé_4048" data-name="Tracé 4048" d="M433.845,229.074c-.056-.028-.127-.055-.176-.016a.162.162,0,0,0-.048.1,2.545,2.545,0,0,0-.022.909,2.614,2.614,0,0,1,.092,1.324c-.061.158-.168.341-.075.482a.38.38,0,0,0,.161.12.934.934,0,0,0,1.477-.97A2.223,2.223,0,0,0,433.845,229.074Z" transform="translate(-405.661 -205.002)" fill="#d7413a"/>
        <path id="Tracé_4049" data-name="Tracé 4049" d="M414.147,263.843c-.133.07-.253.161-.382.237a1.838,1.838,0,0,0-.278.182.393.393,0,0,0-.147.289c0,.212.235.341.441.4a1.169,1.169,0,0,0,.481.041,1.579,1.579,0,0,0,.745-.415c.3-.248.627-.628.157-.823A1.188,1.188,0,0,0,414.147,263.843Z" transform="translate(-387.73 -235.706)" fill="#d7413a"/>
        <path id="Tracé_4050" data-name="Tracé 4050" d="M393.437,282.823c.064.086.193.081.3.058a2.331,2.331,0,0,0,.93-.421,2.249,2.249,0,0,1,.528-.327c.167-.067.454-.1.478-.332.032-.361-.434-.4-.658-.293a8.217,8.217,0,0,1-.825.529C393.951,282.126,393.087,282.352,393.437,282.823Z" transform="translate(-370.016 -251.462)" fill="#d7413a"/>
        <path id="Tracé_4051" data-name="Tracé 4051" d="M370.625,210.528a.6.6,0,0,0-.476.085.432.432,0,0,0-.174.436.341.341,0,0,0,.374.251c.193-.039.292-.249.361-.433a.272.272,0,0,0,.023-.173c-.018-.057-.065-.207-.108-.167" transform="translate(-349.285 -188.579)" fill="#f3c0b8"/>
        <path id="Tracé_4052" data-name="Tracé 4052" d="M375.5,244.7a.989.989,0,0,0-.3-.217.4.4,0,0,0-.156-.043.332.332,0,0,0-.3.365.651.651,0,0,0,.281.433c.133.1.323.175.454.08.084-.059.01-.514.015-.617" transform="translate(-353.516 -218.653)" fill="#f3c0b8"/>
        <path id="Tracé_4053" data-name="Tracé 4053" d="M421.291,217.748l-.159.048a.15.15,0,0,0-.077.041c-.05.064.026.149.1.192a.409.409,0,0,0,.378.086.244.244,0,0,0,.081-.341.341.341,0,0,0-.349-.134.185.185,0,0,0-.14.085c-.026.051,0,.128.061.13" transform="translate(-394.554 -194.891)" fill="#f3c0b8"/>
        <path id="Tracé_4054" data-name="Tracé 4054" d="M346.51,228.122a2.635,2.635,0,0,0,.1.927.158.158,0,0,1,.008.089.139.139,0,0,1-.093.078.6.6,0,0,1-.429-.006.168.168,0,0,1-.076-.051.174.174,0,0,1-.027-.1,4.3,4.3,0,0,1,.158-.734,1.022,1.022,0,0,0-.069-.54.494.494,0,0,1-.05-.148.131.131,0,0,1,.064-.133.187.187,0,0,1,.083-.01c.2,0,.289-.039.358.145A1.1,1.1,0,0,1,346.51,228.122Z" transform="translate(-328.029 -203.629)" fill="#f3c0b8"/>
        <path id="Tracé_4055" data-name="Tracé 4055" d="M373.263,287.551c.141.227.478.192.651.431.042-.327.114-.922-.2-1.146a.482.482,0,0,0-.568,0C372.952,287.042,373.149,287.367,373.263,287.551Z" transform="translate(-352.03 -256.15)" fill="#f3c0b8"/>
        <path id="Tracé_4056" data-name="Tracé 4056" d="M687.335,321.828a3.969,3.969,0,0,0-3.558,2.7.269.269,0,0,1-.42.1,3.976,3.976,0,0,0-4.412-.735c-2.452,1.326-2.8,5.112.387,7.623a38.534,38.534,0,0,0,6.574,4.031.5.5,0,0,0,.617-.148,37.1,37.1,0,0,0,4.014-6.647C692.2,325.056,690.122,321.861,687.335,321.828Z" transform="translate(-621.457 -287.249)" fill="#e84542"/>
        <path id="Tracé_4057" data-name="Tracé 4057" d="M767.85,353.368a.583.583,0,0,1,.341.5.856.856,0,0,1-.143.39c-.1.175-.237.373-.439.369a.568.568,0,0,1-.361-.209,1.3,1.3,0,0,1-.341-.462C766.693,353.368,767.453,353.155,767.85,353.368Z" transform="translate(-701.097 -315.135)" fill="#e57a4a"/>
        <path id="Tracé_4058" data-name="Tracé 4058" d="M753.743,369.8a.382.382,0,0,1,.017.274.454.454,0,0,1-.211.2,3.751,3.751,0,0,1-.921.38.1.1,0,0,1-.064,0c-.031-.013-.041-.052-.047-.085l-.131-.717a1.011,1.011,0,0,0-.207-.514A1.017,1.017,0,0,1,753.743,369.8Z" transform="translate(-688.076 -329.193)" fill="#e57a4a"/>
        <path id="Tracé_4059" data-name="Tracé 4059" d="M709.249,344.543a.565.565,0,0,1,.177.454.544.544,0,0,1-.189.29,1.3,1.3,0,0,1-.465.265.618.618,0,0,1-.365.024.8.8,0,0,1-.21-.114l-.294-.19c-.186-.12-.391-.27-.415-.492-.039-.365.365-.612.325-.984A1.97,1.97,0,0,1,709.249,344.543Z" transform="translate(-648.46 -306.722)" fill="#e57a4a"/>
        <path id="Tracé_4060" data-name="Tracé 4060" d="M709.4,375.31a.4.4,0,0,1-.018.215,1.719,1.719,0,0,1-.674.885,3.768,3.768,0,0,1-1.022.477.227.227,0,0,1-.185,0,.214.214,0,0,1-.077-.114,2.586,2.586,0,0,1-.114-1.65.269.269,0,0,1,.06-.125C707.7,374.684,709.265,374.79,709.4,375.31Z" transform="translate(-648.228 -334.223)" fill="#e57a4a"/>
        <path id="Tracé_4061" data-name="Tracé 4061" d="M747.761,321.592a1.552,1.552,0,0,0,.98.191.3.3,0,0,0,.125-.041.282.282,0,0,0,.1-.161,1.4,1.4,0,0,0-.017-.609.794.794,0,0,0-.154-.39.764.764,0,0,0-.37-.192,4.983,4.983,0,0,0-.568-.131.781.781,0,0,0-.582.066C746.66,320.756,747.358,321.369,747.761,321.592Z" transform="translate(-683.512 -285.837)" fill="#e57a4a"/>
        <path id="Tracé_4062" data-name="Tracé 4062" d="M787.057,330.912a1.361,1.361,0,0,0-.05.637.852.852,0,0,0,.329.629.128.128,0,0,0,.082.026.155.155,0,0,0,.057-.027l.4-.267a2.326,2.326,0,0,0,.351-.27,1.178,1.178,0,0,0,.227-1.309c-.131-.27-.219-.108-.4-.126-.069-.007-.2-.083-.264-.073C787.5,330.184,787.149,330.663,787.057,330.912Z" transform="translate(-718.931 -294.61)" fill="#e57a4a"/>
        <path id="Tracé_4063" data-name="Tracé 4063" d="M786.038,360.814a.533.533,0,0,0-.267-.114.523.523,0,0,0-.194.043q-.553.2-1.085.462a.19.19,0,0,0-.093.074.176.176,0,0,0-.014.084,1.073,1.073,0,0,0,.641.916,1.363,1.363,0,0,0,1.136-.044.554.554,0,0,0,.3-.278c.054-.15-.038-.257-.031-.4,0-.069.1-.141.1-.2C786.5,361.116,786.237,360.944,786.038,360.814Z" transform="translate(-716.622 -321.705)" fill="#e57a4a"/>
        <path id="Tracé_4064" data-name="Tracé 4064" d="M731.233,336.391a1.073,1.073,0,0,1,.251.27,1.02,1.02,0,0,1,.1.332,4.336,4.336,0,0,1,.067.594.828.828,0,0,1-.077.461.8.8,0,0,1-.7.293,1.656,1.656,0,0,1-.721-.114,1.588,1.588,0,0,1-.8-1.052c-.132-.484-.489-1.793.369-1.713A3.672,3.672,0,0,1,731.233,336.391Z" transform="translate(-667.688 -299.332)" fill="#e57a4a"/>
        <path id="Tracé_4065" data-name="Tracé 4065" d="M673.147,345.4a.536.536,0,0,1,.158.127.392.392,0,0,1,.069.227.947.947,0,0,1-.417.76,2.633,2.633,0,0,1-.823.361.6.6,0,0,1-.682-.114,1.831,1.831,0,0,1-1.058-1.6.8.8,0,0,1-.009-.208.816.816,0,0,1,.363-.479c.341-.273.713.07,1.063.227a12.115,12.115,0,0,1,1.335.7Z" transform="translate(-615.572 -307.233)" fill="#e57a4a"/>
        <path id="Tracé_4066" data-name="Tracé 4066" d="M688.3,371.085a.358.358,0,0,1,.382-.044.616.616,0,0,1,.277.286.227.227,0,0,1,.035.139.263.263,0,0,1-.114.154,2.454,2.454,0,0,1-.9.47.967.967,0,0,1-.072-.713.484.484,0,0,1,.58-.315" transform="translate(-631.072 -330.84)" fill="#e57a4a"/>
        <path id="Tracé_4067" data-name="Tracé 4067" d="M779.6,388.611a.558.558,0,0,0-.409-.074.47.47,0,0,0-.235.242,1.486,1.486,0,0,0-.156.475.662.662,0,0,0,.3.732c.264.107.541-.067.818-.091.311-.026.849-.114.691-.568C780.485,388.979,779.893,388.749,779.6,388.611Z" transform="translate(-711.659 -346.365)" fill="#e57a4a"/>
        <path id="Tracé_4068" data-name="Tracé 4068" d="M736.185,389.5a1.7,1.7,0,0,1-.583.184.286.286,0,0,1-.24-.025.279.279,0,0,1-.065-.093c-.131-.253-.409-.727-.165-.98a1.555,1.555,0,0,1,.721-.252A.647.647,0,0,1,736.185,389.5Z" transform="translate(-672.88 -346.196)" fill="#e57a4a"/>
        <path id="Tracé_4069" data-name="Tracé 4069" d="M704.724,406.334a.578.578,0,0,1,.129-.114.423.423,0,0,1,.247-.049,1.11,1.11,0,0,1,.719.423.858.858,0,0,1,.246.81.829.829,0,0,1-.236.31,2.226,2.226,0,0,1-1.331.555.409.409,0,0,1-.27-.052.935.935,0,0,1-.122-.136c-.236-.267-.605-.3-.341-.682A11.99,11.99,0,0,1,704.724,406.334Z" transform="translate(-645.08 -362.009)" fill="#e57a4a"/>
        <path id="Tracé_4070" data-name="Tracé 4070" d="M732.75,408.314a1.861,1.861,0,0,1,.467-.07.286.286,0,0,1,.172.033.32.32,0,0,1,.1.174l.091.283a.283.283,0,0,1-.214.441,1.418,1.418,0,0,1-.441.1.488.488,0,0,1-.4-.175c-.049-.067-.074-.151-.129-.215-.089-.1-.258-.161-.251-.3.006-.1.114-.161.212-.19a1.268,1.268,0,0,1,.375-.049" transform="translate(-670.32 -363.846)" fill="#e57a4a"/>
        <path id="Tracé_4071" data-name="Tracé 4071" d="M762.6,382.073c-.06.122-.114.277-.025.384a.353.353,0,0,0,.282.1,1.767,1.767,0,0,0,.372-.039.567.567,0,0,0,.285-.132.661.661,0,0,0,.134-.242c.092-.236.6-1.76-.051-1.372A3.552,3.552,0,0,0,762.6,382.073Z" transform="translate(-697.247 -339.44)" fill="#e57a4a"/>
        <path id="Tracé_4072" data-name="Tracé 4072" d="M756.825,338.381c.153-.017.341-.062.381-.21s-.089-.286-.222-.361a1.555,1.555,0,0,0-.915-.157c-.208.022-.809.075-.955.235-.126.139-.068.114.114.209A3.593,3.593,0,0,0,756.825,338.381Z" transform="translate(-690.617 -301.264)" fill="#e57a4a"/>
        <path id="Tracé_4073" data-name="Tracé 4073" d="M769.6,339.794c-.062,0-.137.014-.162.072a.165.165,0,0,0,.007.114,2.579,2.579,0,0,0,.423.81c.275.354.66.669.721,1.114.023.168.016.378.166.454a.374.374,0,0,0,.2.028.934.934,0,0,0,.824-1.563A2.2,2.2,0,0,0,769.6,339.794Z" transform="translate(-703.365 -303.172)" fill="#d7413a"/>
        <path id="Tracé_4074" data-name="Tracé 4074" d="M771.479,374.161c-.082.126-.144.264-.219.393a1.742,1.742,0,0,0-.157.293.394.394,0,0,0,.011.323c.107.185.371.187.578.135a1.176,1.176,0,0,0,.441-.194,1.7,1.7,0,0,0,.454-.724c.145-.364.246-.854-.26-.8A1.19,1.19,0,0,0,771.479,374.161Z" transform="translate(-704.823 -333.129)" fill="#d7413a"/>
        <path id="Tracé_4075" data-name="Tracé 4075" d="M763.658,399.4c.1.044.207-.024.289-.093a2.342,2.342,0,0,0,.61-.819,2.213,2.213,0,0,1,.306-.542c.114-.14.352-.306.258-.521-.146-.333-.576-.145-.718.061a8.239,8.239,0,0,1-.466.862C763.771,398.537,763.123,399.154,763.658,399.4Z" transform="translate(-698.066 -354.094)" fill="#d7413a"/>
        <path id="Tracé_4076" data-name="Tracé 4076" d="M705.928,352.435a.6.6,0,0,0-.375.3.432.432,0,0,0,.058.466.341.341,0,0,0,.454.041.6.6,0,0,0,.107-.554.27.27,0,0,0-.062-.162c-.043-.041-.158-.15-.176-.093" transform="translate(-646.708 -314.365)" fill="#f3c0b8"/>
        <path id="Tracé_4077" data-name="Tracé 4077" d="M726.339,381.053a1,1,0,0,0-.372-.043.416.416,0,0,0-.157.036.33.33,0,0,0-.082.464.649.649,0,0,0,.454.242c.165.025.367,0,.44-.152.046-.092-.239-.454-.284-.547" transform="translate(-664.578 -339.706)" fill="#f3c0b8"/>
        <path id="Tracé_4078" data-name="Tracé 4078" d="M753.37,335.248l-.114.114a.148.148,0,0,0-.047.073c-.015.081.094.114.176.123a.42.42,0,0,0,.373-.107.245.245,0,0,0-.1-.341.341.341,0,0,0-.37.05.187.187,0,0,0-.081.143c0,.057.066.114.114.084" transform="translate(-688.987 -298.993)" fill="#f3c0b8"/>
        <path id="Tracé_4079" data-name="Tracé 4079" d="M692.664,380.433a2.68,2.68,0,0,0,.532.765.174.174,0,0,1,.05.073.137.137,0,0,1-.043.114.6.6,0,0,1-.379.2.14.14,0,0,1-.164-.084,4.289,4.289,0,0,1-.217-.717,1.022,1.022,0,0,0-.321-.44.482.482,0,0,1-.114-.106.133.133,0,0,1-.009-.148.2.2,0,0,1,.068-.048c.177-.092.234-.174.384-.047A1.1,1.1,0,0,1,692.664,380.433Z" transform="translate(-634.715 -338.754)" fill="#f3c0b8"/>
        <path id="Tracé_4080" data-name="Tracé 4080" d="M744.982,419.218c.227.128.511-.062.778.063-.122-.307-.341-.862-.732-.909a.487.487,0,0,0-.5.279C744.461,418.923,744.793,419.112,744.982,419.218Z" transform="translate(-681.286 -372.823)" fill="#f3c0b8"/>
        <path id="Tracé_4081" data-name="Tracé 4081" d="M514.448,235.613a3.975,3.975,0,0,1,4.438.51A.268.268,0,0,0,519.3,236a3.982,3.982,0,0,1,3.422-2.881c2.784-.108,5.019,2.977,3.55,6.757a38.656,38.656,0,0,1-3.6,6.816.5.5,0,0,1-.605.186,36.9,36.9,0,0,1-6.84-3.674C511.91,240.865,512.068,237.061,514.448,235.613Z" transform="translate(-475.798 -208.616)" fill="#e84542"/>
        <path id="Tracé_4082" data-name="Tracé 4082" d="M537.078,283.832a.585.585,0,0,0-.036.6.853.853,0,0,0,.321.261c.175.1.394.2.568.094a.568.568,0,0,0,.2-.364,1.291,1.291,0,0,0,.063-.568C538.076,283.247,537.319,283.446,537.078,283.832Z" transform="translate(-497.32 -253.248)" fill="#e57a4a"/>
        <path id="Tracé_4083" data-name="Tracé 4083" d="M556.606,290.508a.388.388,0,0,0,.125.245.455.455,0,0,0,.284.065,3.715,3.715,0,0,0,.986-.143.1.1,0,0,0,.056-.03.113.113,0,0,0,0-.1l-.259-.682a1.01,1.01,0,0,1-.083-.546A1.013,1.013,0,0,0,556.606,290.508Z" transform="translate(-514.703 -258.434)" fill="#e57a4a"/>
        <path id="Tracé_4084" data-name="Tracé 4084" d="M581.041,246.177a.579.579,0,0,0,.079.484.533.533,0,0,0,.311.152,1.281,1.281,0,0,0,.534-.008.63.63,0,0,0,.326-.165.86.86,0,0,0,.126-.2l.156-.314a.765.765,0,0,0,.107-.634c-.152-.334-.627-.341-.782-.682A1.942,1.942,0,0,0,581.041,246.177Z" transform="translate(-536.36 -218.981)" fill="#e57a4a"/>
        <path id="Tracé_4085" data-name="Tracé 4085" d="M592.9,273.1a.4.4,0,0,0,.125.176,1.718,1.718,0,0,0,1.03.418,3.748,3.748,0,0,0,1.122-.114.227.227,0,0,0,.162-.091.216.216,0,0,0,.011-.132,2.579,2.579,0,0,0-.741-1.477.261.261,0,0,0-.114-.077C594.038,271.694,592.748,272.582,592.9,273.1Z" transform="translate(-546.882 -242.898)" fill="#e57a4a"/>
        <path id="Tracé_4086" data-name="Tracé 4086" d="M534.778,246.211a1.553,1.553,0,0,1-.745.665.3.3,0,0,1-.128.027.277.277,0,0,1-.166-.09,1.38,1.38,0,0,1-.294-.532.773.773,0,0,1-.066-.415.759.759,0,0,1,.219-.353,5.122,5.122,0,0,1,.427-.4.78.78,0,0,1,.534-.24C535.3,244.931,535.012,245.813,534.778,246.211Z" transform="translate(-494.127 -219.033)" fill="#e57a4a"/>
        <path id="Tracé_4087" data-name="Tracé 4087" d="M507.2,275.687a1.337,1.337,0,0,1,.368.524.85.85,0,0,1,.037.709.131.131,0,0,1-.057.064.151.151,0,0,1-.064,0l-.477-.027a2.3,2.3,0,0,1-.441-.055,1.178,1.178,0,0,1-.858-1.012c-.025-.3.133-.2.276-.309.056-.042.132-.175.19-.2A1.427,1.427,0,0,1,507.2,275.687Z" transform="translate(-469.604 -246.06)" fill="#e57a4a"/>
        <path id="Tracé_4088" data-name="Tracé 4088" d="M520.26,301.791a.533.533,0,0,1,.173-.227.525.525,0,0,1,.19-.061c.386-.07.777-.123,1.169-.154a.187.187,0,0,1,.114.016.163.163,0,0,1,.055.066,1.072,1.072,0,0,1-.084,1.113,1.364,1.364,0,0,1-1,.543.554.554,0,0,1-.4-.09c-.123-.1-.1-.24-.175-.357-.039-.058-.161-.068-.184-.114A.942.942,0,0,1,520.26,301.791Z" transform="translate(-482.346 -269.094)" fill="#e57a4a"/>
        <path id="Tracé_4089" data-name="Tracé 4089" d="M556.318,250.343a1.052,1.052,0,0,0-.078.361,1.036,1.036,0,0,0,.08.341,4.5,4.5,0,0,0,.244.545.816.816,0,0,0,.3.357.806.806,0,0,0,.749-.1,1.645,1.645,0,0,0,.56-.468,1.569,1.569,0,0,0,.144-1.308c-.134-.485-.493-1.792-1.191-1.287A3.722,3.722,0,0,0,556.318,250.343Z" transform="translate(-514.396 -222.401)" fill="#e57a4a"/>
        <path id="Tracé_4090" data-name="Tracé 4090" d="M606.558,229.148a.555.555,0,0,0-.072.19.4.4,0,0,0,.057.227.947.947,0,0,0,.746.442,2.641,2.641,0,0,0,.891-.108.607.607,0,0,0,.526-.448,2.447,2.447,0,0,0,.308-1.238,2.423,2.423,0,0,0-.215-.682.788.788,0,0,0-.1-.183.8.8,0,0,0-.555-.227c-.435-.059-.578.424-.8.737A12.185,12.185,0,0,0,606.558,229.148Z" transform="translate(-558.934 -203.298)" fill="#e57a4a"/>
        <path id="Tracé_4091" data-name="Tracé 4091" d="M615.585,258.72a.358.358,0,0,0-.351.156.623.623,0,0,0-.093.387.24.24,0,0,0,.041.137.262.262,0,0,0,.173.077,2.451,2.451,0,0,0,1.016-.053.982.982,0,0,0-.3-.651.483.483,0,0,0-.66.025" transform="translate(-566.603 -231.254)" fill="#e57a4a"/>
        <path id="Tracé_4092" data-name="Tracé 4092" d="M542.906,320.254a.575.575,0,0,1,.316-.272.471.471,0,0,1,.325.089,1.484,1.484,0,0,1,.375.329.658.658,0,0,1,.114.783c-.175.227-.5.217-.75.341-.282.135-.786.341-.885-.14C542.328,321.025,542.721,320.525,542.906,320.254Z" transform="translate(-502.121 -285.611)" fill="#e57a4a"/>
        <path id="Tracé_4093" data-name="Tracé 4093" d="M582.182,299.215a1.725,1.725,0,0,0,.6-.139.292.292,0,0,0,.194-.144.286.286,0,0,0,.008-.114c-.017-.285-.018-.835-.358-.928a1.593,1.593,0,0,0-.749.151A.646.646,0,0,0,582.182,299.215Z" transform="translate(-536.873 -266.023)" fill="#e57a4a"/>
        <path id="Tracé_4094" data-name="Tracé 4094" d="M612.539,300.725a.591.591,0,0,0-.172-.035.427.427,0,0,0-.236.084,1.108,1.108,0,0,0-.4.729.856.856,0,0,0,.2.822.81.81,0,0,0,.361.147,2.236,2.236,0,0,0,1.429-.2.413.413,0,0,0,.206-.184.846.846,0,0,0,.035-.178c.067-.351.367-.568-.058-.763A10.534,10.534,0,0,0,612.539,300.725Z" transform="translate(-563.558 -268.513)" fill="#e57a4a"/>
        <path id="Tracé_4095" data-name="Tracé 4095" d="M594.034,313.4a1.949,1.949,0,0,0-.437.176.3.3,0,0,0-.13.114.306.306,0,0,0,0,.2l.066.29a.381.381,0,0,0,.14.261.375.375,0,0,0,.268.009,1.4,1.4,0,0,0,.429-.14.485.485,0,0,0,.256-.354c.008-.083-.014-.168,0-.25.025-.132.14-.27.065-.383-.056-.084-.181-.081-.278-.056a1.25,1.25,0,0,0-.348.15" transform="translate(-547.378 -279.649)" fill="#e57a4a"/>
        <path id="Tracé_4096" data-name="Tracé 4096" d="M554.46,308.943c.114.075.235.184.217.318a.353.353,0,0,1-.193.227,1.77,1.77,0,0,1-.341.156.558.558,0,0,1-.312.032.662.662,0,0,1-.239-.14c-.2-.157-1.409-1.211-.654-1.206A3.539,3.539,0,0,1,554.46,308.943Z" transform="translate(-511.251 -275.285)" fill="#e57a4a"/>
        <path id="Tracé_4097" data-name="Tracé 4097" d="M533.071,265.608c-.141.064-.323.114-.435.014s-.069-.292.008-.425a1.561,1.561,0,0,1,.706-.6c.191-.087.735-.348.942-.284.18.055.114.066.009.237a3.582,3.582,0,0,1-1.229,1.058Z" transform="translate(-493.413 -236.26)" fill="#e57a4a"/>
        <path id="Tracé_4098" data-name="Tracé 4098" d="M524.074,271.858c.056-.031.126-.058.176-.02a.167.167,0,0,1,.051.1,2.57,2.57,0,0,1,.049.909,2.6,2.6,0,0,0-.052,1.326c.066.157.178.334.09.478a.367.367,0,0,1-.158.126.934.934,0,0,1-1.505-.926A2.211,2.211,0,0,1,524.074,271.858Z" transform="translate(-484.687 -242.923)" fill="#d7413a"/>
        <path id="Tracé_4099" data-name="Tracé 4099" d="M541.455,306.314c.134.067.257.153.387.227a1.844,1.844,0,0,1,.284.173.4.4,0,0,1,.156.284c0,.212-.227.35-.43.411a1.2,1.2,0,0,1-.478.056,1.628,1.628,0,0,1-.758-.393c-.31-.237-.646-.609-.181-.818A1.191,1.191,0,0,1,541.455,306.314Z" transform="translate(-500.184 -273.367)" fill="#d7413a"/>
        <path id="Tracé_4100" data-name="Tracé 4100" d="M560.7,324.739c-.061.087-.19.085-.3.067a2.353,2.353,0,0,1-.943-.394,2.219,2.219,0,0,0-.538-.311c-.168-.062-.454-.083-.487-.317-.043-.36.422-.418.649-.312a8.38,8.38,0,0,0,.841.5C560.168,324.057,561.039,324.262,560.7,324.739Z" transform="translate(-516.342 -288.664)" fill="#d7413a"/>
        <path id="Tracé_4101" data-name="Tracé 4101" d="M593.382,251.511a.6.6,0,0,1,.478.07.431.431,0,0,1,.186.429.341.341,0,0,1-.366.264c-.194-.033-.3-.24-.374-.423a.262.262,0,0,1-.028-.172c.017-.057.059-.209.1-.169" transform="translate(-547.223 -224.902)" fill="#f3c0b8"/>
        <path id="Tracé_4102" data-name="Tracé 4102" d="M589.577,285.752a.985.985,0,0,1,.3-.227.409.409,0,0,1,.153-.048.33.33,0,0,1,.307.357.652.652,0,0,1-.268.44.405.405,0,0,1-.454.094c-.086-.057-.026-.513-.034-.616" transform="translate(-543.935 -255.029)" fill="#f3c0b8"/>
        <path id="Tracé_4103" data-name="Tracé 4103" d="M544.25,260.173l.16.042a.151.151,0,0,1,.078.039c.052.062-.022.15-.09.2a.411.411,0,0,1-.375.1.244.244,0,0,1-.091-.341.341.341,0,0,1,.341-.145.186.186,0,0,1,.143.082.091.091,0,0,1-.053.134" transform="translate(-503.455 -232.495)" fill="#f3c0b8"/>
        <path id="Tracé_4104" data-name="Tracé 4104" d="M619.45,268.306a2.667,2.667,0,0,1-.067.929.15.15,0,0,0-.006.089.139.139,0,0,0,.1.075.593.593,0,0,0,.428-.018.14.14,0,0,0,.1-.156,4.28,4.28,0,0,0-.18-.728,1.009,1.009,0,0,1,.053-.541.51.51,0,0,0,.045-.15.129.129,0,0,0-.068-.131.183.183,0,0,0-.083-.008c-.2.012-.29-.03-.353.156A1.1,1.1,0,0,0,619.45,268.306Z" transform="translate(-570.357 -239.24)" fill="#f3c0b8"/>
        <path id="Tracé_4105" data-name="Tracé 4105" d="M592.259,328.556c-.133.227-.473.206-.637.454-.052-.326-.142-.918.167-1.153a.472.472,0,0,1,.568-.014C592.556,328.038,592.369,328.369,592.259,328.556Z" transform="translate(-545.711 -292.503)" fill="#f3c0b8"/>
        <path id="Tracé_4106" data-name="Tracé 4106" d="M547.95,466.8a3.97,3.97,0,0,1,3.471,2.814.269.269,0,0,0,.417.114,3.976,3.976,0,0,1,4.431-.594c2.407,1.4,2.637,5.2-.632,7.612a38.376,38.376,0,0,1-6.7,3.818.5.5,0,0,1-.611-.168,36.949,36.949,0,0,1-3.8-6.771C542.992,469.874,545.165,466.749,547.95,466.8Z" transform="translate(-503.561 -415.755)" fill="#e84542"/>
        <path id="Tracé_4107" data-name="Tracé 4107" d="M567.163,498.175a.582.582,0,0,0-.353.487.864.864,0,0,0,.131.394c.094.177.227.381.427.383a.585.585,0,0,0,.368-.2,1.3,1.3,0,0,0,.36-.454C568.32,498.217,567.573,497.983,567.163,498.175Z" transform="translate(-523.765 -443.504)" fill="#e57a4a"/>
        <path id="Tracé_4108" data-name="Tracé 4108" d="M578.5,515.016a.391.391,0,0,0-.026.274.455.455,0,0,0,.206.208,3.706,3.706,0,0,0,.909.408.093.093,0,0,0,.064,0c.032-.011.043-.05.05-.084l.149-.714a1.006,1.006,0,0,1,.227-.506A1.019,1.019,0,0,0,578.5,515.016Z" transform="translate(-534.092 -457.937)" fill="#e57a4a"/>
        <path id="Tracé_4109" data-name="Tracé 4109" d="M620.989,491.361a.575.575,0,0,0-.193.454.543.543,0,0,0,.181.3,1.307,1.307,0,0,0,.455.279.626.626,0,0,0,.363.035.807.807,0,0,0,.215-.1l.3-.181c.191-.114.4-.258.431-.477.051-.365-.341-.625-.293-1A1.926,1.926,0,0,0,620.989,491.361Z" transform="translate(-571.618 -436.908)" fill="#e57a4a"/>
        <path id="Tracé_4110" data-name="Tracé 4110" d="M618.154,521.913a.409.409,0,0,0,.01.216,1.713,1.713,0,0,0,.645.909,3.735,3.735,0,0,0,1.007.51.227.227,0,0,0,.185.011.217.217,0,0,0,.081-.107,2.586,2.586,0,0,0,.168-1.645.27.27,0,0,0-.056-.127C619.869,521.341,618.3,521.4,618.154,521.913Z" transform="translate(-569.267 -464.209)" fill="#e57a4a"/>
        <path id="Tracé_4111" data-name="Tracé 4111" d="M583.165,467.038a1.552,1.552,0,0,1-.983.158.293.293,0,0,1-.123-.045.273.273,0,0,1-.092-.165,1.374,1.374,0,0,1,.036-.607.794.794,0,0,1,.167-.385.756.756,0,0,1,.376-.181,4.991,4.991,0,0,1,.577-.114.778.778,0,0,1,.578.085C584.292,466.239,583.575,466.828,583.165,467.038Z" transform="translate(-537.185 -414.762)" fill="#e57a4a"/>
        <path id="Tracé_4112" data-name="Tracé 4112" d="M546.754,475.093a1.35,1.35,0,0,1,.029.64.855.855,0,0,1-.35.618.127.127,0,0,1-.082.023.152.152,0,0,1-.056-.028l-.388-.279a2.216,2.216,0,0,1-.341-.283,1.177,1.177,0,0,1-.181-1.314c.14-.266.227-.1.4-.114.07,0,.2-.077.266-.065C546.336,474.347,546.67,474.837,546.754,475.093Z" transform="translate(-504.666 -422.389)" fill="#e57a4a"/>
        <path id="Tracé_4113" data-name="Tracé 4113" d="M542.293,504.863a.526.526,0,0,1,.27-.1.517.517,0,0,1,.192.05c.365.148.722.314,1.07.5a.189.189,0,0,1,.091.076.168.168,0,0,1,.01.085,1.076,1.076,0,0,1-.669.9,1.364,1.364,0,0,1-1.136-.082.549.549,0,0,1-.286-.287c-.049-.151.046-.256.043-.4,0-.069-.1-.144-.092-.2C541.822,505.15,542.09,504.987,542.293,504.863Z" transform="translate(-501.584 -449.399)" fill="#e57a4a"/>
        <path id="Tracé_4114" data-name="Tracé 4114" d="M594.825,482.4a1.056,1.056,0,0,0-.259.264,1,1,0,0,0-.114.328,4.474,4.474,0,0,0-.086.591.824.824,0,0,0,.064.464.808.808,0,0,0,.682.316,1.642,1.642,0,0,0,.724-.1,1.562,1.562,0,0,0,.824-1.022c.148-.481.545-1.777-.313-1.724A3.729,3.729,0,0,0,594.825,482.4Z" transform="translate(-548.182 -428.797)" fill="#e57a4a"/>
        <path id="Tracé_4115" data-name="Tracé 4115" d="M648.828,493.26a.56.56,0,0,0-.162.123.4.4,0,0,0-.076.227.947.947,0,0,0,.393.774,2.614,2.614,0,0,0,.81.387.8.8,0,0,0,.341.061.816.816,0,0,0,.348-.157,1.832,1.832,0,0,0,1.108-1.562.8.8,0,0,0,.016-.208.813.813,0,0,0-.347-.491c-.335-.283-.716.048-1.07.193A12.213,12.213,0,0,0,648.828,493.26Z" transform="translate(-596.254 -438.359)" fill="#e57a4a"/>
        <path id="Tracé_4116" data-name="Tracé 4116" d="M647.655,518.413a.355.355,0,0,0-.379-.057.61.61,0,0,0-.286.273.24.24,0,0,0-.04.138.259.259,0,0,0,.1.158,2.426,2.426,0,0,0,.885.5.972.972,0,0,0,.094-.711.485.485,0,0,0-.568-.332" transform="translate(-594.8 -461.423)" fill="#e57a4a"/>
        <path id="Tracé_4117" data-name="Tracé 4117" d="M550.081,533.045a.552.552,0,0,1,.411-.06.471.471,0,0,1,.227.25,1.475,1.475,0,0,1,.14.479.663.663,0,0,1-.321.722c-.267.1-.539-.085-.815-.114-.31-.036-.844-.139-.672-.593C549.179,533.386,549.779,533.175,550.081,533.045Z" transform="translate(-507.994 -474.399)" fill="#e57a4a"/>
        <path id="Tracé_4118" data-name="Tracé 4118" d="M596.838,535.255a1.708,1.708,0,0,0,.577.2.29.29,0,0,0,.241-.018.277.277,0,0,0,.067-.09c.139-.25.432-.715.2-.975a1.587,1.587,0,0,0-.715-.275A.646.646,0,0,0,596.838,535.255Z" transform="translate(-550.156 -475.405)" fill="#e57a4a"/>
        <path id="Tracé_4119" data-name="Tracé 4119" d="M619.815,552.909a.611.611,0,0,0-.126-.123.426.426,0,0,0-.245-.056,1.106,1.106,0,0,0-.732.4.859.859,0,0,0-.273.8.813.813,0,0,0,.227.317,2.228,2.228,0,0,0,1.312.6.407.407,0,0,0,.273-.044.868.868,0,0,0,.125-.132c.245-.26.615-.283.36-.682A10.657,10.657,0,0,0,619.815,552.909Z" transform="translate(-569.506 -491.919)" fill="#e57a4a"/>
        <path id="Tracé_4120" data-name="Tracé 4120" d="M599.225,554.092a1.941,1.941,0,0,0-.464-.085.288.288,0,0,0-.173.028.31.31,0,0,0-.114.17l-.1.279a.283.283,0,0,0,.206.448,1.4,1.4,0,0,0,.437.114.485.485,0,0,0,.406-.162,2.361,2.361,0,0,1,.136-.209c.091-.1.262-.153.26-.287,0-.1-.114-.166-.206-.2a1.261,1.261,0,0,0-.374-.06" transform="translate(-551.706 -493.048)" fill="#e57a4a"/>
        <path id="Tracé_4121" data-name="Tracé 4121" d="M570.967,526.88a.374.374,0,0,1,.012.385.353.353,0,0,1-.285.089,1.685,1.685,0,0,1-.369-.051.569.569,0,0,1-.282-.141.662.662,0,0,1-.126-.245c-.084-.24-.538-1.778.1-1.37A3.539,3.539,0,0,1,570.967,526.88Z" transform="translate(-526.31 -467.763)" fill="#e57a4a"/>
        <path id="Tracé_4122" data-name="Tracé 4122" d="M572.032,483.312c-.153-.022-.341-.072-.375-.227s.1-.284.234-.354a1.558,1.558,0,0,1,.918-.126c.208.027.807.1.947.265.122.142.065.12-.119.206A3.588,3.588,0,0,1,572.032,483.312Z" transform="translate(-528.057 -429.742)" fill="#e57a4a"/>
        <path id="Tracé_4123" data-name="Tracé 4123" d="M555.738,484.605c.062,0,.136.018.159.077a.166.166,0,0,1-.01.114,2.56,2.56,0,0,1-.449.8c-.286.341-.682.649-.755,1.091-.028.167-.028.377-.182.454a.385.385,0,0,1-.2.022.936.936,0,0,1-.774-1.59A2.19,2.19,0,0,1,555.738,484.605Z" transform="translate(-511.762 -431.525)" fill="#d7413a"/>
        <path id="Tracé_4124" data-name="Tracé 4124" d="M560.517,518.624c.077.128.135.267.207.4a1.812,1.812,0,0,1,.147.3.4.4,0,0,1-.022.321c-.114.182-.377.175-.583.114a1.176,1.176,0,0,1-.434-.21,1.592,1.592,0,0,1-.428-.737c-.133-.367-.218-.861.286-.787A1.193,1.193,0,0,1,560.517,518.624Z" transform="translate(-517.109 -461.149)" fill="#d7413a"/>
        <path id="Tracé_4125" data-name="Tracé 4125" d="M567.045,544.16c-.1.041-.207-.03-.285-.1a2.334,2.334,0,0,1-.584-.834,2.217,2.217,0,0,0-.288-.551c-.114-.143-.341-.317-.241-.529.158-.327.58-.126.716.084a8.43,8.43,0,0,0,.437.877C566.96,543.3,567.587,543.933,567.045,544.16Z" transform="translate(-522.712 -482.383)" fill="#d7413a"/>
        <path id="Tracé_4126" data-name="Tracé 4126" d="M634.083,499.262a.6.6,0,0,1,.366.317.431.431,0,0,1-.074.464.341.341,0,0,1-.454.025.6.6,0,0,1-.089-.557.274.274,0,0,1,.068-.16c.044-.04.163-.146.178-.089" transform="translate(-583.15 -444.511)" fill="#f3c0b8"/>
        <path id="Tracé_4127" data-name="Tracé 4127" d="M610.61,527.229a.979.979,0,0,1,.372-.032.4.4,0,0,1,.156.042.328.328,0,0,1,.067.465.645.645,0,0,1-.462.227.407.407,0,0,1-.434-.166c-.042-.094.252-.447.3-.537" transform="translate(-562.318 -469.282)" fill="#f3c0b8"/>
        <path id="Tracé_4128" data-name="Tracé 4128" d="M588.053,480.657l.114.123a.149.149,0,0,1,.046.074c.011.081-.1.114-.181.114-.135,0-.294-.007-.369-.119a.245.245,0,0,1,.106-.335.347.347,0,0,1,.369.063.185.185,0,0,1,.076.145c0,.057-.069.108-.114.08" transform="translate(-542.223 -427.882)" fill="#f3c0b8"/>
        <path id="Tracé_4129" data-name="Tracé 4129" d="M641.681,527.727a2.672,2.672,0,0,1-.556.748.162.162,0,0,0-.052.072.14.14,0,0,0,.04.114.6.6,0,0,0,.373.215.175.175,0,0,0,.091,0,.168.168,0,0,0,.075-.074,4.237,4.237,0,0,0,.24-.71,1.023,1.023,0,0,1,.341-.429.49.49,0,0,0,.114-.1.13.13,0,0,0,.012-.148.182.182,0,0,0-.066-.05c-.175-.1-.227-.182-.382-.059A1.105,1.105,0,0,0,641.681,527.727Z" transform="translate(-589.591 -469.327)" fill="#f3c0b8"/>
        <path id="Tracé_4130" data-name="Tracé 4130" d="M588.439,564.776c-.235.122-.509-.08-.779.037.132-.3.373-.851.76-.883.181-.015.454.106.491.3C588.968,564.5,588.633,564.677,588.439,564.776Z" transform="translate(-542.247 -501.847)" fill="#f3c0b8"/>
      </g>
    </g>
  </g>
</svg>
