<svg xmlns="http://www.w3.org/2000/svg" width="99.123" height="26.578" viewBox="0 0 99.123 26.578">
  <path id="deliveroo-1" d="M13.412,252.293h2.262l-.384-1.757V240.095H13.129v4.766a3.386,3.386,0,0,0-2.605-1.192c-2.161,0-3.837,1.8-3.837,4.4,0,2.626,1.676,4.4,3.837,4.4a3.364,3.364,0,0,0,2.646-1.252Zm42.735-6.281a2.012,2.012,0,0,1,1.212.384l1.03-2.3a2.935,2.935,0,0,0-1.575-.424,2.607,2.607,0,0,0-2.3,1.272l-.222-1.07H52.067l.364,1.656v6.786h2.161v-5.392a1.649,1.649,0,0,1,1.555-.909Zm6.321,4.2a2.121,2.121,0,1,1,0-4.241,2.03,2.03,0,0,1,2.181,2.121A2.052,2.052,0,0,1,62.469,250.213ZM8.787,248.072a2.041,2.041,0,0,1,2.181-2.121,2.121,2.121,0,1,1,0,4.241A2.041,2.041,0,0,1,8.787,248.072Zm63.275,2.141a2.121,2.121,0,1,1,0-4.241,2.03,2.03,0,0,1,2.181,2.121A2.074,2.074,0,0,1,72.062,250.213ZM20.925,245.83a1.931,1.931,0,0,1,2.08,1.495h-4.16A1.9,1.9,0,0,1,20.925,245.83Zm25.831,0a1.931,1.931,0,0,1,2.08,1.495h-4.16a1.94,1.94,0,0,1,2.08-1.495Zm-10.542,6.463h3.474l2.262-8.462H39.586L37.95,250.7l-1.656-6.847H33.972Zm-5.554,0H32.82v-8.462H30.659Zm-9.411.162a6.315,6.315,0,0,0,3.373-.969l-.828-1.858a5.275,5.275,0,0,1-2.525.646A2.27,2.27,0,0,1,18.986,249h6.1a4.97,4.97,0,0,0,.1-.99,4.226,4.226,0,1,0-3.938,4.443Zm55.075-4.383a4.264,4.264,0,1,0-4.261,4.4A4.164,4.164,0,0,0,76.323,248.072Zm-29.264,4.4a6.143,6.143,0,0,0,3.373-.969l-.828-1.858a5.274,5.274,0,0,1-2.525.646,2.27,2.27,0,0,1-2.282-1.272h6.1a4.971,4.971,0,0,0,.1-.99,4.226,4.226,0,1,0-3.938,4.443Zm15.41,0a4.405,4.405,0,1,0-4.261-4.4A4.164,4.164,0,0,0,62.469,252.475Zm-35.909-.182h2.161v-12.2H26.56Zm5.19-9.613a1.373,1.373,0,1,0-1.373-1.373A1.358,1.358,0,0,0,31.75,242.68ZM-5.391,232.4l-1.232,11.714-2.1-9.876-6.624,1.394,2.08,9.876-9.533,2.02,1.7,7.877,16.783,3.575,3.837-8.583,1.818-17.288ZM-10.7,249.405a1.218,1.218,0,0,1-1.293.121c-.485-.162-.687-.727-.525-1.454.141-.525.767-.606,1.111-.606a.792.792,0,0,1,.364.081c.222.1.606.323.687.646A1.169,1.169,0,0,1-10.7,249.405Zm4.867.525c-.263.444-.909.5-1.575.182a.959.959,0,0,1-.384-1.091.954.954,0,0,1,.222-.5,1.057,1.057,0,0,1,.707-.465,1.227,1.227,0,0,1,1.151.606A1.222,1.222,0,0,1-5.835,249.93Z" transform="translate(22.8 -232.4)" fill="#00ccbc"/>
</svg>
