<svg xmlns="http://www.w3.org/2000/svg" width="18.582" height="19.751" viewBox="0 0 18.582 19.751">
  <path id="instagram-glyph-1" d="M6.195,9.876a3.2,3.2,0,0,1,3.1-3.292,3.2,3.2,0,0,1,3.1,3.292,3.2,3.2,0,0,1-3.1,3.292,3.2,3.2,0,0,1-3.1-3.292m-1.674,0a4.928,4.928,0,0,0,4.771,5.071,4.928,4.928,0,0,0,4.771-5.071A4.928,4.928,0,0,0,9.292,4.8,4.928,4.928,0,0,0,4.52,9.876M13.137,4.6a1.117,1.117,0,1,0,2.231,0,1.117,1.117,0,1,0-2.231,0m-7.6,13.311a4.869,4.869,0,0,1-1.725-.34,2.879,2.879,0,0,1-1.069-.739A3.077,3.077,0,0,1,2.048,15.7a5.755,5.755,0,0,1-.32-1.834c-.045-1.041-.054-1.354-.054-3.991s.01-2.949.054-3.991a5.782,5.782,0,0,1,.32-1.834,3.1,3.1,0,0,1,.695-1.136,2.858,2.858,0,0,1,1.069-.739,4.869,4.869,0,0,1,1.725-.34c.979-.048,1.274-.057,3.754-.057s2.775.01,3.755.057a4.892,4.892,0,0,1,1.725.34,2.87,2.87,0,0,1,1.069.739,3.09,3.09,0,0,1,.695,1.136,5.755,5.755,0,0,1,.32,1.834c.045,1.042.054,1.354.054,3.991s-.009,2.949-.054,3.991a5.777,5.777,0,0,1-.32,1.834,3.087,3.087,0,0,1-.695,1.135,2.873,2.873,0,0,1-1.069.739,4.869,4.869,0,0,1-1.725.34c-.979.048-1.274.057-3.755.057s-2.775-.01-3.754-.057M5.461.06A6.465,6.465,0,0,0,3.206.519,4.541,4.541,0,0,0,1.56,1.658,4.874,4.874,0,0,0,.488,3.407,7.643,7.643,0,0,0,.056,5.8C.011,6.857,0,7.194,0,9.876s.011,3.019.056,4.071a7.643,7.643,0,0,0,.432,2.4A4.87,4.87,0,0,0,1.56,18.094a4.539,4.539,0,0,0,1.646,1.139,6.469,6.469,0,0,0,2.255.459c.991.048,1.307.06,3.831.06s2.84-.011,3.831-.06a6.465,6.465,0,0,0,2.255-.459,4.551,4.551,0,0,0,1.646-1.139A4.891,4.891,0,0,0,18.1,16.344a7.622,7.622,0,0,0,.432-2.4c.045-1.054.056-1.39.056-4.071s-.011-3.019-.056-4.071a7.643,7.643,0,0,0-.432-2.4,4.9,4.9,0,0,0-1.072-1.749A4.539,4.539,0,0,0,15.378.519,6.455,6.455,0,0,0,13.123.06C12.132.012,11.816,0,9.292,0S6.452.011,5.461.06" fill="#fff"/>
</svg>
