<svg xmlns="http://www.w3.org/2000/svg" width="99.475" height="24.547" viewBox="0 0 99.475 24.547">
  <path id="just-eat-takeaway-com-logo-vector" d="M50.625,303.177a36.054,36.054,0,0,0-2.673-3.869l-.035-.035h0c-.035-.07-.176-.211-.211-.281-.457-.6-.95-5.452-1.02-5.8-.07-.422-.176-.844-.809-.914-.492-.07-1.231-.141-2.04-.176a.647.647,0,0,0-.668.352.936.936,0,0,0-.106.422v1.055c0,.035-.035.07-.07.105a.17.17,0,0,1-.246,0c-.387-.281-2.392-1.829-3.482-2.5-.07-.035-.106-.07-.176-.07a1.452,1.452,0,0,0-1.266.035.123.123,0,0,0-.07.035,34.327,34.327,0,0,0-11.326,11.677.855.855,0,0,0-.07.809c.211.457,2.286.563,2.6.6.387.035.352.352.352.352a97.856,97.856,0,0,0,.633,10.306.7.7,0,0,0,.668.6c.246,0,1.09-.035,3.341-.106.07,0,.176-.07.176-.141v-.035c-.211-2.251-.281-4.186-.281-4.291a.356.356,0,0,0-.141-.246,2.575,2.575,0,0,1-1.337-2.286c-.07-4.432.211-7.844.211-7.844s.035-.457.457-.422.387.492.387.492c-.141,1.9-.211,5.346-.211,5.346s0,.668.633.668.633-.668.633-.668c-.035-2.708.211-5.417.211-5.417a.448.448,0,0,1,.457-.457.348.348,0,0,1,.352.317.224.224,0,0,1,0,.211c-.176,2.321-.211,5.346-.211,5.346s0,.668.633.668.633-.7.633-.7c0-2.251.211-5.346.211-5.346.035-.246.141-.457.422-.457.352,0,.387.352.387.457-.211,2.427-.211,6.155-.176,7.738a2.665,2.665,0,0,1-1.266,2.357.274.274,0,0,0-.106.246c.07,1.477.176,3.13.281,4.291a.151.151,0,0,0,.141.141h2.568c1.2,0,1.688,0,2.568.035.106,0,.141-.07.141-.176.246-2.11.317-3.658.317-3.8s-.176-.176-.176-.176c-.281-.035-.914-.106-1.477-.211a.718.718,0,0,1-.563-.7,16,16,0,0,1,3.025-10.763.8.8,0,0,1,.844-.281c.422.176.528,1.372.528,1.442a84.9,84.9,0,0,1-.352,14.491.193.193,0,0,0,.141.211c.106.035,2.216.105,2.427.07a.747.747,0,0,0,.668-.633,71.985,71.985,0,0,0,.633-10.271.41.41,0,0,1,.352-.352l2-.211a.761.761,0,0,0,.6-.352,1.22,1.22,0,0,0-.07-.879m10.693-3.517H58.152c-1.02,0-1.02,0-1.231,1.2s-.211,1.231.739,1.231h1.9l-1.055,6.12a3.312,3.312,0,0,1-2.708,2.884c-.457.141-.6.317-.6.528a2.288,2.288,0,0,0,.317.985c.317.739.457.844.739.844a6.037,6.037,0,0,0,.914-.176c2.6-.844,3.693-2.884,4.115-5.276l1.2-6.894c.106-1.442.106-1.442-1.161-1.442m10.728,0c-1.266,0-1.266,0-1.442,1.055l-.95,5.557c-.246,1.618-.668,2.568-2.286,2.568-1.548,0-2.11-.95-1.829-2.392l.914-5.311c.246-1.512.211-1.512-1.126-1.512-1.266,0-1.337,0-1.512,1.02l-.95,5.557c-.563,3.166,1.407,5.135,4.186,5.135,3.13,0,4.713-1.407,5.206-4.748l.95-5.522c.246-1.407.176-1.407-1.161-1.407m5.874,9.11c1.02-.035,1.583-.528,1.583-.985,0-.6-.739-.809-1.723-1.126-1.935-.6-3.693-1.266-3.693-3.341,0-2.427,2-3.764,4.537-3.764a25.323,25.323,0,0,1,3.025.141c.668.07.844.317.633,1.372s-.457,1.161-1.055,1.126c-.739-.035-1.653-.141-2.779-.141-1.266,0-1.653.457-1.653.914,0,.563.528.844,1.723,1.2,2.216.633,3.693,1.548,3.693,3.482,0,2.286-1.653,3.588-4.361,3.693a21.312,21.312,0,0,1-3.834-.211c-.844-.141-.915-.141-.668-1.372.211-1.126.211-1.2,1.02-1.126a26.887,26.887,0,0,0,3.552.141m14-9.11H84.672c-1.02,0-1.02,0-1.231,1.231s-.176,1.231.739,1.231h2.357L85.2,309.79c-.246,1.512-.211,1.512,1.126,1.512,1.231,0,1.266,0,1.442-1.055l1.372-8.09h2.286c1.02,0,1.02,0,1.231-1.231.176-1.266.176-1.266-.739-1.266m12.733,2.427c1.02,0,1.02,0,1.231-1.231s.211-1.231-.739-1.231h-5.17c-1.829,0-1.794,0-2.11,1.829l-1.337,7.738c-.352,2-.317,2,1.548,2h5.065c1.055,0,1.02,0,1.231-1.2.211-1.231.211-1.231-.739-1.231H99.269l.352-2.216h3.623c.985,0,.985,0,1.161-1.161.176-1.2.176-1.2-1.161-1.2h-3.2l.352-2.11Zm5.487,4.115,1.653-3.693c.141-.317.141-.317.352-.317s.211,0,.246.352l.528,3.623-2.779.035Zm4.537-5.135c-.246-1.442-.246-1.442-2.321-1.442-1.935,0-1.9,0-2.5,1.2l-4.291,9.039c-.633,1.266-.528,1.407,1.055,1.407,1.231,0,1.231,0,1.759-1.161l.668-1.548h4.186l.211,1.548c.176,1.161.211,1.161,1.442,1.161,1.407,0,1.548-.07,1.266-1.512Zm10.235-1.407h-7.281c-1.02,0-1.02,0-1.231,1.231s-.176,1.231.739,1.231h2.357l-1.337,7.668c-.246,1.512-.211,1.512,1.126,1.512,1.231,0,1.266,0,1.442-1.055l1.372-8.09h2.286c1.02,0,1.02,0,1.231-1.231.246-1.266.246-1.266-.7-1.266" transform="translate(-26.277 -291.337)" fill="#ff8000"/>
</svg>
