<svg id="Uber_Eats_2018_logo" xmlns="http://www.w3.org/2000/svg" width="81.414" height="13.151" viewBox="0 0 81.414 13.151">
  <path id="Tracé_84" data-name="Tracé 84" d="M95.826,63.415a2.14,2.14,0,0,0-2.072,2.4v5.34H91.9v-9.4h1.828v1.148a2.479,2.479,0,0,1,2.2-1.214H96.6v1.722Zm-5.2,3.044a4.674,4.674,0,0,0-4.693-4.9,4.909,4.909,0,0,0,.175,9.817,4.912,4.912,0,0,0,4.055-2.007l-1.343-.984a3.275,3.275,0,0,1-2.712,1.367,3.151,3.151,0,0,1-3.1-2.69h7.624Zm-7.58-.862a2.953,2.953,0,0,1,2.865-2.4,2.914,2.914,0,0,1,2.843,2.4ZM75.27,61.56a4.679,4.679,0,0,0-3.323,1.389v-4.7H70.1V71.158h1.828V69.966a4.752,4.752,0,0,0,3.35,1.411,4.909,4.909,0,1,0,0-9.818Zm-.133,8.164a1.342,1.342,0,1,0,0-.009Zm-11.853-.089a3.186,3.186,0,0,0,3.173-3.421V58.25h1.916V71.158H66.479V69.937a4.706,4.706,0,0,1-3.414,1.433,4.776,4.776,0,0,1-4.874-5.052V58.25h1.952v7.976A3.132,3.132,0,0,0,63.284,69.636Z" transform="translate(-58.19 -58.25)" fill="#262626"/>
  <path id="Tracé_85" data-name="Tracé 85" d="M252.32,58.25h9.055v2.216h-6.609v3.146h6.425v2.14h-6.425v3.2h6.609v2.216H252.32ZM286.383,71.4c2.776,0,4.34-1.329,4.34-3.155,0-1.3-.926-2.271-2.865-2.692l-2.049-.419c-1.19-.222-1.564-.443-1.564-.886,0-.574.574-.926,1.631-.926,1.145,0,1.994.308,2.216,1.367h2.4c-.131-1.994-1.564-3.31-4.471-3.31-2.513,0-4.276,1.037-4.276,3.046,0,1.389.97,2.293,3.064,2.734l2.291.53c.9.177,1.145.421,1.145.8,0,.6-.682.97-1.786.97-1.387,0-2.18-.308-2.488-1.367h-2.415C281.909,70.077,283.385,71.4,286.383,71.4Zm-5.523-.242h-2.6a2.283,2.283,0,0,1-2.535-2.3V63.789H273.9V61.627h1.837V58.912h2.415v2.714h2.71v2.162h-2.71v4.456c0,.507.352.751.9.751h1.806Zm-10.413-9.527v.86a4.688,4.688,0,0,0-3.042-1.108,5.009,5.009,0,1,0,0,10.018,4.675,4.675,0,0,0,3.042-1.109v.862h2.408V61.627ZM267.6,69.308a2.914,2.914,0,1,1,2.88-2.911A2.88,2.88,0,0,1,267.6,69.3Z" transform="translate(-209.309 -58.25)" fill="#5fb709"/>
</svg>
