<svg id="Groupe_4004" data-name="Groupe 4004" xmlns="http://www.w3.org/2000/svg" width="77.653" height="194.826" viewBox="0 0 77.653 194.826">
  <path id="Tracé_4287" data-name="Tracé 4287" d="M1940.014,821.435c-.163-3.308-.363-7.651-.582-11.976-.109-2.254-.254-4.507-.382-6.742-.182-3.18-.345-6.343-.6-9.523a72.611,72.611,0,0,0-1.836-12.031c-.291-1.109-.691-2.2-1.072-3.289a6.477,6.477,0,0,0-2.762-3.38c-1.545-.981-3.053-2.017-4.543-3.071a72.009,72.009,0,0,1-6.488-5.034,39.127,39.127,0,0,1-9.741-13.885,78.865,78.865,0,0,1-4.271-13.412c-1.145-5.052-2.017-10.159-2.653-15.3-.4-3.271-.691-6.542-.872-9.832-.2-3.471-.363-6.924-.291-10.4.109-4.4.255-8.778.473-13.176.164-3.489.618-6.942,1.072-10.4.273-2.072.473-4.18.745-6.252.164-1.254.418-2.508.618-3.762.073-.491.164-.981.2-1.49a1.732,1.732,0,0,1,1.327-1.69,47.183,47.183,0,0,1,7.942-1.708c2.435-.273,4.87-.345,7.324-.454,3.235-.127,6.452-.4,9.668-.781,2.435-.291,4.871-.509,7.306-.727q3.653-.354,7.306-.654c2.145-.182,4.307-.345,6.452-.491q5.316-.327,10.631-.291c2.381.018,4.78.055,7.16.164a19.494,19.494,0,0,1,5.67,1.018,9.275,9.275,0,0,1,1.781.818,4.8,4.8,0,0,1,1.254,1.09,2.942,2.942,0,0,1,.363,3.308,2.44,2.44,0,0,0-.254.691c-.2,1.381-.327,2.744-.545,4.125a24.167,24.167,0,0,0-.164,5.252c.109,1.8.254,3.617.4,5.416.145,1.817.382,3.635.491,5.47.145,2.145.309,4.307.309,6.47q0,11.313-.145,22.608c-.073,5.034-.473,10.05-.963,15.048A76.94,76.94,0,0,1,1978.014,746a45.973,45.973,0,0,1-3.871,9.5,55.558,55.558,0,0,1-3.58,6,38.583,38.583,0,0,1-7.687,7.8,30.346,30.346,0,0,1-3.926,2.653c-1.763,1.018-3.526,2.054-5.307,3.071-.618.364-1.236.691-1.872,1.018a.856.856,0,0,0-.509.872c.073,1.636.073,3.271.218,4.907.291,3.2.6,6.4.981,9.6.636,5.107.836,10.25,1.054,15.393.164,4,.436,8,.981,11.976.363,2.581.691,5.161,1.072,7.724.164,1.054.418,2.108.691,3.162.236.909.309.927,1.218,1a15.423,15.423,0,0,1,3.526.618,19.649,19.649,0,0,1,2.435.909,31.083,31.083,0,0,1,5.761,3.508c1.272,1,2.526,2.017,3.762,3.071a9.255,9.255,0,0,1,2.98,4.707,5.39,5.39,0,0,1,.091,2.581,9.882,9.882,0,0,1-.963,2.653,6.118,6.118,0,0,1-2.126,2.235,16.282,16.282,0,0,1-4.816,2.035c-1.545.418-3.108.763-4.671,1.09-2.036.436-4.089.8-6.106,1.236a53.957,53.957,0,0,1-7.033.909,71.883,71.883,0,0,1-9.069.236,57.171,57.171,0,0,1-13.358-1.854,29.6,29.6,0,0,1-4.453-1.617,9.19,9.19,0,0,1-2.417-1.563,3.708,3.708,0,0,1-.872-4.761,8.979,8.979,0,0,1,2.054-2.617,21.416,21.416,0,0,1,4.144-2.944c1.981-1.072,4-2.09,5.979-3.126l2.617-1.363c1.308-.709,2.581-1.472,3.925-2.108a1.78,1.78,0,0,0,1.145-1.89c-.055-1.218,0-2.435,0-3.635,0-2.217,0-4.362,0-7.542Zm-30.6-147.733c-.018.145-.055.254-.073.382-.436,3.762-.872,7.542-1.29,11.3q-.573,5.234-.781,10.486c-.073,1.854-.109,3.689-.164,5.543-.164,4.889,0,9.8.309,14.666.236,3.762.672,7.524,1.218,11.249.636,4.362,1.4,8.705,2.453,12.994a64.729,64.729,0,0,0,4.144,12.1,36.453,36.453,0,0,0,8.959,12.14c1.89,1.654,3.907,3.144,5.943,4.6,1.563,1.109,3.18,2.181,4.761,3.271a8.262,8.262,0,0,1,3.162,4.035c.327.891.636,1.781.891,2.69a64.069,64.069,0,0,1,1.545,7.869c.527,3.526.872,7.07,1.109,10.632.145,2.09.273,4.2.4,6.288.182,2.744.364,5.488.509,8.251.127,2.417.236,4.852.291,7.269.091,4.4.127,8.778.164,13.176a7.135,7.135,0,0,1-.145,1.381,4.049,4.049,0,0,1-2.126,2.817c-1.4.763-2.8,1.563-4.2,2.308-1.127.618-2.272,1.218-3.435,1.781a69.1,69.1,0,0,0-6.6,3.471,12.925,12.925,0,0,0-2.672,2.09,7.384,7.384,0,0,0-1,1.345.947.947,0,0,0,.218,1.345,3.361,3.361,0,0,0,.763.6,18.515,18.515,0,0,0,1.69.872,28.254,28.254,0,0,0,6.433,1.817c2.145.327,4.307.618,6.47.781,2.126.164,4.271.2,6.415.164,2.235-.036,4.471-.218,6.688-.4,1.308-.109,2.6-.273,3.889-.509,2.381-.436,4.761-.963,7.142-1.4a46.685,46.685,0,0,0,5.707-1.4,14.681,14.681,0,0,0,2.817-1.181,3.3,3.3,0,0,0,1.381-1.436,12.112,12.112,0,0,0,.563-1.327,2.609,2.609,0,0,0-.036-1.817,6.481,6.481,0,0,0-2.054-2.944c-1.545-1.236-3.089-2.49-4.689-3.671a33.823,33.823,0,0,0-3.071-1.963,14.2,14.2,0,0,0-6.179-1.963,3.387,3.387,0,0,1-3.271-2.544,30.327,30.327,0,0,1-.891-3.58c-.382-2.254-.709-4.525-1-6.8-.309-2.381-.636-4.78-.818-7.179-.254-3.4-.4-6.815-.6-10.214-.145-2.4-.291-4.816-.527-7.2-.291-2.871-.654-5.743-1.018-8.6a103.376,103.376,0,0,1-.727-10.6,3.544,3.544,0,0,1,1.472-3.108,3.966,3.966,0,0,1,.563-.4c1.963-1.218,3.889-2.508,5.888-3.653a34.831,34.831,0,0,0,5.452-3.871,32.269,32.269,0,0,0,6.306-7.033,55.414,55.414,0,0,0,5-9.814,58.3,58.3,0,0,0,3.108-12.776c.6-4.144.945-8.305,1.145-12.485q.273-5.834.345-11.667c.073-5.27.055-10.559.073-15.829.018-2.871-.109-5.743-.309-8.6-.218-2.835-.473-5.688-.473-8.542a32.741,32.741,0,0,1,.4-6.106c.109-.563.2-1.127.309-1.745-.236.055-.4.109-.563.145-.745.218-1.472.454-2.217.654a136.555,136.555,0,0,1-21.808,3.962,107.939,107.939,0,0,1-13.049.563c-4.162-.091-8.323-.236-12.485-.327-3.544-.091-7.088-.182-10.613-.6a22.658,22.658,0,0,1-7.088-1.745c.018-.018-.036-.018-.127-.036Zm.891-4.289a2.571,2.571,0,0,0,2.054,3.071,59.378,59.378,0,0,0,7.815.654c3.944.127,7.887.182,11.849.273,2.835.073,5.652.164,8.487.218a101.1,101.1,0,0,0,11.013-.491c1.836-.164,3.671-.363,5.507-.618,2.272-.327,4.525-.709,6.779-1.09a101.6,101.6,0,0,0,10.4-2.2c.963-.273,1.926-.563,2.871-.891a3.173,3.173,0,0,0,1.526-1.09c.364-.509.364-.781-.182-1.072a9.3,9.3,0,0,0-1.69-.727,22.252,22.252,0,0,0-5.47-.818c-2.108-.109-4.216-.109-6.343-.036-3.78.127-7.542.218-11.3.509-2.054.145-4.107.327-6.161.509-2.272.2-4.525.418-6.779.636-2.344.236-4.671.454-7.015.745-2.89.363-5.779.618-8.687.745-2.871.127-5.743.127-8.6.473a33.835,33.835,0,0,0-6.07,1.2Z" transform="translate(-1903.903 -661.688)" fill="#083f2c"/>
  <path id="Tracé_4288" data-name="Tracé 4288" d="M1944.631,890.779a29.348,29.348,0,0,1,5.343.473c2.944.454,5.906.891,8.869,1.163,3.108.273,6.215.509,9.341.509,1.69,0,3.38-.127,5.07-.273,4.78-.4,9.5-1.236,14.248-1.981a53.805,53.805,0,0,1,9.032-.781,14.352,14.352,0,0,1,2.8.309,3.076,3.076,0,0,1,2.544,3.09,37.611,37.611,0,0,1-.4,6.851c-.527,3.617-1.109,7.233-1.672,10.85-.763,4.852-1.654,9.668-2.853,14.448-.6,2.435-1.09,4.889-1.817,7.288a40.571,40.571,0,0,1-7.269,13.757,17.381,17.381,0,0,1-3.962,3.6,25.748,25.748,0,0,1-6.452,3.2,15.751,15.751,0,0,1-10.977-.472,23.142,23.142,0,0,1-9.123-6.506c-1.345-1.617-2.635-3.271-3.907-4.943a23.062,23.062,0,0,1-3.053-5.416c-1.236-3.053-2.581-6.07-3.671-9.159a138.77,138.77,0,0,1-4.671-16.429c-.854-4.053-1.617-8.124-2.254-12.213a12.612,12.612,0,0,1-.054-4.6,4.876,4.876,0,0,1,.254-.836,2.776,2.776,0,0,1,2.69-1.908c.672-.018,1.308-.018,1.945-.018Z" transform="translate(-1933.074 -848.414)" fill="#ec1c23"/>
  <path id="Tracé_4289" data-name="Tracé 4289" d="M2086.412,1665.788c-1.308-.146-2.617-.218-3.889-.454a14.28,14.28,0,0,1-6.452-3.071,4.672,4.672,0,0,1-.8-.891.537.537,0,0,1-.018-.745c.218-.218.454-.109.691-.018,1.527.6,3.035,1.218,4.58,1.763a15.968,15.968,0,0,0,5.234.781,37.053,37.053,0,0,0,8.487-.836c1.036-.218,2.072-.4,3.126-.582a1.41,1.41,0,0,1,.291-.036,1,1,0,0,1,1.163.727,1.1,1.1,0,0,1-.382,1.381,3.853,3.853,0,0,1-1.127.563,20.432,20.432,0,0,1-2.926.618c-2.344.273-4.707.454-7.07.672-.291.018-.582,0-.872,0a.2.2,0,0,0-.036.127Z" transform="translate(-2043.996 -1478.98)" fill="#083f2c"/>
</svg>
