<svg xmlns="http://www.w3.org/2000/svg" width="67.066" height="64.902" viewBox="0 0 67.066 64.902">
  <g id="Groupe_4006" data-name="Groupe 4006" transform="translate(0 0)">
    <path id="Tracé_4304" data-name="Tracé 4304" d="M3123.861,3272.5c1.233.064,2.862.129,4.491.23,1.4.083,2.789.175,4.188.285a49.034,49.034,0,0,1,7.123,1.031,20.794,20.794,0,0,1,9.912,5.393,45.735,45.735,0,0,1,7.463,9.351,36.392,36.392,0,0,1,2.632,5.126,20.938,20.938,0,0,1,1.307,4.786,27.48,27.48,0,0,1,.239,4.841,44.079,44.079,0,0,1-1.077,8.725,26.793,26.793,0,0,1-2.218,5.954,50.567,50.567,0,0,1-3.562,5.908,27.945,27.945,0,0,1-4.528,4.915,32.588,32.588,0,0,1-11.6,6.442,34.549,34.549,0,0,1-6.46,1.473c-1.049.138-2.108.239-3.166.313-.976.073-1.96.12-2.945.12a20.9,20.9,0,0,1-7.326-1.252,66.483,66.483,0,0,1-9.406-4.169,23.051,23.051,0,0,1-6.368-5.126c-.948-1.1-1.877-2.209-2.742-3.368a22.976,22.976,0,0,1-3.12-6.093,48.059,48.059,0,0,1-1.785-6.69,35.75,35.75,0,0,1-.635-4.417,32.8,32.8,0,0,1-.046-4.556c.064-1.058.157-2.117.267-3.175a22.361,22.361,0,0,1,2.825-8.863,42.448,42.448,0,0,1,4.381-6.157c.828-.985,1.657-1.979,2.577-2.89a39.978,39.978,0,0,1,5.513-4.528,21.322,21.322,0,0,1,1.859-1.132,20.578,20.578,0,0,1,6.12-2.08,29.99,29.99,0,0,1,6.093-.4Zm22.032,11.559c-.027-.506-.037-1.012-.083-1.519a19.828,19.828,0,0,0-.957-4.5.814.814,0,0,0-.423-.5,20.078,20.078,0,0,0-6.571-2.2c-1.123-.184-2.255-.322-3.4-.442-.92-.092-.607-.212-1.362.341-1.141.837-2.264,1.711-3.368,2.6a15.456,15.456,0,0,0-3.083,3.212c-.718,1.031-1.371,2.117-2.062,3.166a.584.584,0,0,0-.064.479c.313,1.371.654,2.742.92,4.123.341,1.73.635,3.47.939,5.209a.786.786,0,0,0,.184.4,5.9,5.9,0,0,0,1.242,1.15,15.9,15.9,0,0,0,4.657,2.282c1.049.3,2.089.626,3.129.938.212.064.433.083.635.138a.448.448,0,0,0,.433-.12c.736-.589,1.463-1.187,2.208-1.758,1.4-1.086,2.816-2.172,4.225-3.249a1.141,1.141,0,0,0,.368-.46c.175-.377.359-.754.543-1.123a17.279,17.279,0,0,0,1.169-2.954,22.26,22.26,0,0,0,.718-5.218Zm13.74,17.845c-.009-.34-.046-.883-.046-1.436a.789.789,0,0,0-.3-.644,2.029,2.029,0,0,0-.156-.138c-.755-.525-1.482-1.114-2.283-1.564a27.208,27.208,0,0,0-7.068-2.844c-1.546-.368-3.111-.607-4.675-.9a.458.458,0,0,0-.4.1c-1.564,1.316-3.2,2.54-4.859,3.736-.754.543-1.5,1.114-2.245,1.666a.528.528,0,0,0-.276.515,1.8,1.8,0,0,1-.046.442c-.129.773-.285,1.546-.368,2.319-.11.966-.184,1.933-.212,2.908a15.917,15.917,0,0,0,.083,2.292c.083.773.267,1.546.4,2.319a.34.34,0,0,0,.239.267c.709.313,1.417.626,2.117.948,2.08.939,4.15,1.887,6.23,2.835a.749.749,0,0,0,.285.055c1.325-.064,2.66-.055,3.985-.23a14.688,14.688,0,0,0,2.743-.515,20.064,20.064,0,0,0,5.568-2.9.6.6,0,0,0,.239-.386c.285-1.215.506-2.448.672-3.69a42.825,42.825,0,0,0,.386-5.154Zm-52.31-21.636c-.166-.055-.258.064-.359.147a44.338,44.338,0,0,0-4.049,3.948c-.212.221-.377.488-.571.727a.508.508,0,0,0-.12.414c.037.3.046.617.074.92.064.746.11,1.481.193,2.227.156,1.417.331,2.834.515,4.252a16.572,16.572,0,0,0,.534,2.77,4.556,4.556,0,0,0,1.666,2.439,8.379,8.379,0,0,0,1.693.985c.571.249,1.15.488,1.712.755a21.557,21.557,0,0,0,2.816,1.049,29.387,29.387,0,0,1,4.362,1.583.31.31,0,0,0,.221.018,4.467,4.467,0,0,0,1.427-.847c.791-.764,1.574-1.537,2.337-2.337a33.066,33.066,0,0,0,3.037-3.663,9.354,9.354,0,0,1,1.4-1.62.315.315,0,0,0,.092-.35c-.276-1.915-.534-3.829-.819-5.743-.147-1.012-.332-2.016-.5-3.028a.437.437,0,0,0-.267-.35,11.735,11.735,0,0,0-2.31-.948c-1.408-.451-2.825-.874-4.243-1.279-1.767-.515-3.525-1.086-5.328-1.491a21.414,21.414,0,0,0-3.516-.58Zm-3.58,18.811c-.156.11-.3.23-.46.331a9.811,9.811,0,0,0-1.509,1.252,29.264,29.264,0,0,0-5.586,7.878.585.585,0,0,0-.055.4c.211.93.4,1.859.625,2.789a40.191,40.191,0,0,0,1.666,5.43c.11.276.23.552.34.828.221.037.433.055.635.092,1.841.331,3.69.644,5.55.883a14.327,14.327,0,0,0,3.2.055,13.6,13.6,0,0,1,2.669-.193.3.3,0,0,0,.221-.1c.35-.4.7-.782,1.031-1.2.6-.736,1.2-1.482,1.776-2.246.607-.792,1.206-1.6,1.8-2.4a7.973,7.973,0,0,0,1.206-2.8,4.173,4.173,0,0,0,.064-1.656,6.011,6.011,0,0,0-3.405-4.684c-.451-.23-.893-.469-1.325-.727a3.9,3.9,0,0,0-.893-.4,21.547,21.547,0,0,1-2.982-1.022c-.754-.341-1.528-.672-2.292-1a7.783,7.783,0,0,1-2.117-1.362l-.166-.138Zm35.441,33.407h.92a1.451,1.451,0,0,0,.681-.184c.5-.249,1-.488,1.491-.746a25.37,25.37,0,0,0,3.7-2.264.619.619,0,0,0,.23-.258c.294-.755.626-1.509.847-2.282a12.032,12.032,0,0,0,.037-6.727,10.257,10.257,0,0,0-1.611-3.46,1.128,1.128,0,0,0-.423-.359c-.423-.2-.837-.414-1.261-.607-2.181-.994-4.381-1.97-6.5-3.1q-.3-.166-.607-.3a.638.638,0,0,0-.248-.074,4.3,4.3,0,0,0-1.859.341c-.377.184-.754.35-1.114.552a26.448,26.448,0,0,0-2.7,1.8,3.358,3.358,0,0,0-1.067,1.537,6.782,6.782,0,0,0-.3,1.022,2.624,2.624,0,0,0-.12.791c.074.746.156,1.5.295,2.237.479,2.669.828,5.347,1.1,8.043a.8.8,0,0,0,.239.525,16.9,16.9,0,0,0,2.678,2.255,5.665,5.665,0,0,0,2.062.9,15.311,15.311,0,0,0,3.534.359Zm-20.845-20.67c-.083.138-.147.23-.2.322a26.571,26.571,0,0,1-2.025,3.12c-.5.626-.975,1.252-1.491,1.859-.837.985-1.693,1.951-2.549,2.917a.839.839,0,0,0-.221.617,26.955,26.955,0,0,0,.258,3.23,40.653,40.653,0,0,0,.727,4.463,18.582,18.582,0,0,0,.7,2.641c.175.433.35.865.5,1.307a.47.47,0,0,0,.285.3c1.114.451,2.218.92,3.341,1.353.617.239,1.261.423,1.887.644a.925.925,0,0,0,.524.018c.3-.083.617-.138.92-.23a10.831,10.831,0,0,0,3.782-1.749c.552-.433,1.123-.856,1.657-1.316a12.76,12.76,0,0,0,2.356-2.669.682.682,0,0,0,.12-.479c-.037-.562-.046-1.132-.083-1.693-.055-.874-.12-1.739-.193-2.614-.1-1.178-.221-2.347-.341-3.525-.046-.432-.073-.865-.138-1.3a6.873,6.873,0,0,0-.506-1.62,3.774,3.774,0,0,0-1.528-1.85c-.718-.451-1.445-.9-2.19-1.316-1.454-.8-3-1.4-4.519-2.071a5.829,5.829,0,0,0-1.067-.368Z" transform="translate(-3094.168 -3272.487)" fill="#083f2c"/>
    <path id="Tracé_4305" data-name="Tracé 4305" d="M3445.123,3306.948a22.061,22.061,0,0,1-.718,5.209,16.747,16.747,0,0,1-1.169,2.955c-.184.377-.368.745-.543,1.123a1.189,1.189,0,0,1-.368.46c-1.408,1.086-2.816,2.163-4.224,3.249-.746.58-1.482,1.169-2.209,1.758a.448.448,0,0,1-.432.12c-.212-.055-.433-.074-.635-.138-1.049-.313-2.089-.635-3.129-.939a16,16,0,0,1-4.657-2.282,5.9,5.9,0,0,1-1.242-1.15.79.79,0,0,1-.184-.4c-.3-1.739-.6-3.479-.939-5.209-.276-1.381-.607-2.752-.92-4.123a.551.551,0,0,1,.064-.479c.69-1.059,1.344-2.135,2.062-3.166a15.457,15.457,0,0,1,3.083-3.212c1.1-.883,2.227-1.758,3.368-2.6.755-.552.451-.442,1.362-.341q1.7.179,3.4.442a20.3,20.3,0,0,1,6.571,2.2.842.842,0,0,1,.423.5,20.3,20.3,0,0,1,.957,4.5c.046.515.055,1.022.083,1.528Z" transform="translate(-3393.398 -3295.379)" fill="#fff"/>
    <path id="Tracé_4306" data-name="Tracé 4306" d="M3579.041,3517.418a46.074,46.074,0,0,1-.387,5.126c-.166,1.242-.386,2.466-.672,3.69a.6.6,0,0,1-.239.386,19.7,19.7,0,0,1-5.568,2.9,14.686,14.686,0,0,1-2.742.515c-1.325.175-2.651.166-3.985.23a.514.514,0,0,1-.285-.055c-2.08-.939-4.15-1.887-6.23-2.834-.709-.322-1.408-.635-2.117-.948-.12-.055-.212-.1-.239-.267-.129-.773-.313-1.537-.4-2.319a15.829,15.829,0,0,1-.083-2.292c.027-.966.11-1.942.211-2.908.083-.773.249-1.546.368-2.319a1.791,1.791,0,0,0,.046-.442.546.546,0,0,1,.276-.515c.754-.552,1.491-1.123,2.246-1.666,1.656-1.2,3.3-2.411,4.859-3.736a.427.427,0,0,1,.405-.1c1.555.294,3.129.534,4.675.9a27.086,27.086,0,0,1,7.068,2.844c.8.451,1.518,1.04,2.282,1.565a2.031,2.031,0,0,1,.156.138.817.817,0,0,1,.3.645c0,.58.037,1.123.046,1.463Z" transform="translate(-3513.576 -3488.003)" fill="#fff"/>
    <path id="Tracé_4307" data-name="Tracé 4307" d="M3186.844,3356.861a21.8,21.8,0,0,1,3.525.571c1.8.4,3.552.975,5.329,1.491,1.417.414,2.835.828,4.243,1.279a11.726,11.726,0,0,1,2.31.948.466.466,0,0,1,.267.35c.166,1.012.35,2.015.5,3.028.285,1.914.543,3.828.819,5.743a.341.341,0,0,1-.092.35,9.031,9.031,0,0,0-1.4,1.62,32.23,32.23,0,0,1-3.037,3.663c-.764.792-1.546,1.565-2.337,2.338a4.66,4.66,0,0,1-1.427.847.267.267,0,0,1-.221-.019,30.5,30.5,0,0,0-4.362-1.583,22.027,22.027,0,0,1-2.816-1.049c-.571-.267-1.141-.506-1.712-.755a8.391,8.391,0,0,1-1.693-.985,4.694,4.694,0,0,1-1.666-2.439,15.838,15.838,0,0,1-.534-2.77c-.184-1.417-.359-2.834-.515-4.251-.083-.736-.129-1.482-.193-2.227-.028-.3-.037-.616-.074-.92a.528.528,0,0,1,.12-.414c.193-.24.359-.5.571-.727a45.557,45.557,0,0,1,4.049-3.948c.092-.074.193-.193.35-.138Z" transform="translate(-3173.69 -3349.083)" fill="#fff"/>
    <path id="Tracé_4308" data-name="Tracé 4308" d="M3122.948,3561.4l.166.138a8.16,8.16,0,0,0,2.117,1.362c.764.341,1.528.662,2.292,1a21.142,21.142,0,0,0,2.982,1.021,3.54,3.54,0,0,1,.893.4c.433.258.874.5,1.325.727a6,6,0,0,1,3.405,4.685,4.176,4.176,0,0,1-.064,1.656,7.97,7.97,0,0,1-1.206,2.8c-.6.81-1.2,1.611-1.8,2.4-.58.755-1.178,1.5-1.776,2.245-.331.405-.681.8-1.031,1.2a.325.325,0,0,1-.221.1,13.653,13.653,0,0,0-2.669.193,14.371,14.371,0,0,1-3.2-.055c-1.859-.24-3.709-.552-5.549-.884-.2-.037-.414-.064-.635-.092-.111-.276-.23-.552-.341-.828a41.566,41.566,0,0,1-1.666-5.43c-.23-.92-.414-1.859-.626-2.789a.536.536,0,0,1,.055-.4,29.259,29.259,0,0,1,5.586-7.878,9.821,9.821,0,0,1,1.51-1.251c.147-.1.294-.221.46-.332Z" transform="translate(-3113.374 -3534.811)" fill="#fff"/>
    <path id="Tracé_4309" data-name="Tracé 4309" d="M3485.73,3723.648a16.1,16.1,0,0,1-3.516-.341,5.737,5.737,0,0,1-2.062-.9,17.478,17.478,0,0,1-2.678-2.255.8.8,0,0,1-.239-.525c-.267-2.7-.616-5.384-1.1-8.043-.129-.736-.221-1.491-.294-2.236a2.371,2.371,0,0,1,.12-.792,6.274,6.274,0,0,1,.3-1.021,3.27,3.27,0,0,1,1.068-1.537,26.537,26.537,0,0,1,2.7-1.8c.359-.2.746-.377,1.114-.552a4.422,4.422,0,0,1,1.859-.34.6.6,0,0,1,.249.074c.2.1.414.2.607.3,2.117,1.132,4.316,2.107,6.5,3.1.424.193.838.405,1.261.607a1.135,1.135,0,0,1,.424.359,10.435,10.435,0,0,1,1.61,3.46,12.034,12.034,0,0,1-.037,6.727c-.221.782-.552,1.528-.847,2.282a.678.678,0,0,1-.23.258,25.315,25.315,0,0,1-3.7,2.264c-.5.258-.994.488-1.491.745a1.476,1.476,0,0,1-.681.184c-.322-.018-.626-.018-.939-.018Z" transform="translate(-3440.715 -3663.652)" fill="#fff"/>
    <path id="Tracé_4310" data-name="Tracé 4310" d="M3293.061,3699.8c.377.12.755.2,1.1.35,1.518.672,3.064,1.27,4.519,2.071.746.414,1.473.865,2.19,1.316a3.813,3.813,0,0,1,1.528,1.85,7.042,7.042,0,0,1,.506,1.62c.055.433.092.865.138,1.3.11,1.178.239,2.347.341,3.525.073.865.138,1.74.193,2.614.037.562.055,1.132.083,1.693a.794.794,0,0,1-.12.479,12.754,12.754,0,0,1-2.356,2.669c-.534.46-1.1.884-1.656,1.316a10.91,10.91,0,0,1-3.782,1.749c-.3.092-.616.147-.92.23a.854.854,0,0,1-.525-.019c-.626-.212-1.27-.4-1.887-.644-1.123-.433-2.227-.9-3.341-1.353a.469.469,0,0,1-.285-.3c-.156-.442-.322-.874-.5-1.307a18.954,18.954,0,0,1-.7-2.642,40.585,40.585,0,0,1-.727-4.463,29.194,29.194,0,0,1-.258-3.23.852.852,0,0,1,.221-.616c.856-.966,1.712-1.933,2.549-2.917.515-.607.994-1.243,1.491-1.859a25.875,25.875,0,0,0,2.025-3.12,3.186,3.186,0,0,1,.175-.3Z" transform="translate(-3268.89 -3660.474)" fill="#fff"/>
  </g>
</svg>
