<svg id="Groupe_4007" data-name="Groupe 4007" xmlns="http://www.w3.org/2000/svg" width="137.208" height="130.531" viewBox="0 0 137.208 130.531">
  <path id="Tracé_4311" data-name="Tracé 4311" d="M222.819,2309.465c-.073,2.126-.091,4.234-.309,6.343a19.388,19.388,0,0,1-.945,4.4,9.254,9.254,0,0,1-2.962,4.144,16.37,16.37,0,0,1-3.108,1.981c-2.672,1.29-5.343,2.6-8.051,3.8-4.416,1.981-8.869,3.889-13.321,5.815a131.46,131.46,0,0,0-16.174,8.251,68.235,68.235,0,0,1-9.468,4.834,90.233,90.233,0,0,1-12.958,4.125c-5,1.2-10,2.344-14.975,3.6-4.253,1.072-8.487,2.308-12.74,3.4-4.271,1.091-8.56,2.108-12.849,3.144a16.4,16.4,0,0,1-4.889.509,5.263,5.263,0,0,1-4.525-2.562,36.8,36.8,0,0,1-1.981-3.744,76.564,76.564,0,0,0-5.016-9.5c-.509-.8-.945-1.617-1.4-2.453a57.84,57.84,0,0,1-4.107-10.086c-.909-2.871-1.726-5.8-2.672-8.651-1.109-3.326-2.308-6.633-3.453-9.941q-.545-1.581-.981-3.217a9.033,9.033,0,0,1,.654-6.488,24.644,24.644,0,0,1,3.289-4.907,53.074,53.074,0,0,1,5.925-6.033q8.532-7.5,16.756-15.3c4.652-4.434,9.487-8.687,14.393-12.83a43.729,43.729,0,0,1,12.958-7.706,59.383,59.383,0,0,0,8.16-3.8,5.5,5.5,0,0,0,1.054-.745,67.581,67.581,0,0,0,7.378-7.578,50.12,50.12,0,0,1,8-7.706,41.378,41.378,0,0,1,11.068-6.343,12,12,0,0,1,4.489-.909c1.109.018,2.2.054,3.308.109.945.036,1.89.073,2.817.163a13.758,13.758,0,0,1,4.471,1.072,12.248,12.248,0,0,1,3.526,2.4,26.789,26.789,0,0,1,4,4.925c1.109,1.781,2.344,3.471,3.6,5.161a81.565,81.565,0,0,1,8.614,13.667,117.934,117.934,0,0,1,6,14.357c1.872,5.8,3.489,11.686,4.78,17.646a62.939,62.939,0,0,1,1.272,9.014c.145,2.544.254,5.107.382,7.651Zm-133.412.509a4.894,4.894,0,0,0-.018,1.781,16.755,16.755,0,0,0,.981,3.38c.963,2.526,2,5.016,2.853,7.56,1.163,3.4,2.2,6.851,3.271,10.286a59.124,59.124,0,0,0,6.306,14.248,66.6,66.6,0,0,1,4.125,7.706c.527,1.127,1.127,2.235,1.672,3.344a2.068,2.068,0,0,0,2.435,1.236c.945-.146,1.908-.236,2.835-.455,3.816-.908,7.633-1.835,11.431-2.817,4.634-1.218,9.232-2.544,13.885-3.726,5.034-1.29,10.086-2.471,15.12-3.707a88.249,88.249,0,0,0,10.922-3.38,68.878,68.878,0,0,0,10.868-5.416,148.965,148.965,0,0,1,18.464-9.141c5.943-2.526,11.849-5.125,17.756-7.724a28.277,28.277,0,0,0,3.108-1.654,5.2,5.2,0,0,0,2.29-3q.191-.572.327-1.145a26.924,26.924,0,0,0,.545-5.4,90.984,90.984,0,0,0-.363-11.122c-.182-1.854-.418-3.708-.691-5.543-.4-2.708-1.054-5.361-1.672-8.015a112.454,112.454,0,0,0-7.16-21.7,84.555,84.555,0,0,0-3.925-7.8,5.277,5.277,0,0,0-.345-.527c-.327.218-.6.418-.891.618-1.163.8-2.326,1.581-3.471,2.417a28.889,28.889,0,0,1-3.235,2.09c-1.69.945-3.4,1.854-5.016,2.926a96.611,96.611,0,0,1-9.487,5.488c-3.907,2-7.833,3.98-11.922,5.616-2.326.945-4.689,1.835-7.033,2.708a86.65,86.65,0,0,0-10.813,5.143c-4.271,2.308-8.523,4.616-12.794,6.906a45.048,45.048,0,0,1-10.214,4.071q-5.261,1.336-10.522,2.617a52.606,52.606,0,0,0-7.6,2.2c-1.781.709-3.526,1.508-5.289,2.271-3.889,1.654-7.706,3.4-11.413,5.416a18.683,18.683,0,0,1-5.325,2.235Zm1.617-3.4a.482.482,0,0,1,.091.109c.654-.345,1.308-.691,1.945-1.072a82.136,82.136,0,0,1,8.2-4.344c2.653-1.163,5.27-2.363,7.924-3.562a36.221,36.221,0,0,1,5.179-1.908c4.016-1.127,8.033-2.272,12.067-3.362a48.681,48.681,0,0,0,11.995-4.943c3.816-2.235,7.706-4.4,11.522-6.633a91.048,91.048,0,0,1,15.011-7.179,67.136,67.136,0,0,0,7.76-3.217c3.144-1.581,6.306-3.144,9.432-4.78,1.854-.963,3.689-2,5.47-3.108,2.09-1.308,4.216-2.544,6.4-3.671a30.267,30.267,0,0,0,3.762-2.253,15.783,15.783,0,0,1,3.8-2.09,1.89,1.89,0,0,0,.781-.6c-.509-.727-.981-1.454-1.508-2.163-2.29-3.071-4.616-6.125-6.633-9.4a16.773,16.773,0,0,0-2.8-3.308,7.719,7.719,0,0,0-4.144-2.126c-1.163-.2-2.326-.254-3.507-.382-.345-.036-.691-.036-1.018-.091a13.672,13.672,0,0,0-6.724.709c-.981.382-1.945.763-2.908,1.181a5.29,5.29,0,0,0-1.127.636c-2.235,1.636-4.453,3.308-6.67,4.961a36.383,36.383,0,0,0-6.343,6.052c-1.381,1.672-2.8,3.326-4.216,4.98a22.01,22.01,0,0,1-5.161,4.362,56.676,56.676,0,0,1-8.505,4.325,41.561,41.561,0,0,0-11.74,7.215c-4.834,4.252-9.723,8.469-14.393,12.885q-8.178,7.715-16.7,15.029a45.552,45.552,0,0,0-6.234,6.324c-.345.509-.672.981-1,1.417Z" transform="translate(-85.61 -2233.3)" fill="#083f2c"/>
  <path id="Tracé_4312" data-name="Tracé 4312" d="M106.076,2417.9a19.879,19.879,0,0,0,5.361-2.217,119.152,119.152,0,0,1,11.413-5.416c1.763-.745,3.507-1.545,5.288-2.272a57.671,57.671,0,0,1,7.6-2.2q5.261-1.281,10.522-2.617a45.059,45.059,0,0,0,10.214-4.071c4.271-2.29,8.523-4.6,12.794-6.906a82.868,82.868,0,0,1,10.813-5.143c2.363-.872,4.707-1.763,7.033-2.708,4.089-1.635,8.015-3.616,11.922-5.615a96.562,96.562,0,0,0,9.487-5.489c1.617-1.072,3.326-1.981,5.016-2.926a37.792,37.792,0,0,0,3.235-2.09c1.145-.836,2.308-1.617,3.471-2.417.291-.2.563-.4.891-.618.109.182.236.364.345.527,1.49,2.508,2.69,5.161,3.925,7.8a114.131,114.131,0,0,1,7.16,21.7c.618,2.653,1.272,5.307,1.672,8.014.273,1.836.509,3.689.691,5.543a94.643,94.643,0,0,1,.363,11.122,26.926,26.926,0,0,1-.545,5.4q-.136.572-.327,1.145a5.2,5.2,0,0,1-2.29,3,28.2,28.2,0,0,1-3.108,1.654q-8.86,3.9-17.756,7.724a146.442,146.442,0,0,0-18.464,9.141,68.836,68.836,0,0,1-10.868,5.416,88.251,88.251,0,0,1-10.922,3.38c-5.034,1.236-10.1,2.417-15.12,3.707-4.634,1.181-9.25,2.526-13.885,3.726-3.8,1-7.615,1.908-11.431,2.817-.927.218-1.89.309-2.835.454a2.058,2.058,0,0,1-2.435-1.236c-.545-1.127-1.145-2.217-1.672-3.344a62.772,62.772,0,0,0-4.125-7.706,58.422,58.422,0,0,1-6.306-14.248c-1.072-3.435-2.108-6.888-3.271-10.286-.872-2.544-1.908-5.034-2.853-7.56a17.107,17.107,0,0,1-.981-3.38,4.01,4.01,0,0,1-.018-1.8Zm30.15,10.813a6.053,6.053,0,0,0-1.472-4.089,26.521,26.521,0,0,0-2.144-2.145,4.2,4.2,0,0,0-1.545-.872,3.667,3.667,0,0,0-4.071,1.254,5.48,5.48,0,0,0-.672,1.345,11.254,11.254,0,0,0-.345,3.653,6.346,6.346,0,0,0,1.49,3.6,5.137,5.137,0,0,0,3.78,2.2,4.031,4.031,0,0,0,4.071-1.854,5.389,5.389,0,0,0,.909-3.09Zm80.254-17.356c0-.327.018-.654,0-.981a4.233,4.233,0,0,0-1.508-3.017,3.486,3.486,0,0,0-2.944-.727,4.718,4.718,0,0,0-3.453,2.254,6.429,6.429,0,0,0-.891,2.762c-.073.691-.182,1.4-.291,2.09a6.289,6.289,0,0,0-.018,2.472,3.578,3.578,0,0,0,2.653,2.98,3.741,3.741,0,0,0,3.144-.6,7.455,7.455,0,0,0,2.017-2.181,9.611,9.611,0,0,0,1.29-5.052Zm-41.417-2.871a6.209,6.209,0,0,0,1.617,4.452,3.554,3.554,0,0,0,5.216.146,4.911,4.911,0,0,0,1.545-3.58,10.124,10.124,0,0,0-1.872-6.07,3.078,3.078,0,0,0-3.544-1.327A4.1,4.1,0,0,0,174.9,2407a3.311,3.311,0,0,1,.164,1.49Zm-9.85,35.148a6.446,6.446,0,0,0-1.418-3.762,9.765,9.765,0,0,0-3.453-2.744,3.246,3.246,0,0,0-1.945-.291,2.507,2.507,0,0,0-2.217,1.854,4.368,4.368,0,0,0,.036,2.726,17.331,17.331,0,0,0,2.163,4.344,4.418,4.418,0,0,0,2.09,1.672,3.2,3.2,0,0,0,3.653-.89,4.376,4.376,0,0,0,1.09-2.908Z" transform="translate(-102.28 -2341.229)" fill="#e0ac25"/>
  <path id="Tracé_4313" data-name="Tracé 4313" d="M115.4,2320.705c.327-.454.654-.909,1-1.345a44.579,44.579,0,0,1,6.234-6.324q8.505-7.333,16.7-15.03c4.689-4.416,9.559-8.632,14.393-12.885a41.063,41.063,0,0,1,11.74-7.215,60.328,60.328,0,0,0,8.505-4.325,22,22,0,0,0,5.161-4.362c1.418-1.654,2.835-3.289,4.216-4.979a36.375,36.375,0,0,1,6.343-6.052q3.326-2.481,6.67-4.961a5.289,5.289,0,0,1,1.127-.636c.963-.418,1.926-.8,2.908-1.181a13.653,13.653,0,0,1,6.724-.709c.345.036.691.055,1.018.091,1.163.109,2.344.182,3.507.382a7.782,7.782,0,0,1,4.144,2.126,18,18,0,0,1,2.8,3.308c2.017,3.271,4.343,6.324,6.633,9.4.527.69,1,1.417,1.508,2.163a1.889,1.889,0,0,1-.781.6,16.135,16.135,0,0,0-3.8,2.09,34.307,34.307,0,0,1-3.762,2.253c-2.181,1.145-4.307,2.381-6.4,3.671-1.781,1.109-3.617,2.145-5.47,3.108-3.126,1.635-6.288,3.2-9.432,4.78a70.438,70.438,0,0,1-7.76,3.217,90.3,90.3,0,0,0-15.011,7.178c-3.816,2.235-7.687,4.4-11.522,6.633a47.987,47.987,0,0,1-11.995,4.943c-4.035,1.072-8.051,2.217-12.067,3.362a39.192,39.192,0,0,0-5.179,1.908c-2.635,1.181-5.27,2.381-7.924,3.562a82.085,82.085,0,0,0-8.2,4.344c-.636.364-1.29.709-1.945,1.072a.28.28,0,0,0-.091-.182Zm77.983-52.5a5.6,5.6,0,0,0,1.981,4.2,3.34,3.34,0,0,0,2.072.836,4.055,4.055,0,0,0,4.035-2.781,4.875,4.875,0,0,0-.273-4.089,17.918,17.918,0,0,0-1.454-2.217,4.425,4.425,0,0,0-2.617-1.617,3.57,3.57,0,0,0-1.908.164,1.49,1.49,0,0,0-.981,1.018,10.1,10.1,0,0,0-.236,1.327,2.455,2.455,0,0,1-.109.636,6.223,6.223,0,0,0-.509,2.526ZM162.6,2287.248h-.654a1.411,1.411,0,0,0-.273.036,6.736,6.736,0,0,0-4.489,3.035,3.88,3.88,0,0,0-.691,2.363,1.769,1.769,0,0,1-.036.436,2.207,2.207,0,0,0,1.508,2.472,4.285,4.285,0,0,0,2.29.182,7.73,7.73,0,0,0,4.416-2.562,5.363,5.363,0,0,0,1.309-2.762,2.548,2.548,0,0,0-1.363-2.762,3.373,3.373,0,0,0-2.017-.436Z" transform="translate(-109.986 -2247.429)" fill="#e0ac25"/>
  <path id="Tracé_4314" data-name="Tracé 4314" d="M226.215,2681.924a5.528,5.528,0,0,1-.909,3.108,4.017,4.017,0,0,1-4.071,1.854,5.137,5.137,0,0,1-3.78-2.2,6.4,6.4,0,0,1-1.49-3.6,11.255,11.255,0,0,1,.345-3.653,5.48,5.48,0,0,1,.672-1.345,3.6,3.6,0,0,1,4.071-1.254,4.477,4.477,0,0,1,1.545.872,26.521,26.521,0,0,1,2.144,2.145,6.063,6.063,0,0,1,1.472,4.071Zm-3.162-.345a2.822,2.822,0,0,0-.363-1.545,7.747,7.747,0,0,0-2.144-2.272,1.529,1.529,0,0,0-.382-.2.733.733,0,0,0-1,.454,2.357,2.357,0,0,0-.091.8,14.122,14.122,0,0,0,.854,3.344,5.435,5.435,0,0,0,.672,1.236,1.164,1.164,0,0,0,1.908-.054,3.605,3.605,0,0,0,.545-1.763Z" transform="translate(-192.269 -2594.436)" fill="#083f2c"/>
  <path id="Tracé_4315" data-name="Tracé 4315" d="M672.405,2597.712a9.362,9.362,0,0,1-1.308,5.07,7.218,7.218,0,0,1-2.017,2.181,3.679,3.679,0,0,1-3.144.6,3.578,3.578,0,0,1-2.653-2.98,6.288,6.288,0,0,1,.018-2.472c.109-.691.218-1.381.291-2.09a6.429,6.429,0,0,1,.891-2.762,4.7,4.7,0,0,1,3.453-2.254,3.441,3.441,0,0,1,2.944.727,4.233,4.233,0,0,1,1.508,3.017,8.43,8.43,0,0,1,.018.963Zm-2.871-.127a11.281,11.281,0,0,0-.236-1.327c-.145-.491-.436-.582-.909-.473a1.978,1.978,0,0,0-1.4,1.163,11.045,11.045,0,0,0-1.054,3.562,2.475,2.475,0,0,0,.327,1.563.741.741,0,0,0,1.254.2,5,5,0,0,0,.527-.545,6.537,6.537,0,0,0,1.49-4.144Z" transform="translate(-558.204 -2527.58)" fill="#083f2c"/>
  <path id="Tracé_4316" data-name="Tracé 4316" d="M484.95,2574.05a3.7,3.7,0,0,0-.145-1.509,4.1,4.1,0,0,1,3.126-4.889,3.087,3.087,0,0,1,3.544,1.327,10.171,10.171,0,0,1,1.872,6.07,4.881,4.881,0,0,1-1.545,3.58,3.555,3.555,0,0,1-5.216-.146,6.074,6.074,0,0,1-1.636-4.434Zm3.58-3.453c-.545.164-.963.345-1.09.891a5.046,5.046,0,0,0,.309,3.344,2.654,2.654,0,0,0,1.327,1.345,4.6,4.6,0,0,0,.291-.618,2.837,2.837,0,0,0,.109-1.6c-.182-.872-.4-1.727-.636-2.581a3.31,3.31,0,0,0-.309-.781Z" transform="translate(-412.167 -2506.789)" fill="#083f2c"/>
  <path id="Tracé_4317" data-name="Tracé 4317" d="M390.328,2766.115a4.457,4.457,0,0,1-1.09,2.926,3.2,3.2,0,0,1-3.653.89,4.312,4.312,0,0,1-2.09-1.672,17.022,17.022,0,0,1-2.163-4.344,4.368,4.368,0,0,1-.036-2.726,2.481,2.481,0,0,1,2.217-1.854,3.248,3.248,0,0,1,1.945.291,9.765,9.765,0,0,1,3.453,2.744,6.346,6.346,0,0,1,1.418,3.744Zm-6.47-3.926a3.431,3.431,0,0,0,.418,1.527c.218.418.454.818.709,1.218a10.887,10.887,0,0,0,.836,1.2,3.8,3.8,0,0,0,1,1.108,5.259,5.259,0,0,0,.254-.654,2.352,2.352,0,0,0-.145-1.272,6.731,6.731,0,0,0-3.071-3.126Z" transform="translate(-327.395 -2663.707)" fill="#083f2c"/>
  <path id="Tracé_4318" data-name="Tracé 4318" d="M544.5,2321.716a6.95,6.95,0,0,1,.473-2.526,3.573,3.573,0,0,0,.109-.636,11.286,11.286,0,0,1,.236-1.327,1.527,1.527,0,0,1,.981-1.018,3.262,3.262,0,0,1,1.908-.164,4.29,4.29,0,0,1,2.617,1.617,16.046,16.046,0,0,1,1.454,2.217,4.88,4.88,0,0,1,.273,4.089,4.04,4.04,0,0,1-4.035,2.781,3.34,3.34,0,0,1-2.072-.836,5.655,5.655,0,0,1-1.945-4.2Zm3.126-3.144c-.055.091-.091.127-.091.182a11.581,11.581,0,0,0-.236,4.035.6.6,0,0,0,.127.291,5.314,5.314,0,0,0,.672.618.946.946,0,0,0,1.508-.436,2.475,2.475,0,0,0,.218-1.69,5.825,5.825,0,0,0-1.218-2.381,1.494,1.494,0,0,0-.981-.618Z" transform="translate(-461.104 -2300.943)" fill="#083f2c"/>
  <path id="Tracé_4319" data-name="Tracé 4319" d="M347.425,2452.353a3.757,3.757,0,0,1,2.035.436,2.548,2.548,0,0,1,1.363,2.762,5.431,5.431,0,0,1-1.309,2.762,7.73,7.73,0,0,1-4.416,2.563,4.456,4.456,0,0,1-2.29-.182,2.214,2.214,0,0,1-1.508-2.472,3.524,3.524,0,0,0,.036-.436,3.763,3.763,0,0,1,.691-2.362,6.735,6.735,0,0,1,4.489-3.035,1.411,1.411,0,0,1,.273-.036c.2-.018.418,0,.636,0Zm.654,2.654a4.164,4.164,0,0,0-.491-.109.869.869,0,0,0-.218,0,7.23,7.23,0,0,0-2.781,1.018,2.5,2.5,0,0,0-1.236,2c-.036.309.018.4.327.418a2.244,2.244,0,0,0,1.327-.218,18.814,18.814,0,0,0,1.745-1.091,4.108,4.108,0,0,0,1.327-2.017Z" transform="translate(-294.815 -2412.535)" fill="#083f2c"/>
  <path id="Tracé_4320" data-name="Tracé 4320" d="M237.017,2694.483a3.72,3.72,0,0,1-.545,1.763,1.164,1.164,0,0,1-1.908.055,6.262,6.262,0,0,1-.672-1.236,14.36,14.36,0,0,1-.854-3.344,1.731,1.731,0,0,1,.091-.8.746.746,0,0,1,1-.454,1.53,1.53,0,0,1,.382.2,7.747,7.747,0,0,1,2.144,2.271,2.9,2.9,0,0,1,.363,1.545Z" transform="translate(-206.233 -2607.341)" fill="#e0ac25"/>
  <path id="Tracé_4321" data-name="Tracé 4321" d="M681.931,2610.3a6.624,6.624,0,0,1-1.49,4.162,7.445,7.445,0,0,1-.527.545.741.741,0,0,1-1.254-.2,2.475,2.475,0,0,1-.327-1.563,11.043,11.043,0,0,1,1.054-3.562,2.013,2.013,0,0,1,1.4-1.163c.491-.109.763-.018.909.472a10.371,10.371,0,0,1,.236,1.309Z" transform="translate(-570.602 -2540.291)" fill="#e0ac25"/>
  <path id="Tracé_4322" data-name="Tracé 4322" d="M500.29,2584.4a5.535,5.535,0,0,1,.327.781c.218.854.454,1.708.636,2.581a3.186,3.186,0,0,1-.109,1.6c-.073.2-.182.382-.291.618a2.654,2.654,0,0,1-1.327-1.345,5.035,5.035,0,0,1-.309-3.344c.109-.545.545-.727,1.072-.891Z" transform="translate(-423.927 -2520.593)" fill="#e0ac25"/>
  <path id="Tracé_4323" data-name="Tracé 4323" d="M396.3,2775.2a6.653,6.653,0,0,1,3.053,3.108,2.192,2.192,0,0,1,.145,1.272,3.407,3.407,0,0,1-.254.654,3.581,3.581,0,0,1-1-1.109c-.309-.382-.563-.8-.836-1.2-.254-.4-.491-.8-.709-1.218a3.528,3.528,0,0,1-.4-1.509Z" transform="translate(-339.837 -2676.718)" fill="#e0ac25"/>
  <path id="Tracé_4324" data-name="Tracé 4324" d="M559.9,2330.3a1.5,1.5,0,0,1,.981.6,5.942,5.942,0,0,1,1.218,2.381,2.488,2.488,0,0,1-.218,1.69.948.948,0,0,1-1.508.436,3.626,3.626,0,0,1-.672-.618.533.533,0,0,1-.127-.291,11.579,11.579,0,0,1,.236-4.035.374.374,0,0,1,.091-.164Z" transform="translate(-473.379 -2312.672)" fill="#e0ac25"/>
  <path id="Tracé_4325" data-name="Tracé 4325" d="M357.3,2466.365a3.891,3.891,0,0,1-1.345,2,15.592,15.592,0,0,1-1.745,1.091,2.222,2.222,0,0,1-1.327.218c-.309-.018-.363-.109-.327-.418a2.592,2.592,0,0,1,1.236-2,7.234,7.234,0,0,1,2.781-1.018.44.44,0,0,1,.218,0c.164.036.291.073.509.127Z" transform="translate(-304.034 -2423.894)" fill="#e0ac25"/>
</svg>
