<svg xmlns="http://www.w3.org/2000/svg" width="62.842" height="53.769" viewBox="0 0 62.842 53.769">
  <g id="Groupe_4029" data-name="Groupe 4029" transform="translate(0 0)">
    <path id="Tracé_4273" data-name="Tracé 4273" d="M1880.479,3400.792h-.428c-1.134.022-2.261-.068-3.4-.105-.751-.03-1.5-.075-2.254-.15-1.1-.105-2.194-.225-3.283-.376a37.177,37.177,0,0,1-9.6-2.8,22.936,22.936,0,0,1-2.7-1.405,12.359,12.359,0,0,1-3.328-2.915c-.383-.473-.736-.977-1.1-1.465a2.065,2.065,0,0,1-.4-1.255,23.535,23.535,0,0,1,.466-4.53,64.426,64.426,0,0,1,2.149-7.933c.639-1.946,1.322-3.876,1.878-5.852.413-1.487.841-2.967,1.165-4.477.2-.909.315-1.833.428-2.757.09-.729.173-1.45.24-2.179.045-.42.075-.849.1-1.27a20.237,20.237,0,0,0-.06-3.441c-.068-.549-.083-1.1-.158-1.645a9.224,9.224,0,0,1-.15-1.285.833.833,0,0,1,.015-.2.309.309,0,0,1,.533-.165q1.273,1.127,2.539,2.261a23.053,23.053,0,0,0,5.634,3.794c.917.436,1.818.894,2.727,1.337.533.255,1.074.511,1.623.744a25.938,25.938,0,0,0,3.756,1.165,28.761,28.761,0,0,0,3.651.631c.939.113,1.878.233,2.817.331.631.068,1.262.113,1.893.158,1.908.128,3.816.15,5.724.188,1.224.022,2.442.083,3.666.12,1.067.038,2.134.053,3.193.105,1.39.06,2.78.18,4.162.376,1.1.158,2.216.3,3.321.466a22.074,22.074,0,0,1,5.229,1.33,17.616,17.616,0,0,1,4.094,2.314,8.993,8.993,0,0,1,.811.7,4.472,4.472,0,0,1,1.315,2.652,10.753,10.753,0,0,1,.022,2.457,41.623,41.623,0,0,1-.8,4.913q-.687,3.4-1.42,6.806c-.286,1.345-.624,2.682-.909,4.034-.218,1.044-.383,2.1-.593,3.14-.271,1.367-.556,2.727-.834,4.094-.368,1.8-.729,3.591-1.119,5.379-.218,1.014-.5,2.013-.759,3.012a2.473,2.473,0,0,1-.428.924.573.573,0,0,1-.571.233.643.643,0,0,1-.218-.105c-.105-.075-.2-.165-.293-.24-.376-.308-.759-.6-1.119-.924a17.652,17.652,0,0,0-8.038-4.132c-1.931-.451-3.876-.819-5.837-1.119q-1.927-.293-3.854-.518c-.909-.105-1.826-.18-2.742-.248-1.052-.083-2.111-.15-3.17-.21-.6-.03-1.209-.045-1.811-.038-.571.015-1.172.052-1.773.075Zm12.35-.406a2.618,2.618,0,0,0-.03-.278,12.519,12.519,0,0,1-.2-1.683,14.95,14.95,0,0,1,.083-1.743,25.921,25.921,0,0,1,.886-4.853c.481-1.653,1.007-3.291,1.518-4.936a61.556,61.556,0,0,0,2.554-11.2c.15-1.3.255-2.592.278-3.9.03-1.6-.038-3.193-.135-4.785-.008-.173-.03-.338-.053-.533-.158-.008-.315-.022-.466-.03-1.1-.038-2.209-.067-3.306-.1-2.321-.068-4.65-.128-6.971-.218-1.044-.038-2.081-.113-3.125-.21-.924-.083-1.856-.2-2.772-.331-1.014-.143-2.013-.315-3.027-.473a.971.971,0,0,0-.158-.008c.023.263.053.5.068.751.053.751.113,1.5.158,2.254a22.574,22.574,0,0,1-.037,3.418c-.1,1.029-.218,2.059-.338,3.088-.135,1.112-.316,2.216-.556,3.305a47.916,47.916,0,0,1-1.555,5.289c-.481,1.36-.977,2.719-1.435,4.094a26.567,26.567,0,0,0-1.427,6.784c-.045.841-.045,1.683-.007,2.524.038.729.158,1.45.248,2.179.023.158.068.315.105.473.068.008.113.022.158.022.511.045,1.022.1,1.533.143,1.615.15,3.23.188,4.846.2,1.487.008,2.982-.067,4.47.008.744.038,1.487.06,2.231.113,1.029.075,2.051.158,3.073.255.774.068,1.54.158,2.314.248.346.03.7.075,1.082.128Zm-31.958-44.917c-.015.007-.023.015-.037.015.045.2.105.4.135.6.075.5.128.992.2,1.48a18.78,18.78,0,0,1,.135,4.057c-.052.849-.12,1.7-.2,2.539a26.764,26.764,0,0,1-.428,3c-.278,1.45-.684,2.87-1.074,4.29-.609,2.2-1.352,4.357-2.058,6.521a61.036,61.036,0,0,0-2.336,8.917,19.841,19.841,0,0,0-.271,3.336,1.217,1.217,0,0,0,.248.766c.24.308.473.631.714.947a12.646,12.646,0,0,0,3.583,3.125,24.474,24.474,0,0,0,3.666,1.75,43.763,43.763,0,0,0,5.214,1.66c1.2.285,2.427.473,3.651.639a1.087,1.087,0,0,0,.15-.008c-.06-.436-.105-.856-.18-1.277a15.973,15.973,0,0,1-.233-2.8,20.613,20.613,0,0,1,.458-4.237,39.594,39.594,0,0,1,1.48-5.131c.691-1.916,1.39-3.824,1.961-5.777a36.4,36.4,0,0,0,1.082-4.635c.135-.872.233-1.743.331-2.614.075-.676.128-1.353.18-2.028.083-1.044,0-2.089-.015-3.133-.015-.586,0-1.18,0-1.766v-.789c-.1-.023-.18-.045-.271-.068a25.033,25.033,0,0,1-5.634-2.043q-1.713-.89-3.441-1.758a20.019,20.019,0,0,1-4.846-3.448c-.684-.653-1.345-1.337-2.013-2.006a.783.783,0,0,1-.158-.127Zm48.41,51.3a1.263,1.263,0,0,0,.083-.233c.225-.909.473-1.818.676-2.735.376-1.72.714-3.44,1.074-5.161.263-1.247.541-2.486.789-3.741.2-.984.338-1.983.541-2.967.255-1.262.548-2.517.826-3.779.458-2.133.931-4.267,1.367-6.4.353-1.721.714-3.441.932-5.191a12.1,12.1,0,0,0,.068-2.854,3.549,3.549,0,0,0-1.142-2.359c-.24-.218-.488-.421-.736-.616a17.084,17.084,0,0,0-3.929-2.194,20.388,20.388,0,0,0-4.47-1.164c-.939-.158-1.886-.286-2.825-.428-1.337-.2-2.675-.361-4.019-.443a.831.831,0,0,0-.128.015c.03.127.06.248.083.361a27.356,27.356,0,0,1,.436,4.425,29.132,29.132,0,0,1-.165,3.884c-.105.939-.2,1.886-.338,2.817a57.234,57.234,0,0,1-1.262,5.942c-.466,1.781-1.052,3.523-1.593,5.281q-.586,1.916-1.119,3.839a23.845,23.845,0,0,0-.609,3.5,13.309,13.309,0,0,0-.1,2.787c.038.383.075.766.113,1.165.368.06.729.12,1.089.173a57.316,57.316,0,0,1,5.627,1.134,18.107,18.107,0,0,1,6.806,3.3c.563.443,1.089.924,1.638,1.39a3.246,3.246,0,0,0,.285.255Z" transform="translate(-1853.99 -3354.492)" fill="#083f2c"/>
    <path id="Tracé_4274" data-name="Tracé 4274" d="M2123.63,3530.986c-.383-.045-.736-.1-1.089-.135-.774-.083-1.54-.173-2.314-.248-1.022-.1-2.051-.18-3.073-.255-.744-.053-1.488-.075-2.231-.113-1.488-.075-2.982.008-4.47-.007-1.615-.015-3.238-.053-4.845-.2-.511-.045-1.022-.1-1.533-.143-.045-.007-.09-.015-.158-.022-.037-.158-.083-.308-.105-.473-.09-.721-.21-1.45-.248-2.179-.038-.841-.038-1.683.008-2.524A25.943,25.943,0,0,1,2105,3517.9c.458-1.375.954-2.727,1.435-4.094a44.886,44.886,0,0,0,1.555-5.289,32.672,32.672,0,0,0,.556-3.306c.128-1.029.248-2.058.338-3.087a21.618,21.618,0,0,0,.037-3.418c-.045-.751-.1-1.5-.158-2.253-.015-.241-.045-.489-.067-.751a1,1,0,0,1,.158.008c1.007.158,2.013.331,3.027.473.924.127,1.848.248,2.772.331,1.037.09,2.081.165,3.125.21,2.321.09,4.65.15,6.972.218,1.1.03,2.208.068,3.305.1.158.007.308.015.466.03.015.2.038.361.053.533.1,1.593.165,3.185.135,4.785-.03,1.307-.128,2.607-.278,3.9a61.408,61.408,0,0,1-2.554,11.2c-.511,1.645-1.029,3.283-1.518,4.936a25.351,25.351,0,0,0-.886,4.853,16.828,16.828,0,0,0-.083,1.743,11.416,11.416,0,0,0,.2,1.683,2.854,2.854,0,0,1,.038.286Z" transform="translate(-2084.79 -3485.092)" fill="#fff"/>
    <path id="Tracé_4275" data-name="Tracé 4275" d="M1872.623,3367.5c.052.053.105.1.158.15.669.668,1.322,1.352,2.013,2.006a20.384,20.384,0,0,0,4.845,3.448q1.724.867,3.441,1.758a25.183,25.183,0,0,0,5.634,2.043q.124.034.271.067v.789c0,.586-.015,1.179,0,1.765a31.112,31.112,0,0,1,.015,3.133c-.052.676-.105,1.352-.18,2.028-.1.872-.2,1.75-.331,2.614a36.365,36.365,0,0,1-1.082,4.635c-.578,1.953-1.277,3.861-1.961,5.777a38.9,38.9,0,0,0-1.48,5.131,21.139,21.139,0,0,0-.458,4.237,15.909,15.909,0,0,0,.233,2.8c.075.421.12.842.18,1.277a1.048,1.048,0,0,1-.15.007,35.416,35.416,0,0,1-3.651-.638,43.853,43.853,0,0,1-5.214-1.66,24.5,24.5,0,0,1-3.666-1.75,12.641,12.641,0,0,1-3.583-3.125c-.248-.308-.473-.631-.714-.947a1.172,1.172,0,0,1-.248-.766,19.84,19.84,0,0,1,.27-3.335,58.748,58.748,0,0,1,2.336-8.917c.706-2.164,1.45-4.32,2.058-6.521.391-1.42.789-2.84,1.074-4.29a29.224,29.224,0,0,0,.428-3c.075-.849.143-1.69.2-2.539a18.785,18.785,0,0,0-.135-4.057c-.075-.5-.128-.992-.2-1.48-.03-.2-.09-.4-.135-.6a.09.09,0,0,1,.038-.038Z" transform="translate(-1865.74 -3366.523)" fill="#1e7658"/>
    <path id="Tracé_4276" data-name="Tracé 4276" d="M2397.892,3554.852c-.113-.09-.2-.166-.293-.24-.549-.466-1.074-.947-1.638-1.39a18.1,18.1,0,0,0-6.806-3.3,57.254,57.254,0,0,0-5.627-1.134c-.361-.053-.721-.113-1.089-.173-.038-.4-.075-.781-.113-1.165a13.3,13.3,0,0,1,.1-2.787,24,24,0,0,1,.609-3.5c.345-1.284.721-2.569,1.119-3.839.541-1.758,1.127-3.5,1.593-5.281a57.184,57.184,0,0,0,1.262-5.943c.143-.931.233-1.878.338-2.817a29.151,29.151,0,0,0,.165-3.884,27.332,27.332,0,0,0-.436-4.425c-.022-.112-.052-.233-.083-.36a.957.957,0,0,1,.128-.015c1.345.083,2.689.24,4.019.443.939.143,1.886.271,2.825.428a20.387,20.387,0,0,1,4.47,1.164,17.36,17.36,0,0,1,3.929,2.194c.255.2.5.4.736.616a3.549,3.549,0,0,1,1.142,2.359,12.5,12.5,0,0,1-.068,2.854c-.218,1.75-.579,3.471-.931,5.191-.436,2.141-.909,4.267-1.367,6.4-.271,1.262-.563,2.517-.826,3.779-.2.984-.346,1.983-.541,2.968-.248,1.247-.533,2.494-.789,3.741-.361,1.72-.7,3.448-1.074,5.161-.2.917-.443,1.826-.676,2.735a.942.942,0,0,1-.075.218Z" transform="translate(-2342.599 -3502.572)" fill="#ec1c23"/>
  </g>
</svg>
