<svg xmlns="http://www.w3.org/2000/svg" width="99.567" height="69.649" viewBox="0 0 99.567 69.649">
  <g id="Groupe_4025" data-name="Groupe 4025" transform="translate(0 23.084) rotate(-14)">
    <path id="Tracé_4425" data-name="Tracé 4425" d="M53.748,10.209c1.534-1.443,2.909-2.748,4.271-4.042A11.857,11.857,0,0,1,66.94,2.937,24.377,24.377,0,0,1,78.185,6.086,50.785,50.785,0,0,1,89.522,14.64,51.225,51.225,0,0,1,94.3,20.7a6.93,6.93,0,0,1,1.031,2.4,2.994,2.994,0,0,1-2.554,3.7,5.055,5.055,0,0,1-1.019.046c-3.722-.092-7.455-.16-11.177-.3-1.42-.046-2.828-.3-4.249-.389-6.974-.424-13.936-.882-20.922-1.191-3.115-.137-6.241.08-9.356.149-1.763.034-3.527.16-5.291.126-4.958-.092-9.905.137-14.841.492a89.159,89.159,0,0,0-12.07,1.66c-2.92.607-5.875,1-8.829,1.4a10.185,10.185,0,0,1-2.828-.08A2.33,2.33,0,0,1,.155,25.462a6.482,6.482,0,0,1,.985-1.992,24.963,24.963,0,0,1,2.909-3.378A127.234,127.234,0,0,1,19.165,8.079a70.058,70.058,0,0,1,9.688-5.153c1.42-.642,2.84-1.271,4.26-1.9A11.724,11.724,0,0,1,40.075.2a17.656,17.656,0,0,1,10.1,5.669C51.137,6.922,52,8.056,52.9,9.155c.263.344.527.664.847,1.053Z" fill="#ec1c23"/>
    <path id="Tracé_4426" data-name="Tracé 4426" d="M44.423.017c2.3,0,4.615-.046,6.917.012,2.37.057,4.741.206,7.111.309,2.7.115,5.417.229,8.119.3a7.31,7.31,0,0,1,4.638,1.809,3.123,3.123,0,0,1,1.054,3.126,5.049,5.049,0,0,1-1.443,2.863,16.057,16.057,0,0,1-2.645,2.2c-2.783,1.683-5.611,3.286-8.451,4.867a19.337,19.337,0,0,1-4.558,1.706c-1.374.355-2.7.882-4.054,1.34a53.855,53.855,0,0,1-20.372,3.138,72.341,72.341,0,0,1-7.856-1.053,79.41,79.41,0,0,1-8.3-1.947,43.861,43.861,0,0,1-6.6-2A43.467,43.467,0,0,1,4,14.652a8.9,8.9,0,0,1-3.241-3.31A5.372,5.372,0,0,1,.37,6.636,4.43,4.43,0,0,1,3.736,3.693a8.792,8.792,0,0,1,1.809-.24,58.034,58.034,0,0,0,8.669-1.088c1.672-.263,3.332-.584,5-.87.664-.115,1.34-.206,2.015-.263C25.093.968,28.941.659,32.8.464S40.53.223,44.389.109a.1.1,0,0,0,.034-.092Z" transform="translate(10.779 28.926)" fill="#ec1c23"/>
    <path id="Tracé_4427" data-name="Tracé 4427" d="M2.37,4.271c-.069.286-.115.55-.195.8a.624.624,0,0,1-.859.252,1.826,1.826,0,0,1-.55-.561A9.883,9.883,0,0,1,0,.619.277.277,0,0,1,.046.424C.16.263.3.011.435,0c.229,0,.6.092.664.252A15.508,15.508,0,0,1,2.37,4.271Z" transform="translate(53.198 35.917)" fill="#083f2c"/>
    <path id="Tracé_4428" data-name="Tracé 4428" d="M.422,0a7.712,7.712,0,0,1,.653,4.775.574.574,0,0,1-.412.344A.637.637,0,0,1,.2,4.833a.973.973,0,0,1-.195-.55C0,3.15-.014,2.016.044.882A2.671,2.671,0,0,1,.422,0Z" transform="translate(43.764 36.868)" fill="#083f2c"/>
    <path id="Tracé_4429" data-name="Tracé 4429" d="M.233,5C-.317,3.287.175,1.752,1,0c.206.435.424.676.389.859C1.126,2.268,1.332,3.8.233,5Z" transform="translate(34.437 37.909)" fill="#083f2c"/>
    <path id="Tracé_4430" data-name="Tracé 4430" d="M38.1,10.775c.263-.24.492-.389.664-.584A18.656,18.656,0,0,1,52.307,3.7a15.732,15.732,0,0,1,12.081,4.34A16.179,16.179,0,0,1,65.946,9.9a1.478,1.478,0,0,1,.332.733.942.942,0,0,1-.206.71.778.778,0,0,1-.71-.011,7.574,7.574,0,0,1-.87-.847c-.79-.744-1.557-1.512-2.393-2.2-2.256-1.889-5-2.668-7.775-3.321a11.025,11.025,0,0,0-4.443.263,17.176,17.176,0,0,0-7.295,2.92,13.3,13.3,0,0,0-2.966,2.76,6.062,6.062,0,0,1-.79.916.958.958,0,0,1-1.305.092,9.944,9.944,0,0,1-1.512-1.34c-.973-1.122-1.912-2.29-2.828-3.47A18.769,18.769,0,0,0,29.725,3.7,11.535,11.535,0,0,0,21.3,1.453a24.149,24.149,0,0,0-8.714,2.531c-3.664,1.8-7.1,3.951-10.615,5.989-.573.332-1.157.641-1.706.939-.366-.321-.3-.584-.092-.779A8.159,8.159,0,0,1,1.28,9.252C5.128,6.835,8.918,4.339,12.983,2.3A22.806,22.806,0,0,1,21.16.056,17.29,17.29,0,0,1,27,.64a9.65,9.65,0,0,1,2.748,1.271,17.177,17.177,0,0,1,4.294,4c1,1.283,2,2.565,3.023,3.836.321.344.676.653,1.031,1.031Z" transform="translate(16.408 3.763)" fill="#083f2c"/>
  </g>
</svg>
