<svg xmlns="http://www.w3.org/2000/svg" width="77.528" height="94.771" viewBox="0 0 77.528 94.771">
  <g id="Groupe_4008" data-name="Groupe 4008" transform="matrix(0.966, 0.259, -0.259, 0.966, 8.248, -3.847)">
    <path id="Tracé_4326" data-name="Tracé 4326" d="M2872.843,1757.35c.214-.3.413-.6.635-.881a11.427,11.427,0,0,1,5.3-3.872,6.052,6.052,0,0,1,2.936-.278,4.509,4.509,0,0,1,1.7.643c.071.048.143.087.222.135a1.141,1.141,0,0,0,.15-.127,6.888,6.888,0,0,1,3.912-1.849c.682-.1,1.373-.206,2.055-.278a5.1,5.1,0,0,1,1.666.024,1.225,1.225,0,0,1,.3.1,1.01,1.01,0,0,1,.262.222c.071.087.127.222.04.318a.365.365,0,0,1-.27.063c-.294-.016-.579-.071-.873-.071a13.573,13.573,0,0,0-2.325.325,12.431,12.431,0,0,0-2.134.627,5.8,5.8,0,0,0-1.793,1.127l-.143.143a.435.435,0,0,0-.032.063c.056.056.111.127.175.19a6.279,6.279,0,0,1,1.1,1.444,2.48,2.48,0,0,1,.334,1.539,1.57,1.57,0,0,1-.54,1.016,2.286,2.286,0,0,1-1.674.539,1.931,1.931,0,0,1-1.825-2.238,5.158,5.158,0,0,1,.627-1.889c.04-.071.079-.143.127-.23-.063-.04-.111-.079-.167-.111a3.064,3.064,0,0,0-1.317-.341,6.492,6.492,0,0,0-3.491.9,11.948,11.948,0,0,0-3.618,3.111,1.182,1.182,0,0,0-.072.1.529.529,0,0,0,.04.063,3.221,3.221,0,0,1,.294,4.7,2.608,2.608,0,0,1-.714.492,1.388,1.388,0,0,1-1.793-.635,2.789,2.789,0,0,1-.286-1.182,6.412,6.412,0,0,1,.54-2.7c.031-.079.071-.167.119-.286a2.553,2.553,0,0,0-.65,0,13.4,13.4,0,0,0-2.667.564,8.06,8.06,0,0,0-2.6,1.507,25.694,25.694,0,0,0-3.849,3.92c-.087.111-.158.23-.238.349-.048.079-.119.135-.207.1a.312.312,0,0,1-.167-.167.41.41,0,0,1,.008-.238,1.885,1.885,0,0,1,.175-.357,19.759,19.759,0,0,1,4.523-4.88,8.153,8.153,0,0,1,3.484-1.508,8.783,8.783,0,0,1,2.079-.262c.215.024.421.04.643.048Zm.73,1.325c-.04.056-.064.087-.088.127a5.584,5.584,0,0,0-.666,2.182,2,2,0,0,0,.063.841c.119.357.326.444.659.254a1.585,1.585,0,0,0,.825-1.159,2.483,2.483,0,0,0-.008-.873,2.164,2.164,0,0,0-.785-1.373Zm10.117-3.92a3.289,3.289,0,0,0-.547,1.968.806.806,0,0,0,.69.8,1.523,1.523,0,0,0,.881-.095.587.587,0,0,0,.4-.651,1.634,1.634,0,0,0-.254-.754,4.776,4.776,0,0,0-1.167-1.27Z" transform="translate(-2817.636 -1740.686)" fill="#083f2c"/>
    <path id="Tracé_4327" data-name="Tracé 4327" d="M2322.2,1902.36c.111.119.2.222.286.317a3.353,3.353,0,0,1,.841,1.65,2.185,2.185,0,0,1-1.658,2.468,1.806,1.806,0,0,1-1.333-.3,2.45,2.45,0,0,1-.706-3.38,6.564,6.564,0,0,1,.611-.722,1.855,1.855,0,0,1,.214-.191c-.1-.055-.182-.1-.27-.143a8.772,8.772,0,0,0-2.174-.643,8.639,8.639,0,0,0-1.016-.127,6.816,6.816,0,0,0-4.714,1.4,8.566,8.566,0,0,0-.706.706,1.374,1.374,0,0,0-.151.222c.1.024.167.04.238.056a5.045,5.045,0,0,1,2.023.944,2.653,2.653,0,0,1,1.055,2.436,2.411,2.411,0,0,1-.159.627,1.466,1.466,0,0,1-1.611.92,3.327,3.327,0,0,1-1.881-.92,3.271,3.271,0,0,1-1.135-2.143,5.02,5.02,0,0,1,.04-.77,1.052,1.052,0,0,1,.031-.175,3.09,3.09,0,0,0-.309.032c-.46.127-.92.238-1.365.4a5.037,5.037,0,0,0-2.333,1.785,9.808,9.808,0,0,0-1.262,2.293,2.335,2.335,0,0,0-.167.8.672.672,0,0,1-.008.127c-.016.1,0,.23-.127.278a.332.332,0,0,1-.341-.1.751.751,0,0,1-.238-.532,2.506,2.506,0,0,1,.175-1,7.613,7.613,0,0,1,.508-1.166c.317-.564.674-1.111,1.04-1.651a4.5,4.5,0,0,1,1.754-1.492,7.435,7.435,0,0,1,3.086-.809c.024-.04.056-.072.08-.119a4.948,4.948,0,0,1,1.389-1.563,7.07,7.07,0,0,1,4.11-1.436,11.071,11.071,0,0,1,4.333.762,9.371,9.371,0,0,1,.857.413.289.289,0,0,0,.254.031,8.105,8.105,0,0,1,4.674-.325,13.3,13.3,0,0,1,5.269,2.333,13.507,13.507,0,0,1,2.135,2.071,3.748,3.748,0,0,1,.77,1.611c.048.2-.008.325-.143.381a.17.17,0,0,1-.262-.135,2.641,2.641,0,0,0-.73-1.476c-.008-.016-.024-.024-.032-.04a15.692,15.692,0,0,0-3.317-2.6,12.444,12.444,0,0,0-4.086-1.444,7.417,7.417,0,0,0-2.095.008c-.4.048-.785.151-1.174.23-.079.024-.167.063-.27.1Zm-11.189,2.142a1.855,1.855,0,0,0-.158.9,2.861,2.861,0,0,0,2.087,2.278.608.608,0,0,0,.841-.556.216.216,0,0,0,.008-.071,1.814,1.814,0,0,0-.659-1.69,3.235,3.235,0,0,0-1.341-.69,5.26,5.26,0,0,0-.778-.175Zm10.308-1.714a2.281,2.281,0,0,0-.81.865,1.456,1.456,0,0,0,.54,1.865.575.575,0,0,0,.738-.048,1.2,1.2,0,0,0,.468-1.214,2.72,2.72,0,0,0-.936-1.468Z" transform="translate(-2303.873 -1878.458)" fill="#083f2c"/>
    <path id="Tracé_4328" data-name="Tracé 4328" d="M2498.058,1628.682a7.023,7.023,0,0,1,.294-.643,1.989,1.989,0,0,1,1.357-1.055,2.326,2.326,0,0,1,1.254.1,5.221,5.221,0,0,1,1.111.563c.373.238.746.476,1.127.7a1.821,1.821,0,0,0,.928.262,2.718,2.718,0,0,1,1.6.571,9,9,0,0,1,1.706,1.682,17.389,17.389,0,0,1,1.976,3.3,31.634,31.634,0,0,1,1.738,4.658c.317,1.055.611,2.111.92,3.174a.627.627,0,0,0,.1.206c.016-.079.04-.151.055-.23a48.207,48.207,0,0,1,1.754-6.65c.333-1.048.675-2.095,1.023-3.134a14.283,14.283,0,0,1,2.317-4.214,21.068,21.068,0,0,1,3.127-3.333,10.286,10.286,0,0,1,1.016-.73,2.261,2.261,0,0,1,.635-.278,1,1,0,0,1,1.309.873c.016.079.016.167.031.286.087-.064.143-.111.207-.159.389-.286.77-.587,1.174-.857a2.067,2.067,0,0,1,.571-.254.8.8,0,0,1,1.023.619,2.679,2.679,0,0,1,.032.619,3.19,3.19,0,0,1-.063.436c.072-.016.127-.024.175-.04a4.81,4.81,0,0,1,.484-.119.91.91,0,0,1,1.079.9,2.7,2.7,0,0,1-.135,1.008c-.055.2-.119.389-.183.619.1-.024.175-.048.246-.063a2.88,2.88,0,0,1,.444-.079.815.815,0,0,1,.937.841,2.894,2.894,0,0,1-.087.69c-.1.381-.246.746-.365,1.119-.032.087-.055.175-.079.262.024.024.04.047.055.063a1.516,1.516,0,0,1,.754,1.571,5.46,5.46,0,0,1-.714,2.119,17.241,17.241,0,0,1-2.008,2.983c-.619.746-1.246,1.484-1.928,2.166-1.579,1.563-3.182,3.095-4.793,4.626a15.819,15.819,0,0,1-2.182,1.722c-.222.151-.437.309-.651.468-.722.524-1.436,1.055-2.174,1.571a13.546,13.546,0,0,1-2.277,1.2,7.991,7.991,0,0,0-.825.421,5.12,5.12,0,0,1-2.3.77,1.006,1.006,0,0,1-.722-.135,1.32,1.32,0,0,0-.158-.063,4.158,4.158,0,0,1-1.7-1.071c-.286-.3-.547-.627-.817-.944a.647.647,0,0,0-.318-.222,34.005,34.005,0,0,1-7.459-3.444,25.315,25.315,0,0,0-3.349-1.746,6.107,6.107,0,0,1-2.6-2.047,10.286,10.286,0,0,1-1.333-2.285,3.762,3.762,0,0,1-.206-.722,1.121,1.121,0,0,1,.746-1.27,2.816,2.816,0,0,1,.889-.143c.1-.008.215,0,.357,0-.047-.127-.087-.23-.127-.325a18.452,18.452,0,0,1-1.016-2.873,3.522,3.522,0,0,1-.119-1.04,1.072,1.072,0,0,1,1.2-1.119,8.183,8.183,0,0,1,1.151.214c.1.024.206.056.349.1,0-.1.008-.191,0-.278-.024-.325-.056-.651-.08-.976a3.327,3.327,0,0,1,.08-1.119,2.293,2.293,0,0,1,.167-.444,1.182,1.182,0,0,1,1.389-.627,2.285,2.285,0,0,1,.889.444c.27.2.516.421.778.635.071.048.135.1.214.167Z" transform="translate(-2476.313 -1623.491)" fill="#1e7658"/>
    <path id="Tracé_4329" data-name="Tracé 4329" d="M2564.357,1715.029c.722,1.063,1.436,2.119,2.158,3.182a1.115,1.115,0,0,0,.071-.135,15.646,15.646,0,0,1,1.277-2.349,1.884,1.884,0,0,1,.183-.238.223.223,0,0,1,.294-.064.242.242,0,0,1,.095.31.685.685,0,0,1-.063.135c-.349.682-.7,1.365-1.055,2.039-.143.27-.317.532-.492.817.048.087.111.2.174.3a14.287,14.287,0,0,1,1.762,3.96c.1.4.19.809.262,1.222a1.381,1.381,0,0,1-.031.54c-.04.183-.183.222-.35.143a.469.469,0,0,1-.246-.3c-.071-.293-.158-.579-.214-.873a10.12,10.12,0,0,0-1.024-2.888c-.27-.508-.555-1.008-.841-1.508-.031-.055-.071-.111-.095-.151-.452.159-.889.333-1.333.46-.873.246-1.753.476-2.634.706a1.473,1.473,0,0,1-.317.056.214.214,0,0,1-.174-.1c-.016-.048.032-.135.071-.191a.4.4,0,0,1,.15-.087,8.652,8.652,0,0,1,1.619-.659c.611-.19,1.222-.381,1.841-.571.151-.048.3-.079.484-.135-.714-1.151-1.452-2.254-2.214-3.341-.714.389-1.4.754-2.087,1.135a16.292,16.292,0,0,1-2.158,1.04,6.22,6.22,0,0,1-.619.2.862.862,0,0,1-.349.024.2.2,0,0,1-.151-.341.627.627,0,0,1,.215-.167c.365-.183.729-.365,1.095-.54.453-.222.9-.437,1.349-.659.674-.333,1.349-.659,2.023-.992.1-.047.206-.1.333-.167a27.968,27.968,0,0,0-3.095-3.674c-.087.04-.167.079-.254.119-1.349.682-2.69,1.365-4.039,2.039-.23.119-.468.222-.7.341-.048.024-.1.04-.135.056a.186.186,0,0,1-.246-.056.194.194,0,0,1,.031-.254.775.775,0,0,1,.167-.151,6.392,6.392,0,0,1,.572-.365c1.2-.611,2.389-1.222,3.594-1.825.19-.1.4-.175.619-.27a.664.664,0,0,0-.111-.135c-.683-.611-1.349-1.246-2.056-1.825-.444-.365-.936-.666-1.412-.992-.087-.056-.214-.1-.159-.238.04-.1.143-.127.31-.087a2.769,2.769,0,0,1,1.016.468c.4.286.793.587,1.166.9.508.42.992.873,1.484,1.309a2.087,2.087,0,0,1,.174.151c.032-.135.056-.246.08-.349.27-1.135.547-2.269.817-3.4a.462.462,0,0,1,.079-.206c.04-.047.127-.111.174-.1s.1.1.127.167a.327.327,0,0,1,0,.151c-.207,1.206-.381,2.42-.691,3.61a2.294,2.294,0,0,1-.127.4.21.21,0,0,0,.064.262c.2.191.389.389.579.587.849.9,1.627,1.857,2.389,2.833.047.063.1.127.175.214.087-.206.158-.381.222-.555.325-.833.651-1.658.9-2.523a6.892,6.892,0,0,1,.254-.675c.047-.111.111-.214.262-.19.1.016.175.143.143.309a6.642,6.642,0,0,1-.159.682c-.19.667-.389,1.325-.587,1.992a4.8,4.8,0,0,1-.635,1.468Z" transform="translate(-2534.948 -1699.721)" fill="#083f2c"/>
    <path id="Tracé_4330" data-name="Tracé 4330" d="M2788.554,1684.9c-.119.492-.246.984-.349,1.484a18.878,18.878,0,0,0-.365,2.976,3.35,3.35,0,0,1-.095.619c-.032.127-.08.262-.254.27a.393.393,0,0,1-.341-.294,1.34,1.34,0,0,1-.048-.4c.032-.555.064-1.119.119-1.674a14.851,14.851,0,0,1,.6-2.936.411.411,0,0,0-.056-.333,14.629,14.629,0,0,1-1.008-2.579,3.859,3.859,0,0,1-.1-.412.387.387,0,0,1,.024-.191.123.123,0,0,1,.223-.024.97.97,0,0,1,.071.159c.357.8.714,1.6,1.072,2.4.008.016.023.024.055.048a.738.738,0,0,0,.04-.08,28.269,28.269,0,0,1,1.4-3.261.488.488,0,0,0,.016-.444,12.839,12.839,0,0,1-.658-2.357c-.111-.547-.2-1.1-.286-1.651a1.914,1.914,0,0,1-.024-.373c0-.1.032-.182.143-.206s.167.055.214.135a.766.766,0,0,1,.064.19l.738,2.809c.064.246.135.5.2.746a.1.1,0,1,0,.151.008c.6-1.262,1.31-2.46,2.016-3.658a.818.818,0,0,0,.095-.635c-.151-.7-.27-1.4-.4-2.111-.08-.4-.151-.8-.222-1.206-.04-.214.008-.325.119-.365s.2.048.278.262a11.572,11.572,0,0,1,.468,1.944c.064.373.135.754.206,1.19.08-.111.127-.182.175-.254.722-1.127,1.452-2.262,2.285-3.317.151-.2.317-.381.484-.571a.725.725,0,0,1,.175-.135.155.155,0,0,1,.23.063c-.46.778-1.016,1.492-1.508,2.254s-.976,1.532-1.484,2.333c.111.008.182.016.254.016a28.075,28.075,0,0,0,2.824-.175,2.483,2.483,0,0,1,.643.016c.2.031.254.143.23.349a.263.263,0,0,1-.214.246,1.927,1.927,0,0,1-.373.056c-.222.016-.452.024-.674.032-.532.024-1.063.071-1.6.071-.429,0-.865-.064-1.294-.1h-.1a29.221,29.221,0,0,0-2.325,4.261l.317-.024,1.992-.19c.5-.048.991-.111,1.492-.151a4.089,4.089,0,0,1,.7.008.338.338,0,0,1,.357.341.255.255,0,0,1-.191.309,1.71,1.71,0,0,1-.436.087c-.373.024-.754.04-1.126.063s-.746.048-1.119.087a7.508,7.508,0,0,1-2.19.008.633.633,0,0,0-.071.016,23.93,23.93,0,0,0-1.388,3.65c.135-.016.238-.024.349-.04.508-.055,1.008-.119,1.515-.174.357-.04.714-.072,1.071-.1a4.226,4.226,0,0,1,.548-.008.237.237,0,0,1,.262.214c.023.135-.032.214-.2.278a1.633,1.633,0,0,1-.262.072c-.881.143-1.761.293-2.65.349-.23.024-.484.008-.8.008Z" transform="translate(-2748.353 -1666.905)" fill="#083f2c"/>
    <path id="Tracé_4331" data-name="Tracé 4331" d="M2561.757,1902.54a1.936,1.936,0,0,1-.175-.135,7.3,7.3,0,0,1-3.127-4.491,9.651,9.651,0,0,1-.262-3.4,8.254,8.254,0,0,1,.761-2.706,9.348,9.348,0,0,1,2.365-3.1,5.587,5.587,0,0,1,.746-.54,3.384,3.384,0,0,1,2.785-.476c.04-.1.071-.182.111-.278a7.031,7.031,0,0,1,.77-1.595,4.789,4.789,0,0,1,2.761-2.031,4.388,4.388,0,0,1,2.706.143,3.663,3.663,0,0,1,1.635,1.238c.183.238.357.484.548.746.072-.1.127-.175.183-.254a15.354,15.354,0,0,1,1.706-2.158,10.834,10.834,0,0,1,2.491-1.96,5.512,5.512,0,0,1,5.722.04,4.242,4.242,0,0,1,2.063,2.888c.024.1.048.214.071.318,0,.008.008.008.024.024a.172.172,0,0,0,.063-.008,7.392,7.392,0,0,1,2.111-1.119,8.089,8.089,0,0,1,2.809-.532,4.27,4.27,0,0,1,1.96.436,12.549,12.549,0,0,1,3.023,2.071,5.311,5.311,0,0,1,1.508,2.468,3.134,3.134,0,0,1-.079,1.944,7.2,7.2,0,0,1-1.135,1.992c-.063.079-.127.159-.2.246a1.383,1.383,0,0,0,.135.079,13.088,13.088,0,0,1,2.809,1.77,6.2,6.2,0,0,1,2.1,3.6,3.573,3.573,0,0,1-.055,1.587,6.214,6.214,0,0,1-3.221,4.19c-.08.048-.159.087-.262.143.04.048.072.1.111.135.175.175.357.349.54.523a4.729,4.729,0,0,1,1.27,2.262,11.033,11.033,0,0,1,.333,2.5,4.4,4.4,0,0,1-.738,2.508,9.148,9.148,0,0,1-1.611,1.841c-.349.317-.706.611-1.063.913-.063.055-.127.111-.214.182.079.048.135.079.2.111a8.509,8.509,0,0,1,1.531.9,4.282,4.282,0,0,1,1.73,3.7,4.863,4.863,0,0,1-.365,1.6c-.183.5-.4.992-.611,1.476a4.531,4.531,0,0,1-2.6,2.428c-.151.063-.309.119-.5.19.055.1.1.175.158.254a9.222,9.222,0,0,1,1.2,2.468,7.7,7.7,0,0,1-1.595,7.554,5.771,5.771,0,0,1-1.595,1.309,3.145,3.145,0,0,1-1.571.436c-.032,0-.063.008-.127.016.016.2.031.381.04.571a10.755,10.755,0,0,1-.175,3.11,6.159,6.159,0,0,1-2.738,4.023,5.268,5.268,0,0,1-3.5.873,4.893,4.893,0,0,1-3.1-1.412,4.842,4.842,0,0,1-1.214-2.293,13.253,13.253,0,0,1-.254-1.476,10.187,10.187,0,0,0-.349-1.611.339.339,0,0,0-.048-.1c-.1.016-.2.024-.3.04a3.711,3.711,0,0,1-2.809-.611,4.34,4.34,0,0,1-1.317-1.317,3.078,3.078,0,0,1-.508-2.071c.008-.079.016-.167.016-.246a.328.328,0,0,0-.024-.1l-.468-.024a7.7,7.7,0,0,1-2.476-.437,7.266,7.266,0,0,1-2.793-1.849,5.268,5.268,0,0,1-1.3-2.793,7.238,7.238,0,0,1,.072-2.412c.032-.2.072-.389.111-.611-.127.016-.23.032-.333.048a4.529,4.529,0,0,1-4.19-1.643,6.293,6.293,0,0,1-1.412-3.158,8.251,8.251,0,0,1,.127-2.96,11.622,11.622,0,0,1,1.365-3.769c.071-.111.127-.238.19-.357a.323.323,0,0,0,.016-.071l-.246-.072a12.224,12.224,0,0,1-2.222-.754,6.262,6.262,0,0,1-1.8-1.246,5.016,5.016,0,0,1-1.428-3.15,6.2,6.2,0,0,1,.5-3.031,8.037,8.037,0,0,1,2.531-3.507.356.356,0,0,0,.111-.04Z" transform="translate(-2537.966 -1860.341)" fill="#292d70"/>
    <path id="Tracé_4332" data-name="Tracé 4332" d="M2871.093,2139.648a2.687,2.687,0,0,1-2.015-.857,4.617,4.617,0,0,1-1.087-1.976,5.227,5.227,0,0,1-.167-.777,1.137,1.137,0,0,1,.016-.326.288.288,0,0,1,.278-.246c.167-.016.222.032.246.2a1.087,1.087,0,0,0,.04.222,5.891,5.891,0,0,0,1.3,2.087,4.053,4.053,0,0,0,.651.508,1.348,1.348,0,0,0,1.127.167,4.487,4.487,0,0,0,2.491-1.706c.151-.2.278-.413.42-.619a2.006,2.006,0,0,1,.675-.69c.286-.151.365-.119.468.19a1.248,1.248,0,0,1-.016.761,3.293,3.293,0,0,1-.508.945,4.936,4.936,0,0,1-3.1,2.031c-.27.04-.547.056-.817.087Z" transform="translate(-2823.068 -2094.838)" fill="#fff"/>
    <path id="Tracé_4333" data-name="Tracé 4333" d="M2690.625,2009a5.021,5.021,0,0,1,2.254.492,2.714,2.714,0,0,1,1.206,1.127,1.259,1.259,0,0,1,.111,1.04c-.1.31-.262.373-.524.175a1.779,1.779,0,0,1-.444-.468,2.587,2.587,0,0,0-1.381-1.023,5.43,5.43,0,0,0-1.912-.317,3.129,3.129,0,0,0-.81.119,4.648,4.648,0,0,0-2.333,1.476.587.587,0,0,0-.167.325.331.331,0,0,1-.31.286.351.351,0,0,1-.238-.1.311.311,0,0,1-.047-.373c.071-.151.15-.3.23-.444a4.735,4.735,0,0,1,1.928-1.841,3.933,3.933,0,0,1,1.341-.381c.365-.04.73-.063,1.095-.1Z" transform="translate(-2655.668 -1978.41)" fill="#fff"/>
    <path id="Tracé_4334" data-name="Tracé 4334" d="M2900.2,2246.764a1.974,1.974,0,0,1-.23-.246c-.182-.246-.365-.5-.532-.761a2.879,2.879,0,0,0-2.872-1.349,4.2,4.2,0,0,0-2.254.881,3.033,3.033,0,0,0-.976,1.214.475.475,0,0,0-.056.333c.04.175-.254.317-.42.222a.377.377,0,0,1-.207-.325,2.692,2.692,0,0,1,.032-.619,2.874,2.874,0,0,1,1.063-1.675,4.117,4.117,0,0,1,1.881-.833,4.364,4.364,0,0,1,2.785.286,3.033,3.033,0,0,1,1.77,2.19,1.515,1.515,0,0,1,.016.682Z" transform="translate(-2845.928 -2194.304)" fill="#fff"/>
    <path id="Tracé_4335" data-name="Tracé 4335" d="M2902.3,1986.508a2.987,2.987,0,0,1,1.262.246,1.45,1.45,0,0,1,.611.5.9.9,0,0,1,.151.666c-.024.167-.095.23-.27.238a1.744,1.744,0,0,1-.349-.032,1.657,1.657,0,0,1-.381-.127,2.935,2.935,0,0,0-1.785-.19,8.661,8.661,0,0,0-2.174.635,3.05,3.05,0,0,0-1.008.722.869.869,0,0,0-.286.6.317.317,0,0,1-.079.175.268.268,0,0,1-.286.111.257.257,0,0,1-.182-.246,1.668,1.668,0,0,1,.127-.809,2.207,2.207,0,0,1,.619-.809,7.537,7.537,0,0,1,3.332-1.627c.143-.024.278-.04.421-.055.087.008.183.008.278.008Z" transform="translate(-2850.41 -1957.695)" fill="#fff"/>
    <path id="Tracé_4336" data-name="Tracé 4336" d="M2874.035,2544.74a1.166,1.166,0,0,1,.524.921,2.741,2.741,0,0,1-2.341,2.9,1.663,1.663,0,0,1-1.135-.309,2.27,2.27,0,0,1-.667-.706,4.058,4.058,0,0,1-.611-2.381,2.18,2.18,0,0,1,.055-.317.192.192,0,0,1,.207-.151c.127.008.151.111.167.214a4.447,4.447,0,0,0,.738,1.817,3.422,3.422,0,0,0,.524.6.973.973,0,0,0,1.174.175,2.012,2.012,0,0,0,1.2-1.714c.024-.254.056-.516.1-.77a1.033,1.033,0,0,1,.071-.278Z" transform="translate(-2824.891 -2471.594)" fill="#fff"/>
    <path id="Tracé_4337" data-name="Tracé 4337" d="M2771.743,2444.386a2.431,2.431,0,0,1-.333-.238,2.617,2.617,0,0,1-.309-.357,1.357,1.357,0,0,0-1.46-.587,2.6,2.6,0,0,0-1.523.785,5.665,5.665,0,0,0-1.365,2.3c-.04.119-.055.27-.222.262s-.183-.151-.207-.27a2.008,2.008,0,0,1,.032-.841,4.056,4.056,0,0,1,.8-1.762,3.351,3.351,0,0,1,2.928-1.333,1.877,1.877,0,0,1,1.738,1.412.965.965,0,0,1-.079.627Z" transform="translate(-2729.597 -2377.365)" fill="#fff"/>
    <path id="Tracé_4338" data-name="Tracé 4338" d="M2712.6,2295.025c-.032.158-.04.254-.064.341a2.128,2.128,0,0,1-.563.873,4.812,4.812,0,0,1-2.436,1.3,5.168,5.168,0,0,1-2.285.016,2.581,2.581,0,0,1-1.658-1.151,4.551,4.551,0,0,1-.619-1.571.739.739,0,0,1,.008-.293.246.246,0,0,1,.143-.151.33.33,0,0,1,.191.08c.04.031.055.1.087.151.246.4.484.793.746,1.19a2.524,2.524,0,0,0,2.2,1.175,4.607,4.607,0,0,0,3.388-1.23c.19-.175.381-.349.579-.516a1.41,1.41,0,0,1,.286-.214Z" transform="translate(-2673.134 -2241.153)" fill="#fff"/>
    <path id="Tracé_4339" data-name="Tracé 4339" d="M2910.75,2392.4a.992.992,0,0,1,.063.833,1.971,1.971,0,0,1-.77,1.079,3.463,3.463,0,0,1-2.77.619,2.47,2.47,0,0,1-1.936-2.023,1.277,1.277,0,0,1,.016-.69.566.566,0,0,1,.206-.262c.119-.08.214.008.222.151a1.091,1.091,0,0,0,.04.318,2.986,2.986,0,0,0,.944,1.325,2.47,2.47,0,0,0,2.254.389,2.593,2.593,0,0,0,.579-.23,1.564,1.564,0,0,0,.77-.825c.1-.238.214-.468.318-.7.024.008.048.008.063.016Z" transform="translate(-2857.575 -2330.946)" fill="#fff"/>
    <path id="Tracé_4340" data-name="Tracé 4340" d="M2659.7,2137.6a.973.973,0,0,1,.064.659,1.356,1.356,0,0,1-.127.381,4.806,4.806,0,0,1-2.984,2.706,2.161,2.161,0,0,1-2.436-.81.618.618,0,0,1-.127-.262.259.259,0,0,1,.087-.207.247.247,0,0,1,.2,0,1.268,1.268,0,0,1,.238.183,3.5,3.5,0,0,0,.809.492,1.733,1.733,0,0,0,1.365-.008,4.285,4.285,0,0,0,1.7-1.325c.238-.31.42-.659.635-.992.119-.19.23-.389.357-.571a.791.791,0,0,1,.222-.246Z" transform="translate(-2626.298 -2096.805)" fill="#fff"/>
  </g>
</svg>
