<svg xmlns="http://www.w3.org/2000/svg" width="46.805" height="64.88" viewBox="0 0 46.805 64.88">
  <path id="Tracé_4449" data-name="Tracé 4449" d="M14.852,28.5a23.266,23.266,0,0,1,2.576.023,8.163,8.163,0,0,1,2.37.5,1.78,1.78,0,0,1,.87,2.565,8.48,8.48,0,0,1-.641,1.134C14.657,40.879,9.286,49.033,3.182,56.671a15.372,15.372,0,0,1-1.374,1.489,1.05,1.05,0,0,1-1.454.046.883.883,0,0,1-.24-1.168A8.873,8.873,0,0,1,.56,55.961q4.105-8.073,8.245-16.135c.286-.55.573-1.1,1.008-1.924-.836.057-1.42.1-2.015.126-1.111.057-2.222.126-3.321.149a4.318,4.318,0,0,1-1.145-.149c-1.443-.389-1.832-1.191-1.042-2.473a44.02,44.02,0,0,1,2.954-4.306c4.615-5.84,9.218-11.692,13.925-17.464A129.445,129.445,0,0,1,30.677,1.132,8.5,8.5,0,0,1,31.937.17,1.091,1.091,0,0,1,33.38.433.961.961,0,0,1,33.4,1.761c-.744,1.077-1.466,2.165-2.279,3.184-5.142,6.424-9.516,13.386-14.188,20.143-.744,1.019-1.317,2.13-2.084,3.412Z" transform="translate(0 8.143) rotate(-14)" fill="#d27a22"/>
</svg>
