<svg xmlns="http://www.w3.org/2000/svg" width="16.076" height="17.659" viewBox="0 0 16.076 17.659">
  <path id="Tracé_4460" data-name="Tracé 4460" d="M114.825,1799.972c-.363.145-.691.291-1.036.436-.236.091-.473.2-.727.273a5.478,5.478,0,0,1-1.527.345.337.337,0,0,0-.127.036c-.218.109-.454.2-.672.309-.109.055-.309.073-.218.291-.309.273-.4.727-.818.909.073.273.145.527.218.781a.635.635,0,0,0,.091.145c.055.073.145.127.182.218a1.6,1.6,0,0,0,.672.672,4.757,4.757,0,0,0,1.072.491c.454.164.927.309,1.381.454.236.073.473.091.709.164.327.091.654.2,1.036.309a1.288,1.288,0,0,1-.018.255c-.055.236-.109.454-.182.691l-.109.327a1.072,1.072,0,0,0-.127.436,1.32,1.32,0,0,1-.127.654.509.509,0,0,0,0,.4c.018.018.018.073.018.073-.182.054-.036.145-.036.218a1.979,1.979,0,0,1-.091.473,2.257,2.257,0,0,0-.109.672c0,.036.018.091,0,.091-.164.109-.091.236-.036.382.073.2.073.2-.164.291a3.5,3.5,0,0,0,.254.6,4.814,4.814,0,0,0,.382.473.286.286,0,0,0,.236.073c.2-.109.491-.018.636-.254a.839.839,0,0,1,.127-.127,9.128,9.128,0,0,0,1.018-1.036c.218-.254.473-.454.709-.691a1.141,1.141,0,0,0,.2-.218c.273-.382.545-.781.836-1.145a2.228,2.228,0,0,0,.545-.836,1.387,1.387,0,0,1,.382-.672,3.066,3.066,0,0,0,.382-.563c.055.018.109.018.145.054a7.761,7.761,0,0,1,1.2.818.668.668,0,0,0,.4.254.544.544,0,0,1,.309.182c.218.273.563.345.763.582a4.493,4.493,0,0,0,.691.509,1.7,1.7,0,0,1,.509.509.555.555,0,0,0,.218.182c.145.091.291.2.436.291.164.091.327.236.491,0a.246.246,0,0,1,.164,0,.256.256,0,0,0,.363-.109c.018-.036.073-.055.109-.073.2-.127.236-.218.145-.436-.218-.509-.436-1.036-.672-1.527a8.248,8.248,0,0,0-.854-1.508c-.273-.4-.491-.836-.745-1.254a1.29,1.29,0,0,0-.182-.254,8.812,8.812,0,0,1-.854-1.345c-.091-.145-.073-.236.073-.364a4.51,4.51,0,0,1,1.018-.727,1.036,1.036,0,0,0,.254-.236,3.945,3.945,0,0,0,.636-.709.94.94,0,0,1,.291-.309,3.874,3.874,0,0,0,.872-1.018c.109-.164.055-.382.145-.563.055-.127-.127-.309-.309-.345a.376.376,0,0,1-.309-.254c-.073-.182-.236-.273-.382-.4-.218-.182-.436-.109-.672-.109a1.415,1.415,0,0,1-.672-.055.8.8,0,0,0-.545.036,1.312,1.312,0,0,1-.691.073,4.788,4.788,0,0,0-1.127.236c-.491.127-.854.545-1.381.6-.127.018-.254.055-.4.073a5.2,5.2,0,0,0-.436-1.018c-.254-.363-.418-.763-.672-1.127-.382-.545-.727-1.109-1.09-1.672a4.689,4.689,0,0,0-.636-.818.809.809,0,0,0-.781-.255.769.769,0,0,0-.509.436,2.551,2.551,0,0,0-.182.636c-.055.382-.055.781-.073,1.163a1.377,1.377,0,0,1-.018.273,4.788,4.788,0,0,0-.036.509c-.018.254.073.545-.109.8a.2.2,0,0,0,0,.2.961.961,0,0,1,.055.672,3.794,3.794,0,0,0,.091,1Z" transform="translate(-109.7 -1794.258)" fill="#d27a22"/>
</svg>
