<svg xmlns="http://www.w3.org/2000/svg" width="21.715" height="36.334" viewBox="0 0 21.715 36.334">
  <path id="Tracé_4394" data-name="Tracé 4394" d="M362.419,1941.737c.436-.054.818-.109,1.218-.145,1.926-.164,3.853-.327,5.779-.454a4.592,4.592,0,0,1,1.218.091c.309.054.6.2.636.563a.662.662,0,0,1-.418.745,19.376,19.376,0,0,1-2.526,1.109c-1.854.582-3.744,1.072-5.616,1.6-.218.054-.436.109-.691.182-.073.636-.145,1.254-.218,1.89-.309,2.835-.563,5.67-.909,8.505-.164,1.363-.454,2.708-.727,4.053a3.254,3.254,0,0,1-.436,1.072.84.84,0,0,1-1.508.054,4.1,4.1,0,0,1-.509-1.109,21.552,21.552,0,0,1-.872-4.144,48.663,48.663,0,0,1-.254-8.614c.018-.218,0-.436,0-.727-.709.036-1.4.091-2.09.109-1.072.036-2.126.073-3.2.055a3.124,3.124,0,0,1-1.145-.218.766.766,0,0,1-.218-1.4,8.948,8.948,0,0,1,1.854-1.072c1.472-.582,2.962-1.09,4.453-1.617a2.522,2.522,0,0,1,.345-.109.533.533,0,0,0,.491-.582c.073-1.09.164-2.163.273-3.253a47.335,47.335,0,0,1,1.49-9.287,15.777,15.777,0,0,1,.745-2.017,6.745,6.745,0,0,1,.781-1.236,1.332,1.332,0,0,1,1.49-.618c.618.182.727.745.781,1.272a12.668,12.668,0,0,1,.127,1.654c.055,2.035.145,4.071.091,6.088-.055,2.29-.273,4.6-.4,6.888A2.634,2.634,0,0,0,362.419,1941.737Z" transform="translate(-349.564 -1925.11)" fill="#d27a22"/>
</svg>
