<svg xmlns="http://www.w3.org/2000/svg" width="45.649" height="65.319" viewBox="0 0 45.649 65.319">
  <path id="Tracé_4463" data-name="Tracé 4463" d="M1079.439,2392.294c-1.854-.854-3.562-1.654-5.27-2.435q-4.58-2.072-9.2-4.162a1.253,1.253,0,0,1-.909-1.29c.073-.709.672-.854,1.236-.909.654-.054,1.327,0,1.981-.018,2.69-.018,5.4-.127,8.087-.036,3.108.091,6.2.364,9.287.563a4.762,4.762,0,0,0,.672-.036c.109-.582.236-1.109.309-1.654a82.269,82.269,0,0,1,3.907-15.866c.236-.727.473-1.454.727-2.163.164-.454.418-.836.981-.8a1.058,1.058,0,0,1,1.018.963,9.13,9.13,0,0,1,.182,1.2c.182,3,.454,6,.509,9,.055,3.253-.109,6.524-.164,9.777v1.454c1.727-.091,3.326-.218,4.943-.254,3.053-.073,6.125-.091,9.178-.109a6.8,6.8,0,0,1,1.817.182c.382.109.909.473.963.781a2.038,2.038,0,0,1-.473,1.309,2.384,2.384,0,0,1-1.018.672c-2.835,1.272-5.652,2.563-8.505,3.78a26.693,26.693,0,0,1-2.835.872c.672,1.091,1.272,2.126,1.926,3.108a59.232,59.232,0,0,1,6.47,11.758,6.568,6.568,0,0,1,.364,1c.127.545.291,1.163-.345,1.508a1.326,1.326,0,0,1-1.563-.218c-.545-.454-1.127-.891-1.636-1.381-2.09-2.017-4.162-4.034-6.215-6.088-1.218-1.218-2.363-2.508-3.671-3.889a6.343,6.343,0,0,0-.236,1.054q-.409,6.188-.763,12.358c-.291,4.78-.563,9.559-.872,14.339a5.161,5.161,0,0,1-.291,1.49c-.109.291-.509.673-.745.654a1.409,1.409,0,0,1-.963-.6,5.781,5.781,0,0,1-.527-1.581c-1.036-4.471-2.181-8.905-3.035-13.412a76.216,76.216,0,0,1-.909-8.651c-.127-1.563-.018-3.162-.018-5.034-.563.364-.836.527-1.09.709-1.963,1.363-3.944,2.708-5.87,4.125-2.381,1.763-4.689,3.58-7.033,5.4-.763.6-1.49,1.236-2.254,1.817a1.289,1.289,0,0,1-1.563.146,1.162,1.162,0,0,1-.4-1.509,27.834,27.834,0,0,1,1.708-3.744,60.478,60.478,0,0,1,6.924-8.741c1.581-1.745,3.271-3.435,5.179-5.434Z" transform="translate(-1064.056 -2363.487)" fill="#d27a22"/>
</svg>
